<svg width="309" height="118" viewBox="0 0 309 118" fill="none" xmlns="http://www.w3.org/2000/svg">
<path d="M6.70652 45H1.81257V26.4082H9.42538C14.4488 26.4082 17.323 28.661 17.323 32.6227C17.323 35.005 15.8988 36.9729 13.3871 38.0345L17.9445 45H12.1183L8.31194 38.8114H6.70652V45ZM6.70652 30.4476V34.7719H9.21823C11.3933 34.7719 12.4032 34.0987 12.4032 32.6227C12.4032 31.1468 11.3933 30.4476 9.21823 30.4476H6.70652ZM33.2997 40.7534V45H20.1456V26.4082H33.1185V30.6548H25.0396V33.3219H32.3676V37.5685H25.0396V40.7534H33.2997ZM43.352 39.3292H40.9957V45H36.1017V26.4082H43.352C48.2201 26.4082 51.1461 28.5833 51.1461 32.7522C51.1461 36.947 48.2201 39.3292 43.352 39.3292ZM43.3261 30.5253H40.9957V35.2121H43.3261C45.2682 35.2121 46.278 34.2281 46.278 32.804C46.278 31.3539 45.2682 30.5253 43.3261 30.5253ZM62.1188 45.3884C56.7588 45.3884 52.5381 41.3231 52.5381 35.6782C52.5381 30.0333 56.7588 26.0198 62.1188 26.0198C67.5048 26.0198 71.7255 30.0333 71.7255 35.6782C71.7255 41.3231 67.5048 45.3884 62.1188 45.3884ZM62.1188 41.0123C65.0448 41.0123 66.6762 38.6042 66.6762 35.6782C66.6762 32.7522 65.0448 30.3958 62.1188 30.3958C59.1928 30.3958 57.5615 32.7522 57.5615 35.6782C57.5615 38.6042 59.1928 41.0123 62.1188 41.0123ZM79.1538 45H74.2598V26.4082H81.8726C86.8961 26.4082 89.7703 28.661 89.7703 32.6227C89.7703 35.005 88.3461 36.9729 85.8344 38.0345L90.3917 45H84.5656L80.7592 38.8114H79.1538V45ZM79.1538 30.4476V34.7719H81.6655C83.8406 34.7719 84.8504 34.0987 84.8504 32.6227C84.8504 31.1468 83.8406 30.4476 81.6655 30.4476H79.1538ZM101.506 45H96.6125V30.836H90.9159V26.4082H107.203V30.836H101.506V45ZM124.045 38.9149C124.045 42.7472 120.989 45.2589 116.147 45.2589C111.305 45.2589 108.198 42.6954 107.861 38.5783H112.807C112.859 40.3391 114.024 41.4525 116.044 41.4525C117.727 41.4525 118.84 40.8052 118.84 39.64C118.84 38.8373 118.037 38.2417 116.95 38.0345L113.558 37.3872C110.58 36.8175 108.612 35.0826 108.612 32.0789C108.612 28.6092 111.668 26.1751 115.837 26.1751C120.264 26.1751 123.449 28.7127 123.734 32.7263H118.788C118.659 31.0432 117.52 29.9556 115.888 29.9556C114.438 29.9556 113.558 30.7325 113.558 31.7423C113.558 32.5709 114.386 33.0629 115.37 33.2442L118.97 33.9433C122.284 34.5907 124.045 36.222 124.045 38.9149ZM130.981 42.307C130.981 43.9642 129.842 45.1295 128.185 45.1295C126.527 45.1295 125.362 43.9642 125.362 42.307C125.362 40.6239 126.527 39.4587 128.185 39.4587C129.842 39.4587 130.981 40.6239 130.981 42.307Z" fill="#99D3AC"/>
<path d="M0.155308 76.6991C0.106973 76.5057 0.119056 76.3366 0.191559 76.1916C0.239895 76.0224 0.324481 75.8411 0.445319 75.6478C0.566158 75.4544 0.650744 75.2974 0.69908 75.1765C0.650744 74.9107 0.711163 74.6811 0.880337 74.4877C1.07368 74.2702 1.19452 74.0769 1.24285 73.9077C1.41202 72.8927 2.0283 71.4547 3.09167 69.5938C4.15505 67.7087 4.78341 66.4762 4.97675 65.8961C5.00092 65.8478 5.02509 65.7391 5.04925 65.5699C5.09759 65.4007 5.13384 65.2799 5.15801 65.2074C5.20634 65.1107 5.25468 64.9778 5.30301 64.8086C5.37552 64.6153 5.43594 64.4823 5.48427 64.4098C5.55677 64.3373 5.64136 64.2407 5.73803 64.1198C5.8347 63.9748 5.93137 63.9144 6.02804 63.9386C6.12471 63.9627 6.24555 63.9748 6.39056 63.9748C6.53556 63.9023 6.52348 63.8419 6.35431 63.7936C6.16096 63.7452 6.04013 63.6848 5.99179 63.6123C5.94346 63.4915 5.91929 63.4069 5.91929 63.3585C5.94346 63.286 5.97971 63.1773 6.02804 63.0323C6.10055 62.8631 6.14888 62.7544 6.17305 62.706C6.34222 62.0535 6.48723 61.7272 6.60807 61.7272C6.6564 61.7272 6.71682 61.8118 6.78932 61.981C6.86183 62.0052 6.92224 62.0052 6.97058 61.981C7.04308 61.9327 7.11559 61.8843 7.18809 61.836C7.26059 61.7635 7.32101 61.7151 7.36935 61.691C7.56269 61.691 7.69561 61.6547 7.76811 61.5822C7.86478 61.4856 7.97354 61.4251 8.09437 61.401C8.14271 61.5218 8.11854 61.6426 8.02187 61.7635C7.94937 61.8843 7.91312 61.9568 7.91312 61.981C7.91312 62.0535 7.91312 62.1864 7.91312 62.3798C7.93729 62.5489 7.93729 62.6819 7.91312 62.7785C7.84061 63.0927 7.71978 63.3344 7.5506 63.5036C7.42976 63.5277 7.36935 63.6606 7.36935 63.9023C7.39351 64.144 7.4056 64.289 7.4056 64.3373C7.33309 64.8207 7.13975 65.437 6.82557 66.1862C6.53556 66.9354 6.36639 67.4187 6.31805 67.6362C6.5114 67.6362 6.71682 67.5879 6.93433 67.4912C7.00683 67.467 7.13975 67.4791 7.33309 67.5275C7.52644 67.5758 7.65936 67.6 7.73186 67.6C7.75603 67.6 7.96145 67.5758 8.34813 67.5275C8.73482 67.455 9.03691 67.3825 9.25442 67.31C9.47193 67.2133 9.61694 67.0924 9.68944 66.9474C9.81028 66.7783 10.0157 66.6212 10.3057 66.4762C10.4024 66.452 10.5353 66.4278 10.7045 66.4037C10.8737 66.3553 11.0066 66.307 11.1032 66.2587C11.6591 65.9928 12.2633 65.5336 12.9158 64.8811C13.5925 64.2044 14.1 63.564 14.4384 62.9598C14.6559 62.5489 14.7042 61.9327 14.5834 61.111C14.4867 60.4343 14.3055 59.8059 14.0396 59.2259C13.7738 58.6217 13.3992 57.9208 12.9158 57.1233C12.4566 56.3016 12.1062 55.6491 11.8645 55.1657C11.8162 55.069 11.7558 55.0086 11.6833 54.9845C11.6349 54.9603 11.5503 54.9482 11.4295 54.9482C11.3087 54.9482 11.2241 54.9482 11.1757 54.9482C11.0791 54.8999 10.9824 54.8395 10.8857 54.767C10.7891 54.6703 10.7166 54.634 10.6682 54.6582C10.6441 54.6582 10.5353 54.6582 10.342 54.6582C9.85861 54.5615 9.59277 54.5132 9.54443 54.5132C9.30276 54.5132 9.02483 54.6099 8.71065 54.8032L7.91312 55.2382C7.84061 55.2624 7.75603 55.2986 7.65936 55.347C7.56269 55.3711 7.50227 55.3953 7.4781 55.4195C7.45393 55.4436 7.41768 55.492 7.36935 55.5645C7.32101 55.6128 7.33309 55.6853 7.4056 55.782C7.4781 56.0237 6.99475 56.2653 5.95554 56.507C5.93137 56.507 5.88304 56.5191 5.81053 56.5433C5.64136 56.5916 5.50844 56.6279 5.41177 56.652C5.3151 56.6762 5.23051 56.7366 5.15801 56.8333C5.0855 56.93 5.06134 57.0387 5.0855 57.1595C5.10967 57.2562 5.13384 57.2683 5.15801 57.1958C5.18218 57.1233 5.20634 57.087 5.23051 57.087C5.37552 57.3046 5.47219 57.5946 5.52052 57.9571C5.47219 58.0779 5.41177 58.1504 5.33926 58.1746C5.29093 58.1988 5.24259 58.1988 5.19426 58.1746C5.14592 58.1504 5.10967 58.1142 5.0855 58.0658L5.013 58.0296L5.0855 57.6671C5.013 57.6671 4.91633 57.7396 4.79549 57.8846C4.74716 57.9329 4.72299 58.0054 4.72299 58.1021C4.62632 58.1021 4.55382 58.09 4.50548 58.0658C4.48131 58.0175 4.46923 57.9812 4.46923 57.9571C4.46923 57.9087 4.46923 57.8483 4.46923 57.7758C4.4934 57.7033 4.50548 57.6429 4.50548 57.5946C4.60215 57.5946 4.66257 57.5825 4.68674 57.5583C4.71091 57.51 4.71091 57.4616 4.68674 57.4133C4.66257 57.3408 4.67465 57.2804 4.72299 57.2321L5.30301 56.362C5.9072 56.2895 6.24555 56.217 6.31805 56.1445C6.34222 56.1203 6.39056 56.1083 6.46306 56.1083C6.55973 56.0358 6.62015 55.9753 6.64432 55.927C6.49931 55.8545 6.40264 55.7578 6.35431 55.637C6.33014 55.5161 6.35431 55.3832 6.42681 55.2382C6.52348 55.0932 6.62015 54.9482 6.71682 54.8032C6.83766 54.6582 6.9585 54.5132 7.07933 54.3682C7.20017 54.2232 7.27268 54.1265 7.29684 54.0782C7.87687 53.2565 8.86774 52.8215 10.2695 52.7731C10.2695 52.9906 10.3057 53.0994 10.3782 53.0994C10.4024 53.0994 10.487 53.0631 10.632 52.9906C10.8011 52.9181 10.9462 52.894 11.067 52.9181C11.4053 52.9665 11.8162 53.1598 12.2995 53.4982C12.5896 53.7157 12.8796 53.9936 13.1696 54.3319C13.4596 54.6461 13.6892 54.912 13.8584 55.1295C14.0275 55.347 14.233 55.7095 14.4746 56.217C14.7405 56.7245 14.8976 57.0508 14.9459 57.1958C15.0184 57.3166 15.1876 57.6792 15.4534 58.2833L15.8522 59.2259C16.1905 59.5642 16.3597 60.1563 16.3597 61.0022C16.3597 61.7031 16.3718 62.1139 16.396 62.2348C16.4443 62.5006 16.3839 62.7302 16.2147 62.9235C16.0455 63.1169 15.9489 63.2981 15.9247 63.4673C15.9005 63.7331 15.828 63.999 15.7072 64.2648C15.5863 64.5065 15.4655 64.6998 15.3447 64.8449C15.248 64.9899 15.0788 65.2074 14.8371 65.4974C14.5955 65.7632 14.4263 65.9445 14.3296 66.0412C14.1605 66.2587 13.8221 66.5245 13.3146 66.8387C12.8312 67.1287 12.5291 67.3704 12.4083 67.5637C12.2391 67.6362 11.9854 67.7812 11.647 67.9987C11.3087 68.2162 11.0187 68.3612 10.777 68.4337C10.6078 68.5063 10.3782 68.6271 10.0882 68.7963C9.82236 68.9413 9.6411 69.0379 9.54443 69.0863C9.47193 68.9896 9.42359 68.9171 9.39943 68.8688C9.39943 68.7963 9.42359 68.7358 9.47193 68.6875C9.52027 68.6392 9.58068 68.615 9.65319 68.615C9.72569 68.5908 9.81028 68.5667 9.90695 68.5425C10.0278 68.4942 10.1124 68.4579 10.1607 68.4337C10.1849 68.4096 10.2332 68.3854 10.3057 68.3612C10.3782 68.3371 10.4386 68.3129 10.487 68.2887C10.5353 68.2646 10.5836 68.2404 10.632 68.2162C10.7045 68.1679 10.7528 68.1317 10.777 68.1075C10.8253 68.0833 10.8737 68.0591 10.922 68.035C10.9703 67.9866 11.0066 67.9504 11.0307 67.9262C11.0549 67.8779 11.067 67.8416 11.067 67.8175C11.0912 67.7691 11.0912 67.7329 11.067 67.7087C11.067 67.6604 11.0549 67.612 11.0307 67.5637C9.82236 67.9021 9.06108 68.0833 8.7469 68.1075C8.45689 68.1075 8.13063 68.3129 7.76811 68.7238C7.74394 68.7479 7.42977 68.8325 6.82557 68.9775C6.5839 69.0259 6.53556 69.1225 6.68057 69.2675C6.82557 69.2675 6.91016 69.3521 6.93433 69.5213C6.83766 69.5455 6.5839 69.5938 6.17305 69.6663C5.7622 69.7388 5.44802 69.7871 5.23051 69.8113C5.10967 69.9321 5.03717 70.1013 5.013 70.3188C4.98883 70.5363 4.9405 70.7176 4.868 70.8626C4.48131 71.491 4.0463 72.3489 3.56294 73.4364C3.07959 74.4998 2.68083 75.2853 2.36665 75.7928C2.31831 75.8895 2.16122 76.1311 1.89538 76.5178C1.6537 76.9045 1.47244 77.2066 1.35161 77.4241C1.1341 77.4483 0.940756 77.4604 0.771582 77.4604C0.626577 77.4362 0.505738 77.3758 0.409068 77.2791C0.312397 77.1583 0.227811 76.9649 0.155308 76.6991ZM4.65049 59.5884C4.45715 59.5884 4.26381 59.5521 4.07046 59.4796C3.90129 59.4071 3.90129 59.2863 4.07046 59.1171C4.23964 59.2863 4.36048 59.3226 4.43298 59.2259C4.14297 58.9842 4.09463 58.6096 4.28797 58.1021C4.33631 58.1504 4.45715 58.235 4.65049 58.3558C4.84383 58.4767 4.96467 58.5975 5.013 58.7184C5.13384 58.9359 5.15801 59.0688 5.0855 59.1171C5.03717 59.1655 4.95258 59.1775 4.83174 59.1534C4.71091 59.105 4.65049 59.1292 4.65049 59.2259C4.69882 59.2259 4.77133 59.25 4.868 59.2984C4.868 59.3467 4.84383 59.3951 4.79549 59.4434C4.74716 59.4917 4.72299 59.528 4.72299 59.5521L5.04925 59.6971C5.00092 59.8422 4.91633 59.9509 4.79549 60.0234C4.79549 59.9751 4.75924 59.9147 4.68674 59.8422C4.6384 59.7455 4.62632 59.6609 4.65049 59.5884ZM6.86183 60.8209C6.78932 60.7726 6.81349 60.5914 6.93433 60.2772C6.91016 60.108 6.94641 60.0113 7.04308 59.9872C7.13975 59.9388 7.22434 59.8784 7.29684 59.8059C7.80436 59.9751 7.97354 60.2651 7.80436 60.6759C7.70769 60.6276 7.63519 60.5188 7.58685 60.3497C7.56269 60.2288 7.49018 60.2288 7.36935 60.3497C7.32101 60.398 7.30893 60.4584 7.33309 60.5309C7.38143 60.5793 7.39351 60.6276 7.36935 60.6759C7.27268 60.7484 7.20017 60.7364 7.15184 60.6397C7.12767 60.543 7.031 60.6034 6.86183 60.8209ZM7.22434 69.5213C7.20017 69.3279 7.30893 69.195 7.5506 69.1225C7.81645 69.05 8.11854 69.0138 8.45689 69.0138C8.79524 68.9896 9.01274 68.9413 9.10942 68.8688C9.18192 68.9896 9.23025 69.0863 9.25442 69.1588C9.03691 69.1588 8.66231 69.2192 8.13063 69.34C7.59894 69.4609 7.29684 69.5213 7.22434 69.5213ZM4.21547 60.1684C4.07046 60.0476 4.0463 59.9267 4.14297 59.8059C4.31214 59.7817 4.42089 59.7817 4.46923 59.8059C4.51757 59.8301 4.52965 59.9026 4.50548 60.0234C4.45715 60.0234 4.39673 60.0476 4.32422 60.0959C4.27589 60.1442 4.23964 60.1684 4.21547 60.1684ZM7.29684 61.546C7.031 61.4493 7.031 61.3768 7.29684 61.3285C7.41768 61.4251 7.41768 61.4976 7.29684 61.546ZM4.57798 60.2409C4.55382 60.1926 4.55382 60.1684 4.57798 60.1684C4.62632 60.1442 4.67465 60.1442 4.72299 60.1684C4.84383 60.2168 4.91633 60.2651 4.9405 60.3134C4.74716 60.3134 4.62632 60.2893 4.57798 60.2409ZM18.2983 76.9528C18.105 77.0495 17.9116 77.0978 17.7183 77.0978C17.3558 77.0978 17.0899 76.9528 16.9208 76.6628C16.7757 76.3728 16.812 75.9982 17.0295 75.539C17.1745 75.249 17.4404 74.8503 17.827 74.3427C18.2137 73.8352 18.4796 73.4485 18.6246 73.1827C18.7937 72.8927 19.0354 72.651 19.3496 72.4577C19.6879 72.2643 19.9055 72.1072 20.0021 71.9864C20.0746 71.9139 20.123 71.7689 20.1471 71.5514C20.1713 71.3339 20.1471 71.2251 20.0746 71.2251C20.0505 71.2251 20.0142 71.2372 19.9659 71.2614C19.9175 71.2855 19.8571 71.2976 19.7846 71.2976C19.7363 71.2734 19.6879 71.2251 19.6396 71.1526C19.4704 70.8868 19.5913 70.5363 20.0021 70.1013C20.4371 69.6663 20.8238 69.5334 21.1622 69.7025C21.5247 69.9201 21.6697 70.2101 21.5972 70.5726C21.5005 71.0076 21.5609 71.2251 21.7784 71.2251C21.9718 71.2251 22.2497 71.0922 22.6122 70.8263C22.7089 70.7538 23.0835 70.633 23.736 70.4638C24.4127 70.2705 24.8236 70.1859 24.9686 70.2101C25.0894 70.2584 25.2586 70.3551 25.4761 70.5001C25.7178 70.6209 25.8869 70.6934 25.9836 70.7176C26.3461 70.8143 26.8899 70.9955 27.6149 71.2614C28.3641 71.5272 29.0167 71.7326 29.5725 71.8776C30.1284 72.0226 30.6238 72.0951 31.0588 72.0951C31.3488 72.0951 31.6147 72.0589 31.8563 71.9864C32.0497 71.9139 32.243 71.781 32.4364 71.5876C32.6297 71.3943 32.8231 71.1647 33.0164 70.8988C33.2339 70.633 33.4031 70.4397 33.5239 70.3188C34.1281 69.7146 35.0344 69.4125 36.2428 69.4125C36.8228 69.4125 37.2457 69.4971 37.5116 69.6663C37.8016 69.8355 37.9949 70.1859 38.0916 70.7176C38.1158 70.8868 38.0916 71.0559 38.0191 71.2251C37.9466 71.3943 37.8258 71.5514 37.6566 71.6964C37.4874 71.8414 37.3062 71.9864 37.1128 72.1314C36.9436 72.2522 36.714 72.3852 36.424 72.5302C36.1582 72.6752 35.9407 72.796 35.7715 72.8927C35.6023 72.9652 35.3727 73.0618 35.0827 73.1827C34.7927 73.3035 34.6115 73.3881 34.539 73.4364C34.4665 73.4606 34.2731 73.521 33.9589 73.6177C33.6689 73.6902 33.4031 73.7869 33.1614 73.9077C32.9439 74.0044 32.7989 74.1252 32.7264 74.2702C32.5572 74.5844 32.7747 75.0436 33.3789 75.6478C33.9831 76.252 34.5148 76.687 34.974 76.9528C35.3123 77.122 35.6265 77.267 35.9165 77.3879C36.2307 77.5087 36.557 77.6174 36.8953 77.7141C37.2578 77.8108 37.5478 77.8833 37.7653 77.9316C38.007 77.98 38.3454 78.0404 38.7804 78.1129C39.2396 78.2096 39.5658 78.2821 39.7592 78.3304C39.88 78.3546 40.5446 78.3546 41.753 78.3304C42.9614 78.3304 43.6018 78.3183 43.6743 78.2941C43.6985 78.27 43.7952 78.2941 43.9643 78.3666C44.1577 78.4391 44.2785 78.4512 44.3268 78.4029C44.3268 78.3304 44.2785 78.27 44.1818 78.2216C44.3268 78.1733 44.496 78.1491 44.6894 78.1491C44.8102 78.1491 44.7498 78.2458 44.5081 78.4391C44.2664 78.6567 44.1335 78.8258 44.1093 78.9467C44.1093 79.0917 43.9522 79.1883 43.6381 79.2367C43.3481 79.3092 42.9493 79.3454 42.4418 79.3454C41.9584 79.3696 41.6684 79.3817 41.5717 79.3817L40.9192 79.5267C40.5084 79.6475 40.17 79.6959 39.9042 79.6717L38.4541 79.4904C37.5116 79.3696 36.7261 79.2488 36.0978 79.1279C35.4936 79.0071 34.8048 78.7775 34.0314 78.4391C33.2581 78.125 32.6176 77.7141 32.1101 77.2066C31.8201 76.9166 31.5301 76.397 31.2401 75.6478C30.9742 74.8744 30.8655 74.2702 30.9138 73.8352C30.7205 73.7385 30.5875 73.6902 30.515 73.6902C29.935 73.6902 29.2946 73.5935 28.5937 73.4002C27.917 73.1827 27.1799 72.9048 26.3824 72.5664C25.5848 72.2281 25.0169 72.0106 24.6786 71.9139C24.171 71.7689 23.1077 72.1918 21.4884 73.1827C21.1743 73.376 20.8963 73.5694 20.6547 73.7627C20.413 73.9561 20.1713 74.1977 19.9296 74.4877C19.7121 74.7778 19.5429 74.9953 19.4221 75.1403C19.3254 75.2853 19.1321 75.5874 18.8421 76.0466C18.5762 76.5057 18.395 76.8078 18.2983 76.9528ZM34.1402 71.3339C33.6085 71.7447 33.4877 71.9501 33.7777 71.9501C33.9468 71.9501 34.1764 71.9018 34.4665 71.8051C34.8531 71.7326 35.0102 71.5635 34.9377 71.2976C34.9136 71.1526 34.8169 71.0801 34.6477 71.0801C34.4785 71.0801 34.3094 71.1647 34.1402 71.3339ZM44.8706 79.0554C44.7256 79.0313 44.6894 78.9588 44.7619 78.8379H44.9431C44.9431 78.8137 44.931 78.7654 44.9069 78.6929C44.8827 78.6204 44.8948 78.5842 44.9431 78.5842C44.9673 78.5842 45.0156 78.5237 45.0881 78.4029C45.1848 78.3062 45.2815 78.27 45.3781 78.2941C45.7648 78.4633 45.8132 78.6687 45.5231 78.9104C45.3298 79.0554 45.1123 79.1038 44.8706 79.0554ZM41.9532 78.2216C41.7599 77.98 41.6995 77.7504 41.772 77.5329C41.8203 77.3879 41.8686 77.3033 41.917 77.2791C41.9895 77.2308 42.0982 77.2187 42.2432 77.2428C42.3882 77.2428 42.497 77.2308 42.5695 77.2066C43.1979 77.1099 44.1887 76.7837 45.5421 76.2278L45.8684 76.1191C46.0859 76.0707 46.2671 76.0103 46.4122 75.9378C46.5572 75.8653 46.6297 75.7928 46.6297 75.7203C46.6297 75.5028 46.4967 75.2249 46.2309 74.8865C45.9651 74.5482 45.6267 74.1373 45.2159 73.654C44.805 73.1464 44.4908 72.6631 44.2733 72.2039C44.1766 72.0106 43.9954 71.7205 43.7295 71.3339C43.4879 70.923 43.2824 70.5605 43.1133 70.2463C42.9683 69.908 42.8716 69.5696 42.8233 69.2313C42.7024 68.4579 42.8112 67.9262 43.1495 67.6362C43.2462 67.6362 43.2704 67.5033 43.222 67.2375C43.1979 66.9716 43.1979 66.8024 43.222 66.7299C43.2945 66.4883 43.7054 66.2224 44.4546 65.9324C45.2038 65.6182 45.7113 65.4853 45.9771 65.5336C47.0405 65.7753 47.7776 66.0532 48.1885 66.3674C48.5993 66.6574 48.9135 67.2616 49.131 68.18C49.3002 69.0742 49.276 69.473 49.0585 69.3763C49.0343 69.3763 49.0102 69.3642 48.986 69.34C48.9618 69.3159 48.9498 69.2554 48.9498 69.1588C48.9498 69.0379 48.9256 68.9534 48.8772 68.905C48.8289 68.8567 48.7685 68.8325 48.696 68.8325C48.6235 68.8325 48.5631 68.7963 48.5147 68.7238C48.4181 68.4821 48.2489 68.1196 48.0072 67.6362C48.0072 67.612 47.971 67.612 47.8985 67.6362C47.826 67.6604 47.7655 67.6362 47.7172 67.5637C47.7897 67.4187 47.7172 67.2737 47.4997 67.1287C47.4272 67.0804 47.3547 67.0924 47.2822 67.1649C47.2097 67.2374 47.1613 67.2737 47.1372 67.2737C47.0647 67.2979 46.968 67.2616 46.8472 67.1649C46.7263 67.0441 46.6297 67.0079 46.5572 67.0562C46.4847 67.1287 46.4726 67.2012 46.5209 67.2737C46.5692 67.322 46.678 67.3945 46.8472 67.4912C46.9922 67.5879 47.0405 67.6483 46.9922 67.6725C46.9922 67.7208 46.9197 67.7208 46.7747 67.6725C46.3396 67.5516 45.9651 67.4912 45.6509 67.4912C44.8533 67.4912 44.4183 67.9625 44.3458 68.905C44.3458 69.05 44.4183 69.3521 44.5633 69.8113C44.7083 70.2463 44.8171 70.5001 44.8896 70.5726C45.0588 70.7176 45.2521 70.9713 45.4696 71.3339C45.6871 71.6964 45.808 71.8897 45.8321 71.9139C46.098 72.3006 46.388 72.6631 46.7022 73.0014C47.548 73.8473 48.0797 74.6932 48.2972 75.539C48.2972 75.7565 48.3093 75.9015 48.3335 75.974C48.3818 76.0466 48.3576 76.1674 48.261 76.3366C48.1885 76.5057 48.1401 76.6145 48.116 76.6628C48.0918 76.687 48.0193 76.7957 47.8985 76.9891C47.7776 77.1583 47.693 77.267 47.6447 77.3154C47.3547 77.6537 47.0768 77.847 46.8109 77.8954C46.7384 77.8954 46.5934 77.8712 46.3759 77.8229C46.1826 77.7987 46.0496 77.8229 45.9771 77.8954C45.2521 78.2337 44.7083 78.4271 44.3458 78.4754C44.2975 78.4029 44.2733 78.3546 44.2733 78.3304C44.2975 78.3062 44.3337 78.2579 44.3821 78.1854C44.4546 78.1129 44.5029 78.0404 44.5271 77.9679C44.5271 77.8712 44.4667 77.7866 44.3458 77.7141C44.3458 78.0283 44.1041 78.3062 43.6208 78.5479C42.7266 78.6687 42.1707 78.56 41.9532 78.2216ZM43.2583 67.8175C43.1374 67.9383 43.1133 68.0712 43.1858 68.2162C43.2824 68.3371 43.3912 68.3975 43.512 68.3975C43.6329 68.3975 43.6933 68.3008 43.6933 68.1075C43.6933 67.6725 43.5483 67.5758 43.2583 67.8175ZM55.7075 76.9528C54.8375 76.9528 54.0037 76.7112 53.2062 76.2278C52.4328 75.7203 52.0461 75.0557 52.0461 74.234C52.0461 72.7839 53.182 71.0801 55.4538 69.1225C55.5021 69.0742 55.6109 68.9775 55.78 68.8325C55.9734 68.6633 56.1425 68.5183 56.2876 68.3975C56.4567 68.2767 56.6501 68.1196 56.8676 67.9262C57.1093 67.7329 57.3147 67.5879 57.4839 67.4912C57.653 67.3945 57.8464 67.2858 58.0639 67.1649C58.2814 67.0441 58.4385 66.9958 58.5351 67.0199C58.6318 67.0199 58.7406 67.0441 58.8614 67.0924C59.1756 67.3825 59.3448 67.8054 59.3689 68.3612C59.3931 68.8929 59.1998 69.1709 58.7889 69.195C58.4747 69.195 58.2572 69.34 58.1364 69.63C58.0155 69.9201 57.8947 70.1013 57.7739 70.1738C57.4113 70.3188 56.9884 70.6572 56.5051 71.1889C56.0217 71.6964 55.7438 71.9864 55.6713 72.0589C55.1879 72.4697 54.8617 72.8443 54.6925 73.1827C54.5233 73.4969 54.3904 73.9561 54.2937 74.5602C54.3904 74.5602 54.8012 74.6086 55.5263 74.7052C56.2513 74.7778 56.8072 74.814 57.1938 74.814C57.9189 74.814 58.5351 74.7173 59.0427 74.524C60.7102 73.6781 62.1965 73.086 63.5016 72.7477C63.6224 72.6993 63.7674 72.6631 63.9366 72.6389C64.13 72.6147 64.287 72.5785 64.4079 72.5302C64.5529 72.4818 64.6858 72.3852 64.8066 72.2401C65 72.0226 65.3746 71.8776 65.9304 71.8051C66.4863 71.7326 66.8488 71.5997 67.018 71.4064C67.1147 71.3822 67.1872 71.3943 67.2355 71.4426C67.308 71.4668 67.3563 71.503 67.3805 71.5514C67.4047 71.5755 67.4409 71.5755 67.4893 71.5514C67.5376 71.5272 67.5859 71.4547 67.6343 71.3339C67.7793 71.1164 67.9726 71.0076 68.2143 71.0076C68.4318 70.9834 68.8064 70.8747 69.3381 70.6813C69.6039 70.5847 69.8456 70.5968 70.0631 70.7176C70.2806 70.8384 70.3894 71.0559 70.3894 71.3701C70.3894 71.6843 70.3289 71.8776 70.2081 71.9501C70.0873 72.0226 69.9181 72.0347 69.7006 71.9864C69.5072 71.9139 69.2656 71.9381 68.9756 72.0589C68.8306 72.1314 68.0572 72.6631 66.6555 73.654C66.5588 73.7748 66.2446 73.9319 65.7129 74.1252C65.2054 74.2944 64.8308 74.3911 64.5891 74.4152C64.0091 74.5119 62.6557 74.959 60.529 75.7565C58.4264 76.5541 56.8192 76.9528 55.7075 76.9528ZM69.5556 77.3154C69.0481 77.0495 68.891 76.6991 69.0843 76.2641C69.1085 76.1916 69.1447 76.0828 69.1931 75.9378C69.2656 75.7928 69.326 75.672 69.3743 75.5753C69.4227 75.4544 69.4831 75.3215 69.5556 75.1765C69.6523 75.0073 69.7248 74.8865 69.7731 74.814C69.8456 74.7173 69.9302 74.6207 70.0269 74.524C70.1235 74.4273 70.2081 74.3911 70.2806 74.4152C70.3773 74.4394 70.486 74.4636 70.6069 74.4877C70.631 74.5119 70.6431 74.5723 70.6431 74.669C70.6673 74.7657 70.7035 74.8261 70.7519 74.8503C70.9452 74.8986 71.1144 74.8019 71.2594 74.5602C71.4286 74.2944 71.4527 74.0769 71.3319 73.9077C71.3077 73.8594 71.2352 73.8594 71.1144 73.9077C71.0177 73.9561 70.9211 74.0044 70.8244 74.0527C70.7519 74.0769 70.7035 74.0406 70.6794 73.944C70.6069 73.654 70.5827 73.2673 70.6069 72.7839C70.631 72.3006 70.7035 72.0226 70.8244 71.9501C70.9211 71.9018 71.199 71.926 71.6582 72.0226C71.8032 72.0468 72.1294 71.9501 72.637 71.7326C73.1686 71.5151 73.4707 71.3459 73.5432 71.2251C73.5674 71.2009 73.7003 71.0197 73.942 70.6813C74.1837 70.3188 74.4133 69.9926 74.6308 69.7025C74.8725 69.3884 75.0175 69.2192 75.0658 69.195C75.2591 69.0742 75.5008 69.0138 75.7908 69.0138C76.1775 69.0138 76.5038 69.1346 76.7696 69.3763C77.108 69.6905 77.5551 69.8476 78.1109 69.8476C78.4734 69.8476 78.981 69.763 79.6335 69.5938C80.3102 69.4246 80.721 69.328 80.866 69.3038C82.2194 69.1104 83.029 69.0138 83.2949 69.0138C84.0682 69.0138 84.757 69.195 85.3612 69.5575C85.9654 69.9201 86.2675 70.4638 86.2675 71.1889C86.2675 71.4789 86.2071 71.8051 86.0862 72.1676C85.9654 72.506 85.8446 72.7839 85.7237 73.0014C85.6271 73.2189 85.4821 73.4727 85.2887 73.7627C85.1195 74.0286 85.035 74.1736 85.035 74.1977C84.8899 74.4877 84.7449 74.9107 84.5999 75.4665C84.4549 75.9982 84.3583 76.3245 84.3099 76.4453C84.2616 76.5662 84.2253 76.7474 84.2012 76.9891C84.2012 77.2066 84.1408 77.3758 84.0199 77.4966C83.8749 77.5449 83.742 77.557 83.6211 77.5329C83.5003 77.5087 83.307 77.4604 83.0411 77.3879C82.7753 77.2912 82.6061 77.2308 82.5336 77.2066C82.3886 77.1824 82.2919 77.1099 82.2436 76.9891C82.2194 76.8441 82.2315 76.687 82.2798 76.5178C82.3523 76.3245 82.4248 76.1311 82.4974 75.9378C82.594 75.7445 82.6907 75.539 82.7874 75.3215C82.884 75.104 82.9445 74.9228 82.9686 74.7778C82.9928 74.7052 83.1015 74.379 83.2949 73.799C83.9716 71.793 84.2012 70.7901 83.9837 70.7901C83.9595 70.7901 83.9353 70.8022 83.9112 70.8263C83.7178 70.9472 83.3674 71.0439 82.8599 71.1164C82.3765 71.1647 82.0261 71.1405 81.8086 71.0439C81.5427 70.9472 81.2406 70.8988 80.9023 70.8988C80.5639 70.8988 80.0323 70.9834 79.3072 71.1526C78.5822 71.3218 78.0384 71.4064 77.6759 71.4064C77.3376 71.4064 76.9871 71.3339 76.6246 71.1889L75.7183 70.8263C75.5975 70.8263 75.5129 70.8868 75.4646 71.0076C75.3921 71.3218 75.1021 71.8051 74.5945 72.4577C74.087 73.1102 73.6882 73.5331 73.3982 73.7265C73.0841 73.9681 72.8061 74.4152 72.5645 75.0678C72.3228 75.7203 72.1053 76.1432 71.9119 76.3366C71.8636 76.3849 71.7428 76.5541 71.5494 76.8441C71.3802 77.1099 71.2232 77.3154 71.0781 77.4604C70.9331 77.6054 70.8002 77.6416 70.6794 77.5691C70.631 77.5449 70.619 77.4966 70.6431 77.4241C70.6673 77.3274 70.6552 77.2791 70.6069 77.2791C70.4619 77.2549 70.2806 77.2912 70.0631 77.3879C69.8456 77.4604 69.6764 77.4362 69.5556 77.3154ZM89.0226 59.2984C88.9018 59.1534 88.7326 59.1292 88.5151 59.2259C88.2976 59.3226 88.1647 59.25 88.1163 59.0084C88.0438 58.7909 88.1284 58.5492 88.3701 58.2833C88.4668 58.2108 88.5393 58.1383 88.5876 58.0658C88.6601 57.9692 88.6963 57.9087 88.6963 57.8846C88.7205 57.8362 88.7568 57.8 88.8051 57.7758C88.8534 57.7517 88.9139 57.7517 88.9864 57.7758C89.083 57.7758 89.228 57.8 89.4214 57.8483C89.9772 57.9933 90.1827 58.235 90.0377 58.5734C89.9651 58.7909 89.9168 59.1655 89.8926 59.6971C89.8926 60.2047 89.8443 60.543 89.7476 60.7122C89.6993 60.7847 89.651 60.8209 89.6026 60.8209C89.5301 60.8209 89.4335 60.7122 89.3126 60.4947C89.1918 60.2772 89.0951 60.1442 89.0226 60.0959C88.9501 60.0476 88.8172 60.0234 88.6238 60.0234C88.4547 60.0234 88.2976 59.9992 88.1526 59.9509C88.0317 59.9026 87.9713 59.8059 87.9713 59.6609C87.9955 59.5884 88.068 59.5763 88.1888 59.6246C88.3097 59.6488 88.4547 59.6851 88.6238 59.7334C88.793 59.7817 88.9018 59.7817 88.9501 59.7334C89.1435 59.5642 89.1676 59.4192 89.0226 59.2984ZM62.1603 66.2587C62.0878 66.162 61.7132 66.1016 61.0365 66.0774C60.7707 66.0774 60.6256 66.017 60.6015 65.8961C60.6015 65.8478 60.6377 65.7632 60.7102 65.6424C61.0727 65.2799 61.3869 65.1711 61.6528 65.3161C61.7253 65.3645 61.834 65.5336 61.979 65.8236C62.0274 65.9445 62.0757 66.017 62.124 66.0412C62.1965 66.0653 62.2811 66.0653 62.3778 66.0412C62.4986 65.9928 62.5832 65.9686 62.6316 65.9686C62.7524 65.9686 62.8732 66.0291 62.9941 66.1499C63.2357 66.3674 63.4049 66.8145 63.5016 67.4912C63.5016 67.8296 63.417 67.9625 63.2478 67.89C63.2237 67.8658 62.982 67.7933 62.5228 67.6725C62.0878 67.5516 61.8219 67.4308 61.7253 67.31C61.5561 67.0924 61.6165 66.8991 61.9065 66.7299C62.1965 66.5608 62.2811 66.4037 62.1603 66.2587ZM70.7519 71.1889C70.341 70.5847 70.3894 70.2826 70.8969 70.2826C71.3802 70.2826 71.7065 70.4276 71.8757 70.7176C71.9482 70.8384 71.924 70.9593 71.8032 71.0801C71.7307 71.1526 71.5494 71.213 71.2594 71.2614C70.9694 71.2855 70.8002 71.2614 70.7519 71.1889ZM87.4275 60.9297C87.3067 60.7605 87.2705 60.6155 87.3188 60.4947C87.3913 60.3497 87.5001 60.2772 87.6451 60.2772C87.7417 60.2772 87.8505 60.3134 87.9713 60.3859C87.9472 60.3859 87.9834 60.4222 88.0801 60.4947C89.0468 61.3889 89.1072 61.7876 88.2613 61.691C88.1405 61.5701 88.0922 61.4735 88.1163 61.401C88.1163 61.3285 88.068 61.268 87.9713 61.2197C87.8746 61.1472 87.7659 61.0868 87.6451 61.0385C87.5242 60.9901 87.4517 60.9539 87.4275 60.9297ZM59.9852 66.9112C59.8402 67.0804 59.6952 67.1649 59.5502 67.1649C59.4052 67.1649 59.2723 67.1045 59.1514 66.9837C59.0547 66.8387 59.0668 66.6695 59.1877 66.4762C59.3568 66.2828 59.5623 66.1137 59.8039 65.9686C60.0456 65.8236 60.2269 65.8116 60.3477 65.9324C60.4927 66.0291 60.4927 66.0895 60.3477 66.1137C60.2269 66.1137 60.1785 66.1982 60.2027 66.3674C60.2269 66.5366 60.1544 66.7178 59.9852 66.9112ZM60.7102 66.8387C60.5411 66.8387 60.4565 66.7541 60.4565 66.5849C60.4565 66.3916 60.5411 66.2949 60.7102 66.2949C60.8552 66.2949 60.9519 66.3432 61.0002 66.4399C61.0486 66.5124 61.0365 66.597 60.964 66.6937C60.9157 66.7903 60.8311 66.8387 60.7102 66.8387ZM85.5034 89.8584C85.4067 89.4717 85.3705 89.0608 85.3946 88.6258C85.4188 88.2875 85.443 87.8041 85.4671 87.1757C85.4671 86.5716 85.4671 86.1607 85.4671 85.9432C85.4671 85.8224 85.5396 85.6532 85.6846 85.4357C85.8297 85.2182 85.9142 85.0611 85.9384 84.9644C85.9626 84.8436 86.0109 84.7711 86.0834 84.7469C86.1559 84.7469 86.2163 84.7348 86.2647 84.7106C86.2888 84.7106 86.2888 84.6623 86.2647 84.5656C86.1438 84.1306 86.1438 83.8285 86.2647 83.6594C86.5063 83.466 86.603 83.2968 86.5547 83.1518C86.5305 83.0068 86.5668 82.9102 86.6634 82.8618C86.7601 82.8377 86.8084 82.7652 86.8084 82.6443C86.8084 82.596 86.7964 82.5235 86.7722 82.4268C86.748 82.3301 86.748 82.2455 86.7722 82.173C86.7722 82.1005 86.8084 82.0401 86.8809 81.9918C86.9776 81.9435 87.0501 81.8468 87.0985 81.7018C87.1226 81.5568 87.1468 81.4601 87.171 81.4118C87.2193 81.2909 87.2797 81.2184 87.3522 81.1943C87.4247 81.1701 87.4851 81.1459 87.5335 81.1218C87.7751 81.0009 87.896 80.8559 87.896 80.6867C87.896 80.4451 88.1256 79.9496 88.5848 79.2004C89.0439 78.4512 89.2977 78.0162 89.346 77.8954C89.4669 77.5087 89.624 77.1341 89.8173 76.7716C90.0348 76.4091 90.2161 76.1311 90.3611 75.9378C90.5061 75.7203 90.7357 75.4061 91.0499 74.9953C91.364 74.5844 91.5936 74.2823 91.7386 74.089C92.1737 73.4848 92.367 72.9531 92.3187 72.4939C92.2462 71.7447 92.3428 71.3097 92.6087 71.1889C92.7778 71.1164 92.8503 70.9713 92.8262 70.7538C92.802 70.6572 92.802 70.5847 92.8262 70.5363C92.8503 70.488 92.8745 70.4759 92.8987 70.5001C92.947 70.5001 92.9833 70.5001 93.0074 70.5001C93.0316 70.4759 93.0316 70.4276 93.0074 70.3551C92.9591 70.2342 92.8383 70.1376 92.6449 70.0651C92.4516 69.9684 92.2824 69.8838 92.1374 69.8113C92.0166 69.7388 91.9924 69.63 92.0649 69.485C92.1132 69.3642 92.4153 69.3038 92.9712 69.3038C93.1162 69.3038 93.2129 69.2917 93.2612 69.2675C93.3337 69.2192 93.3458 69.1467 93.2974 69.05C93.2733 69.0017 93.2008 68.9654 93.0799 68.9413C92.9833 68.9171 92.8987 68.905 92.8262 68.905C92.7778 68.8808 92.7658 68.8325 92.7899 68.76C92.8141 68.6875 92.8987 68.6029 93.0437 68.5063C93.1887 68.3854 93.2974 68.3612 93.37 68.4337L93.805 68.8325C93.8533 68.905 93.8412 68.9775 93.7687 69.05C93.7204 69.0984 93.66 69.1467 93.5875 69.195C93.515 69.2192 93.4908 69.2434 93.515 69.2675C93.5633 69.3159 93.6479 69.3642 93.7687 69.4125C93.8896 69.4609 93.9621 69.5092 93.9862 69.5575C94.0104 69.5817 93.9862 69.6905 93.9137 69.8838C93.7445 70.2705 93.66 70.4759 93.66 70.5001C93.66 70.7659 93.6841 70.923 93.7325 70.9713C93.8291 71.0439 93.8291 71.1164 93.7325 71.1889C93.6358 71.2614 93.6116 71.3218 93.66 71.3701C93.7325 71.4668 93.8412 71.5151 93.9862 71.5151C94.6871 71.5151 95.968 70.5847 97.8289 68.7238C98.4814 68.0229 99.3031 67.7571 100.294 67.9262C100.922 68.0229 101.563 68.3975 102.215 69.05C102.868 69.6784 103.194 70.2826 103.194 70.8626C103.194 70.9834 103.206 71.2009 103.23 71.5151C103.279 71.8293 103.291 72.1072 103.267 72.3489C103.267 72.5664 103.23 72.7477 103.158 72.8927C103.085 73.0377 102.952 73.1827 102.759 73.3277C102.59 73.4485 102.469 73.5452 102.397 73.6177C102.324 73.6902 102.276 73.7869 102.252 73.9077C102.227 74.0286 102.203 74.1252 102.179 74.1977C102.179 74.2702 102.167 74.3065 102.143 74.3065C102.119 74.3065 102.07 74.2581 101.998 74.1615C101.974 74.1131 101.986 74.0044 102.034 73.8352C102.082 73.666 102.07 73.5815 101.998 73.5815C101.925 73.5573 101.804 73.6177 101.635 73.7627C101.466 73.9077 101.345 73.9802 101.273 73.9802C101.176 73.9802 101.116 73.944 101.092 73.8715C100.995 73.7265 100.91 73.654 100.838 73.654C100.765 73.654 100.681 73.6781 100.584 73.7265C100.487 73.7748 100.403 73.799 100.33 73.799C100.234 73.7748 100.149 73.6902 100.076 73.5452C100.004 73.4002 99.9919 73.2914 100.04 73.2189C100.089 73.0981 100.391 72.9168 100.947 72.6752C101.502 72.4093 101.804 72.1193 101.853 71.8051C101.804 71.2493 101.708 70.7901 101.563 70.4276L101.237 69.7751L101.055 69.4488L100.729 69.485C100.632 69.5092 100.197 69.5575 99.4239 69.63C98.3847 69.7751 97.6597 70.0892 97.2489 70.5726C97.273 70.5968 97.1764 70.7055 96.9588 70.8988C96.7655 71.0922 96.5117 71.3339 96.1976 71.6239C95.9076 71.8897 95.6417 72.1072 95.4 72.2764C95.3517 72.3247 95.1825 72.4697 94.8925 72.7114C94.6025 72.9289 94.385 73.0981 94.24 73.2189C94.2883 73.2673 94.2642 73.4002 94.1675 73.6177C94.095 73.811 94.0104 74.0527 93.9137 74.3427C93.8171 74.6086 93.7808 74.814 93.805 74.959C93.1524 78.1733 92.4637 80.6263 91.7386 82.3181C91.6178 82.6081 91.3761 83.176 91.0136 84.0219C90.6753 84.8677 90.3611 85.5807 90.0711 86.1607C89.7811 86.7649 89.491 87.2241 89.201 87.5383C89.0319 87.7316 88.8748 87.937 88.7298 88.1545C88.5848 88.372 88.4398 88.6137 88.2947 88.8796C88.1497 89.1696 88.0168 89.3992 87.896 89.5683C87.5335 90.1 87.1951 90.3538 86.8809 90.3296C86.9051 90.4021 86.893 90.4505 86.8447 90.4746C86.7722 90.523 86.6876 90.5471 86.5909 90.5471C86.2768 90.5471 86.0713 90.4746 85.9747 90.3296C85.9263 90.2813 85.8538 90.233 85.7571 90.1846C85.6363 90.1604 85.5517 90.0517 85.5034 89.8584ZM87.461 84.6744C87.0985 84.4327 86.8084 84.3965 86.5909 84.5656C86.3493 84.7348 86.4701 85.0007 86.9534 85.3632C87.1226 85.484 87.1951 85.5323 87.171 85.5082C87.1951 85.5323 87.1589 85.5807 87.0622 85.6532C86.9655 85.7257 86.8326 85.8465 86.6634 86.0157C86.5909 86.0882 86.6393 86.1849 86.8084 86.3057C86.9534 86.4507 86.9897 86.6199 86.9172 86.8132C86.7964 87.1274 86.8084 87.3087 86.9534 87.357C87.0259 87.3812 87.0864 87.3691 87.1347 87.3208C87.1589 87.2966 87.183 87.2362 87.2072 87.1395C87.2314 87.0428 87.2555 86.9703 87.2797 86.922C87.328 86.8495 87.5335 86.4749 87.896 85.7982C88.2585 85.1457 88.5123 84.614 88.6573 84.2031C88.7056 84.034 88.7781 83.8889 88.8748 83.7681C88.9473 83.6473 89.0439 83.5143 89.1648 83.3693C89.2856 83.2485 89.3823 83.1398 89.4548 83.0431C89.5756 82.8981 89.6481 82.6443 89.6723 82.2818C89.7206 81.9435 89.7448 81.7501 89.7448 81.7018C89.8656 81.2909 90.1073 80.7109 90.4698 79.9617C90.8324 79.2367 91.074 78.6929 91.1949 78.3304C91.364 77.7745 91.509 77.1703 91.6299 76.5178C91.7024 76.0828 91.6782 75.8774 91.5574 75.9015L91.4849 75.974C91.364 76.2641 91.1707 76.5903 90.9049 76.9528C90.8565 77.0253 90.784 77.0616 90.6873 77.0616C90.6148 77.0374 90.5303 77.0495 90.4336 77.0978C90.3127 77.1703 90.4215 77.2912 90.7598 77.4604C91.0257 77.6054 91.074 77.7141 90.9049 77.7866C90.5907 77.98 90.3852 78.0404 90.2886 77.9679C89.9502 77.702 89.7569 77.5691 89.7086 77.5691C89.6844 77.5691 89.6602 77.6174 89.6361 77.7141C89.6361 77.7866 89.6119 77.9437 89.5635 78.1854C89.5394 78.4512 89.491 78.7171 89.4185 78.9829C89.4185 79.0071 89.4427 79.0433 89.491 79.0917C89.5394 79.14 89.5756 79.1763 89.5998 79.2004C89.624 79.2488 89.6119 79.2971 89.5635 79.3454C89.5152 79.3696 89.3702 79.3575 89.1285 79.3092C88.911 79.285 88.7902 79.3092 88.766 79.3817C88.6452 79.575 88.7056 79.7321 88.9473 79.853C89.1648 79.998 89.2494 80.1067 89.201 80.1792C89.1769 80.2276 89.1648 80.3242 89.1648 80.4692C89.1406 80.6142 89.1044 80.6867 89.056 80.6867C88.8869 80.5901 88.7298 80.5417 88.5848 80.5417C88.3673 80.5417 88.2102 80.6384 88.1135 80.8317C87.9927 81.0493 87.9685 81.3272 88.041 81.6655C88.0652 81.7622 88.0652 81.883 88.041 82.028C88.0168 82.173 87.9806 82.306 87.9322 82.4268C87.8597 82.5476 87.7751 82.596 87.6785 82.5718C87.6301 82.5718 87.5939 82.5476 87.5697 82.4993C87.5456 82.451 87.5093 82.4268 87.461 82.4268C87.1468 82.4268 86.9776 82.5597 86.9534 82.8256C86.9051 83.0914 87.0259 83.2968 87.316 83.4418C87.606 83.5869 87.5818 83.6835 87.2435 83.7319C87.1468 83.756 87.2314 83.8527 87.4972 84.0219C87.5939 84.0702 87.6543 84.1065 87.6785 84.1306C87.7751 84.2031 87.8114 84.2877 87.7872 84.3844C87.7631 84.4811 87.7147 84.5536 87.6422 84.6019C87.5697 84.6744 87.5093 84.6986 87.461 84.6744ZM96.0526 75.6478C95.5209 75.6236 95.0375 75.4303 94.6025 75.0678C94.4092 74.9228 94.3608 74.8019 94.4575 74.7052C94.8925 74.1977 95.1704 73.799 95.2913 73.509C95.4363 73.509 95.533 73.521 95.5813 73.5452C95.6296 73.5452 95.69 73.5815 95.7625 73.654C95.8351 73.7023 95.8955 73.7506 95.9438 73.799C96.1371 73.9198 96.5722 73.9198 97.2489 73.799C97.9256 73.654 98.3727 73.5935 98.5902 73.6177C99.2185 73.7385 99.7744 73.9198 100.258 74.1615C100.403 74.234 100.463 74.3306 100.439 74.4515C100.415 74.5482 100.403 74.6207 100.403 74.669C100.209 74.6207 100.016 74.6207 99.8227 74.669C100.016 75.0073 99.9315 75.1886 99.5689 75.2128C99.4964 75.2128 99.3394 75.2853 99.0977 75.4303C98.8802 75.5753 98.6989 75.6357 98.5539 75.6115C98.3122 75.5632 97.8772 75.5632 97.2489 75.6115C96.6447 75.6357 96.2459 75.6478 96.0526 75.6478ZM107.265 78.5117C106.999 78.5117 106.781 78.3183 106.612 77.9316C106.443 77.5449 106.588 76.7112 107.047 75.4303C107.506 74.1494 107.905 73.2189 108.244 72.6389C109.476 70.488 110.092 69.3884 110.092 69.34C109.488 69.34 108.715 69.2192 107.772 68.9775C106.83 68.7117 106.407 68.3129 106.503 67.7812L106.648 67.0924C106.745 66.5849 107.18 66.3312 107.954 66.3312C108.292 66.3312 108.618 66.4641 108.932 66.7299C109.053 66.8508 109.041 66.9837 108.896 67.1287C108.751 67.2495 108.691 67.3341 108.715 67.3825C108.932 67.6483 109.259 67.7812 109.694 67.7812C110.153 67.7812 110.66 67.6483 111.216 67.3825C111.796 67.1166 112.183 66.8508 112.376 66.5849C112.473 66.4641 112.787 65.9928 113.319 65.1711C113.875 64.3253 114.273 63.7211 114.515 63.3585C114.781 62.996 115.155 62.4885 115.639 61.836C116.122 61.1835 116.557 60.6397 116.944 60.2047C117.355 59.7455 117.766 59.3467 118.176 59.0084C118.611 58.6459 119.071 57.9933 119.554 57.0508C120.037 56.0841 120.448 55.4678 120.787 55.202C120.835 55.347 121.04 55.4799 121.403 55.6007C121.789 55.6974 121.934 55.8787 121.838 56.1445C121.814 56.1928 121.717 56.4949 121.548 57.0508C121.379 57.6066 121.149 58.1383 120.859 58.6459C120.593 59.1534 120.231 59.5884 119.771 59.9509C118.636 60.7968 117.222 62.6577 115.53 65.5336C114.757 66.6937 114.261 67.3704 114.044 67.5637C115.083 67.5637 116.086 67.6966 117.053 67.9625C118.019 68.2283 118.901 68.7117 119.699 69.4125C120.521 70.1134 121.004 70.9713 121.149 71.9864C121.246 72.7598 121.149 73.8594 120.859 75.2853C120.569 76.7112 120.207 77.69 119.771 78.2216C119.723 78.27 119.639 78.3304 119.518 78.4029C119.421 78.4996 119.336 78.5842 119.264 78.6567C119.191 78.7292 119.155 78.8258 119.155 78.9467C118.43 78.8258 118.068 78.415 118.068 77.7141C118.068 77.3274 118.237 76.6991 118.575 75.829C118.938 74.9348 119.119 74.3427 119.119 74.0527C119.119 73.8352 119.131 73.5815 119.155 73.2914C119.179 72.9773 119.191 72.7598 119.191 72.6389C119.191 71.6722 118.624 70.8868 117.488 70.2826C116.352 69.6542 115.252 69.34 114.189 69.34C113.125 69.34 112.364 69.618 111.905 70.1738C111.47 70.6572 110.974 71.4185 110.419 72.4577C109.863 73.4969 109.561 74.0527 109.512 74.1252C109.512 74.1494 109.343 74.4152 109.005 74.9228C108.666 75.4061 108.413 75.817 108.244 76.1553C108.074 76.4695 107.978 76.7353 107.954 76.9528C107.954 77.1462 108.002 77.2791 108.099 77.3516C108.195 77.4241 108.28 77.4604 108.352 77.4604C108.425 77.4604 108.425 77.5449 108.352 77.7141C108.038 78.2458 107.676 78.5117 107.265 78.5117ZM129.016 57.9933C129.016 57.6792 129.294 57.4375 129.849 57.2683C130.405 57.075 130.84 57.0266 131.154 57.1233C131.469 57.22 131.722 57.5221 131.916 58.0296C132.133 58.5371 132.049 58.9117 131.662 59.1534C131.324 59.3226 130.792 59.2742 130.067 59.0084C129.366 58.7184 129.016 58.38 129.016 57.9933ZM122.418 54.3319C122.345 54.6703 122.212 54.8395 122.019 54.8395C121.681 54.8395 121.487 54.5494 121.439 53.9694C121.463 53.9694 121.524 53.9453 121.62 53.8969C121.717 53.8486 121.789 53.8244 121.838 53.8244C122.007 53.8244 122.152 53.8728 122.273 53.9694C122.394 54.0661 122.442 54.1869 122.418 54.3319ZM127.407 74.9228C126.682 74.3911 126.319 73.7265 126.319 72.9289C126.319 71.8414 126.851 70.6572 127.914 69.3763C128.978 68.0712 130.017 67.2737 131.032 66.9837C131.104 66.9595 131.515 66.7903 132.264 66.4762C133.038 66.1378 133.618 65.9686 134.004 65.9686C134.536 65.9686 134.887 66.2103 135.056 66.6937C134.282 67.3704 133.606 67.7087 133.026 67.7087C132.905 67.7087 132.772 67.6966 132.627 67.6725C132.482 67.6483 132.361 67.6362 132.264 67.6362C132.192 67.612 132.095 67.6241 131.974 67.6725C131.854 67.6966 131.733 67.745 131.612 67.8175C131.539 67.9141 131.527 67.9987 131.576 68.0712C131.648 68.1196 131.745 68.2162 131.866 68.3612C132.011 68.4821 132.095 68.5908 132.119 68.6875C131.999 68.7358 131.866 68.8325 131.721 68.9775C131.6 69.0984 131.491 69.1709 131.394 69.195C130.935 69.4125 130.295 69.9442 129.473 70.7901C128.675 71.6118 128.277 72.2764 128.277 72.7839C128.277 73.3156 128.736 73.5815 129.654 73.5815C129.993 73.4848 130.258 73.4002 130.452 73.3277C130.669 73.2552 130.875 73.1706 131.068 73.0739C131.261 72.9531 131.394 72.8685 131.467 72.8202C131.563 72.7718 131.733 72.651 131.974 72.4577C132.216 72.2401 132.409 72.0831 132.554 71.9864C132.844 71.7447 133.05 71.3459 133.171 70.7901C133.291 70.2101 133.388 69.8476 133.461 69.7025C134.065 68.5183 134.971 67.9746 136.18 68.0712C136.421 68.0954 136.59 68.1921 136.687 68.3612C136.808 68.5063 136.868 68.6754 136.868 68.8688C136.868 69.0379 136.905 69.195 136.977 69.34C137.05 69.4609 137.17 69.5213 137.34 69.5213C137.654 69.5213 138.198 69.3521 138.971 69.0138C139.768 68.6754 140.3 68.5183 140.566 68.5425C141.267 68.6392 142.258 68.5908 143.539 68.3975C144.844 68.18 145.762 68.0712 146.294 68.0712C148.034 68.0712 149.025 68.47 149.266 69.2675C149.363 69.6784 149.387 69.9926 149.339 70.2101C149.315 70.4276 149.254 70.6572 149.158 70.8988C149.085 71.1405 149.049 71.2855 149.049 71.3339C151.683 70.053 154.184 69.4367 156.553 69.485C157.834 69.5092 158.704 69.7992 159.163 70.3551C159.622 70.8868 159.852 71.781 159.852 73.0377C159.852 73.6419 159.779 74.089 159.634 74.379C159.586 74.4515 159.538 74.6327 159.489 74.9228C159.441 75.2128 159.368 75.394 159.272 75.4665C158.982 75.6357 158.812 75.8532 158.764 76.1191C158.716 76.2882 158.8 76.5903 159.018 77.0253C159.235 77.4604 159.405 77.7987 159.525 78.0404C159.67 78.3062 159.67 78.4996 159.525 78.6204C159.284 78.6929 158.849 78.4029 158.22 77.7504C157.592 77.0737 157.302 76.6387 157.35 76.4453L157.278 75.4665C157.302 75.3457 157.387 75.104 157.532 74.7415C157.701 74.379 157.846 74.0044 157.967 73.6177C158.087 73.231 158.148 72.8806 158.148 72.5664C158.148 71.5514 157.435 71.0439 156.009 71.0439C155.453 71.0439 154.825 71.1405 154.124 71.3339C153.447 71.5272 152.734 71.7689 151.985 72.0589C151.236 72.3489 150.704 72.5302 150.39 72.6027C150.076 72.6993 149.665 72.8806 149.158 73.1464C148.674 73.4123 148.36 73.654 148.215 73.8715C147.925 74.3306 147.695 74.669 147.526 74.8865C147.357 75.0798 147.248 75.2128 147.2 75.2853C147.176 75.3336 147.055 75.3457 146.837 75.3215C146.62 75.2974 146.499 75.2853 146.475 75.2853C145.798 75.3094 145.617 74.7898 145.931 73.7265C146.052 73.3881 146.33 72.6752 146.765 71.5876C146.789 71.5151 146.874 71.3701 147.019 71.1526C147.164 70.9351 147.272 70.7538 147.345 70.6088C147.442 70.4638 147.466 70.3067 147.417 70.1376C147.393 69.9442 147.272 69.7992 147.055 69.7025C146.837 69.6542 146.547 69.6421 146.185 69.6663C145.847 69.6905 145.291 69.7267 144.517 69.7751C143.744 69.7992 143.14 69.8113 142.705 69.8113C141.931 69.8113 141.448 69.7509 141.255 69.63C141.134 69.6059 141.037 69.6059 140.965 69.63C140.892 69.6542 140.844 69.6784 140.82 69.7025C140.82 69.7025 140.796 69.7388 140.747 69.8113C140.699 69.8596 140.651 69.908 140.602 69.9563C140.578 69.9805 140.07 70.1738 139.08 70.5363C138.113 70.8747 137.074 71.2855 135.962 71.7689C134.85 72.2522 134.137 72.6752 133.823 73.0377C132.397 74.7536 130.947 75.6115 129.473 75.6115C128.796 75.6115 128.108 75.3819 127.407 74.9228ZM133.714 72.9289C133.642 72.6389 133.473 72.4939 133.207 72.4939C132.941 72.4939 132.687 72.6268 132.446 72.8927C132.228 73.1585 132.204 73.376 132.373 73.5452C132.494 73.6419 132.627 73.6902 132.772 73.6902C132.941 73.6902 133.122 73.5694 133.316 73.3277C133.533 73.086 133.666 72.9531 133.714 72.9289ZM136.18 70.5363C136.131 70.6088 136.18 70.7055 136.325 70.8263C136.494 70.9472 136.627 71.0076 136.723 71.0076L137.557 70.7176C137.098 70.5242 136.747 70.4276 136.506 70.4276C136.361 70.4276 136.252 70.4638 136.18 70.5363ZM166.664 77.5329C166.253 77.3395 166.302 77.0012 166.809 76.5178C167.317 76.0345 167.728 75.8895 168.042 76.0828C168.187 76.1795 168.416 76.1553 168.73 76.0103C169.069 75.8653 169.262 75.7928 169.311 75.7928C169.601 75.7445 169.975 75.8049 170.434 75.974C170.893 76.1432 171.183 76.2399 171.304 76.2641C171.401 76.2882 171.486 76.3849 171.558 76.5541C171.631 76.7232 171.691 76.9287 171.739 77.1703C171.788 77.3879 171.836 77.5329 171.884 77.6054C172.102 78.0162 172.126 78.3666 171.957 78.6567C171.812 78.9467 171.582 79.0917 171.268 79.0917C170.906 79.0917 170.64 78.8742 170.471 78.4391C170.422 78.2941 170.144 78.1854 169.637 78.1129C169.129 78.0645 168.706 78.0887 168.368 78.1854C168.247 78.2096 168.09 78.3183 167.897 78.5117C167.728 78.7292 167.595 78.8379 167.498 78.8379C167.329 78.8379 167.172 78.7171 167.027 78.4754C166.954 78.3546 166.93 78.2458 166.954 78.1491C166.978 78.0525 166.978 77.9437 166.954 77.8229C166.93 77.702 166.833 77.6054 166.664 77.5329Z" fill="#99D3AC"/>
<path d="M9.06286 109.735H1.81257V91.143H9.06286C14.9408 91.143 18.6436 94.9236 18.6436 100.335C18.6436 105.747 14.8113 109.735 9.06286 109.735ZM6.70652 95.3638V105.514H8.77803C12.0148 105.514 13.6202 103.831 13.6202 100.335C13.6202 97.0469 11.963 95.3638 8.77803 95.3638H6.70652ZM26.0764 109.735H21.1824V91.143H26.0764V109.735ZM44.5931 103.65C44.5931 107.482 41.5376 109.994 36.6955 109.994C31.8533 109.994 28.7461 107.43 28.4094 103.313H33.3552C33.407 105.074 34.5722 106.187 36.5919 106.187C38.275 106.187 39.3885 105.54 39.3885 104.375C39.3885 103.572 38.5857 102.977 37.4982 102.769L34.1061 102.122C31.1283 101.552 29.1604 99.8175 29.1604 96.8138C29.1604 93.344 32.2158 90.91 36.3848 90.91C40.8126 90.91 43.9976 93.4476 44.2824 97.4612H39.3367C39.2072 95.7781 38.0679 94.6905 36.4365 94.6905C34.9865 94.6905 34.1061 95.4673 34.1061 96.4772C34.1061 97.3058 34.9347 97.7978 35.9187 97.979L39.5179 98.6782C42.8323 99.3255 44.5931 100.957 44.5931 103.65ZM54.9596 110.123C49.6772 110.123 45.5083 105.877 45.5083 100.413C45.5083 94.9753 49.6772 90.7546 54.9596 90.7546C60.0607 90.7546 63.9966 94.1467 64.5921 99.0666H59.4133C59.0249 96.7361 57.29 95.1307 55.0114 95.1307C52.2666 95.1307 50.5317 97.254 50.5317 100.413C50.5317 103.598 52.2666 105.747 55.0114 105.747C57.2641 105.747 58.999 104.142 59.4133 101.785H64.5921C63.9707 106.757 60.0607 110.123 54.9596 110.123ZM72.0228 109.735H67.1289V91.143H72.0228V98.0567H78.8847V91.143H83.7787V109.735H78.8847V102.303H72.0228V109.735ZM99.5274 109.735L98.3881 106.291H91.8628L90.6976 109.735H85.7519L92.6396 91.143H97.9997L104.81 109.735H99.5274ZM95.1772 96.529L93.1834 102.433H97.1193L95.1772 96.529ZM111.673 109.735H106.779V91.143H114.392C119.415 91.143 122.289 93.3958 122.289 97.3576C122.289 99.7398 120.865 101.708 118.353 102.769L122.911 109.735H117.085L113.278 103.546H111.673V109.735ZM111.673 95.1825V99.5068H114.185C116.36 99.5068 117.37 98.8335 117.37 97.3576C117.37 95.8816 116.36 95.1825 114.185 95.1825H111.673ZM133.683 110.123C128.271 110.123 124.024 106.136 124.024 100.335C124.024 94.8459 128.064 90.7546 133.528 90.7546C138.188 90.7546 141.632 93.4476 142.927 97.6165H137.127C136.661 96.1924 135.288 95.1307 133.398 95.1307C130.99 95.1307 129.048 96.8138 129.048 100.465C129.048 103.572 130.576 105.98 133.942 105.98C136.065 105.98 137.386 104.789 137.929 103.235H133.45V99.3773H143.16C143.548 105.514 139.846 110.123 133.683 110.123ZM158.875 105.488V109.735H145.721V91.143H158.694V95.3896H150.615V98.0567H157.943V102.303H150.615V105.488H158.875ZM174.339 104.064H171.982V109.735H167.088V91.143H174.339C179.207 91.143 182.133 93.3181 182.133 97.4871C182.133 101.682 179.207 104.064 174.339 104.064ZM174.313 95.2602H171.982V99.947H174.313C176.255 99.947 177.265 98.963 177.265 97.5388C177.265 96.0888 176.255 95.2602 174.313 95.2602ZM195.441 109.735L194.302 106.291H187.776L186.611 109.735H181.665L188.553 91.143H193.913L200.723 109.735H195.441ZM191.091 96.529L189.097 102.433H193.033L191.091 96.529ZM209.943 104.064H207.586V109.735H202.693V91.143H209.943C214.811 91.143 217.737 93.3181 217.737 97.4871C217.737 101.682 214.811 104.064 209.943 104.064ZM209.917 95.2602H207.586V99.947H209.917C211.859 99.947 212.869 98.963 212.869 97.5388C212.869 96.0888 211.859 95.2602 209.917 95.2602ZM233.371 105.488V109.735H220.216V91.143H233.189V95.3896H225.11V98.0567H232.438V102.303H225.11V105.488H233.371ZM241.066 109.735H236.173V91.143H243.785C248.809 91.143 251.683 93.3958 251.683 97.3576C251.683 99.7398 250.259 101.708 247.747 102.769L252.304 109.735H246.478L242.672 103.546H241.066V109.735ZM241.066 95.1825V99.5068H243.578C245.753 99.5068 246.763 98.8335 246.763 97.3576C246.763 95.8816 245.753 95.1825 243.578 95.1825H241.066ZM269.395 103.65C269.395 107.482 266.339 109.994 261.497 109.994C256.655 109.994 253.548 107.43 253.211 103.313H258.157C258.208 105.074 259.374 106.187 261.393 106.187C263.076 106.187 264.19 105.54 264.19 104.375C264.19 103.572 263.387 102.977 262.3 102.769L258.908 102.122C255.93 101.552 253.962 99.8175 253.962 96.8138C253.962 93.344 257.017 90.91 261.186 90.91C265.614 90.91 268.799 93.4476 269.084 97.4612H264.138C264.009 95.7781 262.869 94.6905 261.238 94.6905C259.788 94.6905 258.908 95.4673 258.908 96.4772C258.908 97.3058 259.736 97.7978 260.72 97.979L264.319 98.6782C267.634 99.3255 269.395 100.957 269.395 103.65ZM276.331 107.042C276.331 108.699 275.192 109.864 273.534 109.864C271.877 109.864 270.712 108.699 270.712 107.042C270.712 105.359 271.877 104.194 273.534 104.194C275.192 104.194 276.331 105.359 276.331 107.042Z" fill="#99D3AC"/>
<path d="M183.625 61.5199C183.81 61.5787 183.966 61.7071 184.058 61.8781C184.15 62.0491 184.173 62.2492 184.12 62.4364C184.068 62.6236 183.945 62.7831 183.778 62.8815C183.61 62.9798 183.411 63.0093 183.222 62.9637L177.774 61.4419C177.582 61.3883 177.42 61.2609 177.322 61.0878C177.225 60.9146 177.2 60.7098 177.253 60.5183L178.775 55.07C178.834 54.8848 178.962 54.7297 179.133 54.6373C179.304 54.5449 179.504 54.5225 179.692 54.5748C179.879 54.6271 180.038 54.75 180.137 54.9176C180.235 55.0852 180.265 55.2844 180.219 55.4733L179.184 59.1781L183.924 56.5081C185.62 55.5525 186.697 54.6647 187.364 53.7205C188.02 52.7935 188.323 51.754 188.358 50.4108C188.361 50.3123 188.383 50.2153 188.423 50.1253C188.463 50.0353 188.521 49.9541 188.592 49.8864C188.664 49.8186 188.748 49.7656 188.84 49.7304C188.932 49.6952 189.03 49.6785 189.129 49.6811C189.227 49.6838 189.324 49.7059 189.414 49.7461C189.504 49.7863 189.585 49.8438 189.653 49.9153C189.721 49.9869 189.774 50.0711 189.809 50.1631C189.844 50.2552 189.861 50.3532 189.858 50.4517C189.815 52.0219 189.451 53.3666 188.59 54.5863C187.741 55.788 186.449 56.8074 184.66 57.815L179.92 60.485L183.625 61.5199Z" fill="#F4BB94"/>
<path d="M186.704 32.2381C187.1 32.1727 187.327 32.2513 187.385 32.4739C187.397 32.5446 187.352 33.1038 187.249 34.1515C187.249 34.1515 187.181 34.7759 187.047 36.0249C187.007 36.4452 186.98 37.1356 186.964 38.0963C186.955 39.0488 186.925 39.9247 186.876 40.724C186.676 43.9073 186.286 46.182 185.707 47.5481C185.534 47.954 185.303 48.3552 185.013 48.7515C184.369 49.6419 183.718 50.1414 183.061 50.25C182.75 50.3014 182.582 50.2529 182.558 50.1045C182.556 50.0468 182.646 49.9775 182.828 49.8965C183.012 49.8225 183.206 49.7033 183.412 49.5388C183.984 49.0521 184.382 48.4493 184.604 47.7302C185.558 45.2426 185.977 41.8054 185.862 37.4185C185.761 38.0812 185.476 38.9738 185.009 40.0963C184.547 41.2106 184.047 41.8122 183.51 41.9009C183.221 41.9488 183.031 41.6825 182.943 41.1019C182.664 39.2825 182.862 36.6185 183.538 33.1098C183.565 32.9674 183.593 32.8467 183.62 32.7479C183.688 32.5042 183.783 32.3725 183.903 32.3527C184.03 32.3316 184.141 32.3241 184.237 32.3301C184.617 32.3471 184.829 32.4646 184.872 32.6824C184.88 32.7319 184.859 32.9132 184.809 33.2263L184.541 34.8277C184.109 37.3525 183.891 39.1088 183.887 40.0966C184.246 39.2823 184.708 37.972 185.273 36.1656C185.846 34.3579 186.156 33.3812 186.205 33.2353C186.267 33.087 186.31 32.9528 186.334 32.8328L186.382 32.5962C186.434 32.3843 186.541 32.265 186.704 32.2381ZM190.723 35.1451C190.861 35.1006 191.114 34.7466 191.484 34.083C191.853 33.4195 192.01 32.9217 191.956 32.5896C191.947 32.5402 191.92 32.4866 191.875 32.4288C191.757 32.5935 191.526 33.0453 191.184 33.7842C190.849 34.5219 190.695 34.9756 190.723 35.1451ZM195.202 36.0272C195.492 35.5872 195.679 35.4874 195.762 35.7277C195.778 35.8196 195.746 35.9808 195.668 36.2115C195.428 36.9117 195.011 37.6811 194.416 38.5197C193.475 39.8512 192.57 40.5887 191.701 40.7324C191.291 40.8001 190.922 40.7413 190.594 40.556C189.976 40.2008 189.576 39.4721 189.394 38.3698C189.29 37.741 189.335 36.8263 189.529 35.6256C189.728 34.4168 190.15 33.2836 190.796 32.226C191.074 31.7154 191.404 31.4286 191.786 31.3656C191.97 31.3352 192.167 31.3425 192.378 31.3876C192.875 31.5013 193.159 31.7701 193.229 32.194C193.24 32.2576 193.236 32.3636 193.217 32.5119C193.022 33.1321 192.664 33.8698 192.145 34.725C191.626 35.5802 191.071 36.2853 190.48 36.8402C190.39 37.6972 190.382 38.3553 190.458 38.8145C190.534 39.2738 190.593 39.5653 190.636 39.689C190.748 39.9752 191.009 40.0845 191.419 40.0167C191.829 39.949 192.271 39.6835 192.747 39.2203C193.221 38.75 193.71 38.1538 194.215 37.4316C194.72 36.7094 195.005 36.303 195.069 36.2124C195.141 36.1207 195.186 36.0589 195.202 36.0272ZM198.242 31.6269C198.411 32.6514 198.216 33.2245 197.655 33.3462C197.514 33.3695 197.374 33.3564 197.235 33.3068C197.497 34.541 197.726 35.748 197.921 36.928C198.116 38.108 198.031 38.982 197.668 39.5502C197.46 39.8748 197.155 40.0704 196.752 40.137C196.358 40.2095 196.035 40.1213 195.783 39.8726C195.533 39.6309 195.385 39.3758 195.341 39.1073C195.3 38.7729 195.484 38.5682 195.893 38.4935C196.154 38.4502 196.297 38.6117 196.321 38.9779C196.346 39.3441 196.46 39.5103 196.665 39.4764C197.047 39.4133 197.2 38.8908 197.125 37.9088C197.093 37.4567 197.009 36.8355 196.871 36.0453C196.74 35.254 196.611 34.8653 196.482 34.8792C196.426 34.8886 196.364 34.9968 196.296 35.2039C196.228 35.404 196.051 35.8252 195.765 36.4677C195.486 37.1089 195.232 37.5937 195.004 37.9218C194.775 38.25 194.62 38.4352 194.54 38.4775C194.354 38.5808 194.23 38.5359 194.169 38.3428C194.141 38.1296 194.21 37.8642 194.375 37.5466C194.971 36.4101 195.514 35.1228 196.002 33.6848C196.114 33.3541 196.166 33.164 196.158 33.1146L195.906 31.5884C195.858 31.2987 195.962 31.0528 196.219 30.8506C196.329 30.7672 196.437 30.7167 196.543 30.6992C196.982 30.6339 197.41 30.6974 197.826 30.8899C198.024 30.9879 198.139 31.114 198.172 31.2683C198.205 31.4226 198.228 31.5421 198.242 31.6269ZM197.024 32.5577C197.257 32.4756 197.382 32.3716 197.397 32.2456C197.418 32.1114 197.419 31.9843 197.399 31.8641C197.378 31.737 197.356 31.6427 197.331 31.5815C197.119 31.6165 196.999 31.7888 196.97 32.0984C196.958 32.202 196.959 32.2962 196.973 32.381C196.987 32.4658 197.004 32.5247 197.024 32.5577ZM201.086 36.6444C201.46 36.5825 201.744 36.7607 201.936 37.1789C201.995 37.3144 202.038 37.4634 202.064 37.6259C202.152 38.1558 202.056 38.7196 201.778 39.3173C201.5 39.9221 201.203 40.2543 200.886 40.3139C200.815 40.3185 200.771 40.2967 200.756 40.2484C200.756 40.2048 200.792 40.119 200.866 39.9907C201.634 39.1088 201.605 38.4059 200.778 37.882C200.521 37.7286 200.385 37.6095 200.371 37.5247C200.325 37.2491 200.438 37.0091 200.709 36.8046C200.826 36.72 200.951 36.6666 201.086 36.6444ZM210.245 31.9187C210.383 31.8741 210.637 31.5201 211.006 30.8566C211.375 30.1931 211.533 29.6953 211.478 29.3632C211.47 29.3137 211.443 29.2601 211.397 29.2024C211.279 29.367 211.049 29.8188 210.706 30.5577C210.371 31.2955 210.217 31.7491 210.245 31.9187ZM214.724 32.8007C215.015 32.3608 215.201 32.261 215.285 32.5013C215.3 32.5931 215.268 32.7544 215.19 32.985C214.95 33.6852 214.533 34.4546 213.939 35.2932C212.997 36.6247 212.092 37.3623 211.223 37.5059C210.813 37.5736 210.444 37.5148 210.116 37.3296C209.498 36.9743 209.099 36.2456 208.916 35.1434C208.812 34.5145 208.857 33.5998 209.051 32.3992C209.25 31.1903 209.673 30.0571 210.318 28.9996C210.597 28.489 210.927 28.2022 211.308 28.1391C211.492 28.1088 211.689 28.1161 211.9 28.1611C212.398 28.2748 212.682 28.5436 212.752 28.9676C212.762 29.0312 212.758 29.1371 212.739 29.2854C212.544 29.9056 212.187 30.6433 211.667 31.4985C211.148 32.3538 210.593 33.0588 210.003 33.6137C209.912 34.4707 209.905 35.1288 209.981 35.5881C210.057 36.0474 210.116 36.3388 210.158 36.4625C210.27 36.7487 210.532 36.858 210.942 36.7903C211.351 36.7226 211.794 36.4571 212.269 35.9938C212.743 35.5236 213.232 34.9273 213.737 34.2051C214.242 33.4829 214.527 33.0765 214.592 32.986C214.664 32.8942 214.708 32.8325 214.724 32.8007ZM220.565 27.6219C220.565 27.6219 219.593 27.7825 217.65 28.1036C217.833 28.4217 217.936 28.6261 217.958 28.7168C217.935 29.94 217.844 31.1237 217.685 32.2679C217.296 34.967 216.625 36.3954 215.671 36.553C215.197 36.6242 214.848 36.0068 214.625 34.7008C214.408 33.3866 214.349 31.8937 214.451 30.222C214.463 30.0313 214.63 29.6624 214.954 29.1154C215.316 28.4966 215.494 28.0789 215.487 27.8622C215.487 27.6444 215.509 27.532 215.551 27.525L215.666 27.5605L216.186 29.0641C215.979 29.7878 215.802 30.7536 215.653 31.9614C215.504 33.1691 215.47 34.0421 215.552 34.5802C215.578 34.7356 215.637 34.8093 215.73 34.8012C215.794 34.7907 215.862 34.7431 215.935 34.6584C216.263 34.2704 216.572 33.3301 216.863 31.8376C217.16 30.344 217.263 29.3181 217.171 28.7599C217.145 28.6044 216.998 28.244 216.731 27.6785C216.951 27.6929 217.195 27.6779 217.463 27.6336C217.732 27.5892 218.182 27.435 218.813 27.1709C219.445 26.9069 219.918 26.7415 220.234 26.6749C220.549 26.6082 220.815 26.6333 221.03 26.7501C221.246 26.867 221.289 27.0666 221.162 27.349C221.115 27.4584 220.916 27.5494 220.565 27.6219ZM221.14 30.118C221.278 30.0735 221.532 29.7195 221.901 29.0559C222.271 28.3924 222.428 27.8946 222.373 27.5625C222.365 27.5131 222.338 27.4595 222.292 27.4017C222.174 27.5664 221.944 28.0182 221.601 28.7571C221.266 29.4948 221.112 29.9485 221.14 30.118ZM225.62 31.0001C225.91 30.5601 226.097 30.4603 226.18 30.7006C226.195 30.7925 226.164 30.9537 226.086 31.1844C225.846 31.8846 225.428 32.654 224.834 33.4926C223.893 34.8241 222.987 35.5616 222.118 35.7052C221.708 35.773 221.339 35.7142 221.011 35.5289C220.394 35.1737 219.994 34.445 219.812 33.3427C219.708 32.7139 219.752 31.7992 219.946 30.5985C220.145 29.3897 220.568 28.2565 221.213 27.1989C221.492 26.6883 221.822 26.4015 222.203 26.3385C222.387 26.3081 222.584 26.3154 222.795 26.3605C223.293 26.4742 223.577 26.743 223.647 27.1669C223.657 27.2305 223.653 27.3365 223.634 27.4848C223.439 28.105 223.082 28.8427 222.563 29.6979C222.043 30.5531 221.489 31.2582 220.898 31.8131C220.807 32.6701 220.8 33.3282 220.876 33.7874C220.952 34.2467 221.011 34.5382 221.053 34.6619C221.166 34.9481 221.427 35.0574 221.837 34.9896C222.246 34.9219 222.689 34.6564 223.164 34.1932C223.638 33.7229 224.127 33.1267 224.632 32.4045C225.137 31.6823 225.422 31.2759 225.487 31.1853C225.559 31.0936 225.603 31.0318 225.62 31.0001ZM233.023 29.4172C233.081 29.7705 232.786 30.4871 232.137 31.567C231.488 32.6469 230.987 33.372 230.635 33.7424C230.288 34.1046 229.914 34.3189 229.511 34.3855C228.761 34.5022 228.288 33.9706 228.093 32.7906C228.001 32.2324 227.97 31.3412 228 30.1168C228.028 28.8853 228.041 28.2154 228.038 28.1071C227.33 28.4782 226.768 29.5364 226.352 31.2819C226.268 31.6514 226.139 32.2788 225.966 33.1639C225.799 34.0408 225.665 34.5675 225.563 34.7439C225.438 34.9533 225.248 35.079 224.994 35.1211C224.74 35.1631 224.594 35.0929 224.556 34.9103C224.5 34.5712 225.17 31.5716 226.564 25.9117C226.78 25.0196 226.908 24.5194 226.948 24.4111C227.029 24.1581 227.282 24.1273 227.706 24.3186C227.831 24.3776 227.901 24.446 227.914 24.5237C227.934 24.6003 227.901 24.7327 227.816 24.9209C227.622 25.3739 227.468 25.8894 227.353 26.4673L227.124 27.5831L227.394 27.1137C227.636 26.689 227.833 26.3661 227.986 26.145C228.137 25.9168 228.27 25.7822 228.387 25.7411C228.51 25.6918 228.638 25.6561 228.772 25.6339C229.065 25.6072 229.243 25.7376 229.305 26.0249C229.328 26.1662 229.31 26.3652 229.251 26.6218C228.975 27.7199 228.889 29.3274 228.992 31.4444C229.027 32.0484 229.081 32.5765 229.156 33.0287C229.237 33.4727 229.383 33.6807 229.597 33.6527C229.893 33.6037 230.358 33.0551 230.99 32.0069C231.622 30.9517 232.06 30.0917 232.306 29.4268C232.373 29.2632 232.491 29.1639 232.66 29.1288C232.843 29.142 232.964 29.2381 233.023 29.4172ZM238.976 26.0381C238.981 26.0298 239.089 25.8451 239.298 25.484C239.508 25.1299 239.656 24.8876 239.744 24.757L239.91 24.5117C240.029 24.3541 240.231 24.2555 240.514 24.2159C240.797 24.1692 240.969 24.286 241.03 24.5662C241.043 24.644 241.022 24.8253 240.967 25.1101C240.913 25.3949 240.861 25.9188 240.813 26.6816C240.683 28.5322 240.71 30.0086 240.892 31.1109C240.965 31.556 241.067 31.7751 241.196 31.7682C241.416 31.732 241.709 31.3969 242.076 30.7628C242.41 30.1923 242.876 28.932 243.476 26.9819C243.572 26.7266 243.708 26.5843 243.884 26.5551C243.98 26.5611 244.046 26.6301 244.082 26.762C244.14 27.1153 244.114 27.5479 244.002 28.0599C243.795 29.0451 243.395 30.0041 242.801 30.9369C242.215 31.8685 241.688 32.3729 241.222 32.45C240.536 32.5562 240.093 32.0523 239.894 30.9382C239.743 30.0197 239.679 28.691 239.704 26.9521C239.276 27.1752 238.929 27.5992 238.662 28.224C238.402 28.8476 238.17 29.7279 237.966 30.865C237.754 32.0397 237.585 32.7099 237.46 32.8758C237.311 33.031 237.134 33.122 236.928 33.1488C236.716 33.1838 236.594 33.1277 236.563 32.9805C236.531 32.8333 236.72 31.7168 237.131 29.6312C237.541 27.5455 238.036 25.3804 238.616 23.136C239.203 20.8905 239.51 19.4316 239.536 18.7594C239.553 18.5533 239.72 18.4205 240.037 18.3609C240.143 18.3434 240.251 18.34 240.362 18.3508C240.671 18.3794 240.842 18.4927 240.875 18.6905C240.887 18.7612 240.879 18.8424 240.85 18.9342L240.744 19.2131C240.364 20.2557 239.775 22.5307 238.976 26.0381ZM247.33 24.015C246.231 24.3926 245.368 25.2974 244.741 26.7294C244.129 28.1225 243.903 29.4373 244.064 30.6737C245.33 28.2725 246.418 26.0529 247.33 24.015ZM246.693 23.1947L247.333 23.1761C247.432 23.1598 247.525 23.0863 247.612 22.9558C247.706 22.824 247.838 22.7442 248.008 22.7161C248.185 22.6869 248.33 22.7101 248.444 22.7856C248.565 22.8599 248.632 22.9324 248.643 23.0031C248.654 23.0667 248.637 23.182 248.592 23.3491C248.547 23.5163 248.521 23.6257 248.515 23.6775C248.062 26.7792 247.903 28.7363 248.037 29.5488C248.091 29.8303 248.179 29.9646 248.3 29.9519C248.731 29.8806 249.312 29.2039 250.044 27.9215C250.534 27.0639 250.838 26.4439 250.956 26.0614C251.081 25.6778 251.195 25.4666 251.298 25.4279C251.319 25.4244 251.336 25.4179 251.349 25.4085C251.479 25.4016 251.558 25.4647 251.587 25.5978C251.629 25.8522 251.431 26.473 250.991 27.4601C250.056 29.5745 249.133 30.7071 248.221 30.8577C247.564 30.9663 247.16 30.5613 247.008 29.6428C246.935 29.2047 246.934 28.6461 247.003 27.9669C247.071 27.2806 247.109 26.8532 247.118 26.6849C246.99 26.9237 246.574 27.7838 245.867 29.2651C245.161 30.7464 244.627 31.6405 244.264 31.9473C244.148 32.0389 244.045 32.0959 243.955 32.1181C243.552 32.1847 243.232 32.0742 242.996 31.7866C242.886 31.6452 242.806 31.4296 242.759 31.1399C242.702 30.8443 242.806 30.1304 243.069 28.9982C243.493 27.1715 244.077 25.7212 244.821 24.6473C245.409 23.8099 246.033 23.3257 246.693 23.1947ZM258.247 25.2484C258.306 25.6016 258.01 26.3182 257.361 27.3982C256.712 28.4781 256.212 29.2032 255.859 29.5736C255.512 29.9357 255.138 30.1501 254.735 30.2167C253.985 30.3334 253.512 29.8018 253.317 28.6218C253.225 28.0636 253.194 27.1723 253.224 25.9479C253.253 24.7165 253.265 24.0466 253.262 23.9383C252.554 24.3094 251.992 25.3676 251.576 27.113C251.492 27.4826 251.364 28.1099 251.191 28.9951C251.023 29.872 250.889 30.3986 250.788 30.5751C250.662 30.7845 250.473 30.9102 250.218 30.9523C249.964 30.9943 249.818 30.924 249.781 30.7415C249.725 30.4024 250.394 27.4028 251.788 21.7429C252.004 20.8508 252.132 20.3506 252.172 20.2423C252.254 19.9893 252.506 19.9584 252.93 20.1497C253.056 20.2088 253.125 20.2772 253.138 20.3549C253.158 20.4314 253.125 20.5638 253.04 20.7521C252.846 21.2051 252.692 21.7206 252.577 22.2985L252.348 23.4143L252.619 22.9449C252.861 22.5202 253.058 22.1973 253.21 21.9762C253.361 21.748 253.495 21.6134 253.611 21.5723C253.734 21.523 253.862 21.4873 253.996 21.4651C254.29 21.4384 254.467 21.5688 254.529 21.8561C254.553 21.9974 254.535 22.1964 254.475 22.4529C254.2 23.551 254.113 25.1586 254.216 27.2756C254.251 27.8796 254.305 28.4077 254.38 28.8599C254.461 29.3039 254.608 29.5119 254.821 29.4839C255.118 29.4348 255.582 28.8862 256.215 27.8381C256.846 26.7829 257.285 25.9228 257.53 25.258C257.598 25.0944 257.716 24.9951 257.884 24.96C258.068 24.9732 258.189 25.0693 258.247 25.2484ZM265.214 13.9059C264.257 16.2852 263.432 19.6189 262.74 23.907C262.74 23.907 262.663 24.3407 262.509 25.2082C262.097 27.4175 261.942 28.8513 262.044 29.5096C262.077 29.6203 262.215 29.7571 262.46 29.9199C262.692 30.0485 262.82 30.187 262.844 30.3354C262.897 30.7405 262.782 30.9882 262.499 31.0784C262.322 31.1076 262.153 31.0703 261.991 30.9665C261.665 30.7518 261.453 30.3512 261.356 29.7647C261.177 28.6766 261.209 27.4446 261.453 26.0686C261.704 24.6844 261.845 23.8263 261.877 23.4944L261.022 25.1056C260.258 26.5456 259.541 27.7202 258.871 28.6293C258.814 28.6752 258.654 28.8504 258.392 29.155C258.136 29.4513 257.796 29.6345 257.372 29.7046C257.252 29.7244 257.139 29.7213 257.033 29.6953C256.664 29.6112 256.438 29.3218 256.356 28.8273C256.314 28.5729 256.456 27.9832 256.783 27.0583C257.109 26.1334 257.725 24.8992 258.631 23.3557C259.545 21.8111 260.192 20.9202 260.574 20.6829C260.963 20.4444 261.39 20.2866 261.857 20.2096C262.02 20.052 262.183 19.8362 262.349 19.5621C262.514 19.288 262.689 18.8308 262.873 18.1906L263.232 16.9337C263.312 16.6736 263.449 16.1864 263.643 15.472C263.836 14.7506 263.992 14.1986 264.11 13.8161C264.597 12.2403 265.081 11.4127 265.562 11.3333C266.036 11.2622 266.318 11.455 266.408 11.912C266.466 12.2582 266.383 12.6601 266.161 13.1178C265.939 13.5755 265.624 13.8382 265.214 13.9059ZM261.21 22.0912C261.245 21.8676 261.257 21.7204 261.246 21.6498C261.233 21.5721 261.211 21.5285 261.18 21.519C261.131 21.5272 260.943 21.7506 260.616 22.1893C259.314 23.8853 258.314 25.6511 257.616 27.4868C257.455 27.9198 257.383 28.1894 257.401 28.2953C257.418 28.4013 257.453 28.4573 257.505 28.4633C257.568 28.4527 257.66 28.3905 257.779 28.2764C258.224 27.8544 258.867 26.9534 259.706 25.5735C260.545 24.1936 261.046 23.0329 261.21 22.0912ZM263.086 20.3984C263.279 20.4246 263.453 20.4248 263.608 20.3991C263.764 20.3734 263.948 20.3031 264.161 20.188C264.766 19.8485 265.116 19.3333 265.213 18.6424C265.223 18.5317 265.268 18.47 265.345 18.4571C265.43 18.4431 265.524 18.4385 265.626 18.4434C266.043 18.4616 266.27 18.5838 266.307 18.8099L266.435 19.5835C266.189 19.8493 265.974 20.2658 265.792 20.833C265.616 21.392 265.525 22.3979 265.518 23.8507L265.516 24.2322L265.666 23.8916C266.433 22.1607 266.871 20.8833 266.982 20.0593C267.498 20.1483 267.953 20.1601 268.349 20.0948C270.016 19.8192 271.15 19.3415 271.749 18.6618C271.832 18.5536 271.889 18.5007 271.918 18.5031C271.921 18.5173 271.874 18.7644 271.78 19.2447L271.614 20.0233C271.566 20.2127 271.481 20.3174 271.361 20.3373C271.022 20.3497 270.817 20.3618 270.747 20.3735C270.245 20.4564 269.796 20.6577 269.398 20.9774C269.401 22.4868 269.313 23.9495 269.133 25.3656C269.088 25.6634 268.965 26.0865 268.766 26.6348C268.379 27.6786 268.016 28.2285 267.677 28.2846C267.14 28.3733 266.751 27.7117 266.511 26.2998C266.485 26.1443 266.452 25.9212 266.411 25.6303C266.37 25.3395 266.339 25.1304 266.318 25.0033C266.261 25.0491 266.206 25.1161 266.156 25.2044C266.112 25.2914 265.971 25.6232 265.732 26.1998C265.494 26.7764 265.265 27.0828 265.046 27.119C265.01 27.1248 264.95 27.113 264.866 27.0834C264.474 26.9522 264.246 26.6958 264.183 26.3143C264.083 25.7066 264.17 24.676 264.445 23.2223C264.72 21.7687 264.867 20.9206 264.885 20.6781C264.658 20.6213 264.378 20.6857 264.046 20.8712C263.721 21.0556 263.54 21.1508 263.505 21.1566C263.292 21.1846 263.161 21.072 263.112 20.8188C263.061 20.5585 263.053 20.4184 263.086 20.3984ZM267.352 26.1826C267.385 26.3875 267.453 26.4453 267.554 26.3559C267.763 26.1255 268.023 25.3276 268.335 23.9623C268.653 22.5958 268.759 21.6094 268.651 21.0029C268.64 20.9322 268.612 20.8498 268.567 20.7555C268.426 20.474 268.271 20.3472 268.101 20.3752C268.061 20.3964 268.023 20.4499 267.986 20.5358C267.733 21.2018 267.54 22.1593 267.405 23.4083C267.27 24.6572 267.252 25.582 267.352 26.1826ZM274.355 19.8098L274.357 19.951L274.357 20.0817C274.385 20.2513 274.25 20.9705 273.951 22.2392C273.646 23.5092 273.537 24.3908 273.626 24.8843C273.779 25.7227 274.054 26.1128 274.451 26.0545C274.847 25.9891 275.353 25.4517 275.97 24.4424C276.714 23.2308 277.143 22.3395 277.26 21.7687C277.377 21.2049 277.492 20.9137 277.605 20.895C277.698 20.8869 277.764 20.9776 277.803 21.1672C277.833 21.3509 277.835 21.4957 277.809 21.6017L277.75 21.9053C277.575 22.7328 277.232 23.6206 276.721 24.5688C275.985 25.9606 275.25 26.7172 274.515 26.8387C274.282 26.8772 274.06 26.8522 273.85 26.7636C273.319 26.5392 272.984 26.0066 272.845 25.1658C272.8 24.8902 272.79 24.4563 272.815 23.8642C272.848 23.2708 272.857 22.9536 272.843 22.9123C272.835 22.8629 272.762 22.8204 272.626 22.7849C272.353 22.7139 272.181 22.7278 272.11 22.8266C272.056 22.9372 271.868 23.7522 271.545 25.2717C271.23 26.7901 270.97 27.5662 270.765 27.6C270.702 27.6105 270.574 27.588 270.384 27.5324C270.186 27.478 270.075 27.3766 270.05 27.2282C270.046 27.1999 270.102 26.9693 270.219 26.5362L270.58 25.0938C270.833 24.0793 271.105 22.7387 271.396 21.072L272.147 16.854C272.166 16.7492 272.27 16.6776 272.459 16.639L272.733 16.5828C273.072 16.5268 273.262 16.6224 273.303 16.8697C273.323 16.9898 273.227 17.5501 273.015 18.5505C272.803 19.551 272.686 20.3143 272.664 20.8406L272.685 21.1638C272.7 21.2556 272.726 21.3057 272.764 21.314C272.784 21.3034 272.847 21.1334 272.952 20.8039L273.138 20.2178C273.17 20.1472 273.198 20.0554 273.223 19.9424C273.331 19.6271 273.491 19.4519 273.703 19.4168C274.071 19.3632 274.287 19.4835 274.35 19.778L274.355 19.8098ZM279.343 15.7953C279.305 15.787 279.207 15.7451 279.05 15.6696C278.86 15.5775 278.761 15.5032 278.752 15.4466C278.72 15.2559 278.911 14.7634 279.324 13.9693C279.737 13.1751 279.967 12.7016 280.015 12.5486C280.162 12.3427 280.421 12.3908 280.79 12.6927C281.086 12.9486 281.204 13.1759 281.142 13.3748C281.123 13.5667 280.887 14.0049 280.434 14.6895C279.981 15.3741 279.617 15.7427 279.343 15.7953ZM282.976 22.0325C282.836 22.8105 282.44 23.6453 281.789 24.5369C281.02 25.5931 280.325 26.1725 279.703 26.2753C278.862 26.4143 278.257 26.0243 277.887 25.1055C277.776 24.8263 277.692 24.5172 277.636 24.178C277.448 23.084 277.447 21.7813 277.632 20.2698C277.861 18.3593 278.212 17.365 278.686 17.2867C278.919 17.2482 279.098 17.2767 279.222 17.3722C279.353 17.4595 279.422 17.5279 279.43 17.5774C279.468 17.8035 279.33 18.3996 279.018 19.3658C278.705 20.3249 278.525 21.0151 278.479 21.4366C278.438 21.8497 278.443 22.3825 278.492 23.0348C278.548 23.6789 278.591 24.0928 278.621 24.2765C278.724 24.8983 278.862 25.2746 279.037 25.4055C279.218 25.5353 279.418 25.5856 279.639 25.5565C280.26 25.4537 280.913 24.7906 281.596 23.5671C281.925 22.9682 282.17 22.427 282.33 21.9433C282.407 21.7562 282.503 21.6534 282.616 21.6347C282.811 21.6314 282.933 21.7093 282.981 21.8683C282.985 21.8895 282.983 21.9442 282.976 22.0325ZM284.536 14.9371C284.498 14.9288 284.401 14.8868 284.243 14.8113C284.054 14.7192 283.954 14.6449 283.945 14.5883C283.913 14.3976 284.104 13.9051 284.517 13.111C284.93 12.3168 285.161 11.8433 285.208 11.6903C285.355 11.4844 285.614 11.5325 285.983 11.8344C286.279 12.0903 286.397 12.3176 286.335 12.5165C286.316 12.7084 286.08 13.1467 285.627 13.8312C285.174 14.5158 284.81 14.8844 284.536 14.9371ZM288.169 21.1742C288.029 21.9523 287.633 22.787 286.982 23.6786C286.213 24.7348 285.518 25.3143 284.896 25.417C284.055 25.556 283.45 25.1661 283.08 24.2472C282.969 23.968 282.885 23.6589 282.829 23.3197C282.641 22.2257 282.64 20.923 282.826 19.4116C283.054 17.501 283.405 16.5067 283.879 16.4284C284.112 16.3899 284.291 16.4184 284.416 16.5139C284.546 16.6012 284.615 16.6696 284.624 16.7191C284.661 16.9452 284.524 17.5413 284.211 18.5075C283.898 19.4666 283.718 20.1568 283.672 20.5783C283.631 20.9915 283.636 21.5242 283.686 22.1765C283.741 22.8206 283.784 23.2345 283.815 23.4182C283.917 24.04 284.056 24.4163 284.23 24.5472C284.411 24.677 284.612 24.7273 284.832 24.6982C285.454 24.5954 286.106 23.9323 286.789 22.7088C287.119 22.11 287.363 21.5687 287.523 21.085C287.601 20.898 287.696 20.7951 287.809 20.7764C288.005 20.7731 288.126 20.851 288.175 21.01C288.178 21.0312 288.176 21.0859 288.169 21.1742ZM290.181 15.6264L293.972 14.9128C294.05 14.8999 294.146 14.9566 294.261 15.0827C294.375 15.2018 294.455 15.3773 294.501 15.6093C294.519 15.7659 294.331 15.8805 293.937 15.9529C292.769 16.175 291.372 16.5511 289.746 17.081C289.683 17.4471 289.571 17.9773 289.41 18.6717C288.702 21.7212 288.443 23.8218 288.634 24.9735C288.728 25.5459 288.929 26.0789 289.235 26.5726C289.764 27.3998 290.406 27.7509 291.162 27.626C291.749 27.5291 292.215 27.296 292.56 26.9268C292.914 26.5635 293.306 25.9942 293.737 25.2189C293.87 24.9718 294.034 24.8649 294.228 24.8981C294.418 24.9467 294.531 25.084 294.569 25.3101C294.676 25.9601 294.391 26.5625 293.713 27.1173C293.037 27.6792 292.267 28.0313 291.405 28.1738C290.55 28.3151 289.757 28.1233 289.024 27.5984C288.298 27.0723 287.849 26.2864 287.676 25.2407C287.56 24.5412 287.525 23.7776 287.57 22.95C287.614 22.1224 287.772 21.0766 288.042 19.8125C288.311 18.5413 288.483 17.6962 288.559 17.2772C287.097 17.5189 286.278 17.6361 286.102 17.6288C285.561 17.6022 285.259 17.4234 285.197 17.0925C285.187 16.9853 285.257 16.9048 285.408 16.8508L288.805 15.9954L290.442 11.8051C290.631 11.3238 290.832 11.0657 291.044 11.0307C291.129 11.0166 291.23 11.0144 291.347 11.024C291.78 11.047 292.013 11.1644 292.048 11.3764C292.082 11.5813 291.923 11.9343 291.57 12.4353C291.217 12.9364 291.001 13.2552 290.922 13.3916C290.658 13.8563 290.411 14.6013 290.181 15.6264ZM294.884 17.9304C295.022 17.8858 295.276 17.5318 295.645 16.8683C296.014 16.2047 296.172 15.7069 296.117 15.3749C296.109 15.3254 296.082 15.2718 296.036 15.214C295.918 15.3787 295.688 15.8305 295.345 16.5694C295.01 17.3071 294.856 17.7608 294.884 17.9304ZM299.363 18.8124C299.654 18.3725 299.84 18.2726 299.924 18.5129C299.939 18.6048 299.907 18.766 299.829 18.9967C299.589 19.6969 299.172 20.4663 298.578 21.3049C297.636 22.6364 296.731 23.3739 295.862 23.5176C295.452 23.5853 295.083 23.5265 294.755 23.3412C294.137 22.986 293.738 22.2573 293.555 21.1551C293.451 20.5262 293.496 19.6115 293.69 18.4109C293.889 17.202 294.312 16.0688 294.957 15.0113C295.236 14.5007 295.566 14.2138 295.947 14.1508C296.131 14.1204 296.328 14.1278 296.539 14.1728C297.037 14.2865 297.321 14.5553 297.391 14.9792C297.401 15.0428 297.397 15.1488 297.378 15.2971C297.183 15.9173 296.826 16.655 296.306 17.5102C295.787 18.3654 295.232 19.0705 294.642 19.6254C294.551 20.4824 294.544 21.1405 294.62 21.5998C294.696 22.059 294.755 22.3505 294.797 22.4742C294.909 22.7604 295.171 22.8697 295.58 22.802C295.99 22.7342 296.433 22.4688 296.908 22.0055C297.382 21.5352 297.871 20.939 298.376 20.2168C298.881 19.4946 299.166 19.0882 299.231 18.9976C299.303 18.9059 299.347 18.8442 299.363 18.8124ZM306.767 17.2295C306.825 17.5828 306.53 18.2994 305.881 19.3793C305.232 20.4592 304.731 21.1844 304.379 21.5548C304.032 21.9169 303.657 22.1313 303.255 22.1978C302.504 22.3145 302.032 21.7829 301.837 20.603C301.745 20.0448 301.713 19.1535 301.743 17.9291C301.772 16.6976 301.785 16.0277 301.781 15.9194C301.073 16.2905 300.512 17.3488 300.096 19.0942C300.012 19.4638 299.883 20.0911 299.71 20.9762C299.543 21.8531 299.409 22.3798 299.307 22.5562C299.182 22.7656 298.992 22.8914 298.738 22.9334C298.484 22.9754 298.338 22.9052 298.3 22.7227C298.244 22.3835 298.913 19.384 300.308 13.724C300.524 12.8319 300.651 12.3317 300.692 12.2235C300.773 11.9704 301.026 11.9396 301.449 12.1309C301.575 12.1899 301.645 12.2583 301.657 12.336C301.677 12.4126 301.645 12.545 301.56 12.7332C301.366 13.1863 301.212 13.7017 301.097 14.2796L300.867 15.3954L301.138 14.9261C301.38 14.5014 301.577 14.1785 301.729 13.9573C301.88 13.7291 302.014 13.5945 302.131 13.5535C302.253 13.5042 302.382 13.4684 302.516 13.4462C302.809 13.4196 302.987 13.5499 303.049 13.8373C303.072 13.9786 303.054 14.1775 302.995 14.4341C302.719 15.5322 302.633 17.1397 302.736 19.2567C302.77 19.8607 302.825 20.3888 302.9 20.841C302.98 21.285 303.127 21.493 303.34 21.465C303.637 21.416 304.102 20.8674 304.734 19.8192C305.366 18.764 305.804 17.904 306.05 17.2391C306.117 17.0756 306.235 16.9763 306.403 16.9412C306.587 16.9544 306.708 17.0505 306.767 17.2295Z" fill="#F4BB94"/>
</svg>
