<svg width="535" height="193" viewBox="0 0 535 193" fill="none" xmlns="http://www.w3.org/2000/svg">
<path d="M12.95 53H3.5V17.1H18.2C27.9 17.1 33.45 21.45 33.45 29.1C33.45 33.7 30.7 37.5 25.85 39.55L34.65 53H23.4L16.05 41.05H12.95V53ZM12.95 24.9V33.25H17.8C22 33.25 23.95 31.95 23.95 29.1C23.95 26.25 22 24.9 17.8 24.9H12.95ZM64.3004 44.8V53H38.9004V17.1H63.9504V25.3H48.3504V30.45H62.5004V38.65H48.3504V44.8H64.3004ZM83.7109 42.05H79.1609V53H69.7109V17.1H83.7109C93.1109 17.1 98.7609 21.3 98.7609 29.35C98.7609 37.45 93.1109 42.05 83.7109 42.05ZM83.6609 25.05H79.1609V34.1H83.6609C87.4109 34.1 89.3609 32.2 89.3609 29.45C89.3609 26.65 87.4109 25.05 83.6609 25.05ZM119.949 53.75C109.599 53.75 101.449 45.9 101.449 35C101.449 24.1 109.599 16.35 119.949 16.35C130.349 16.35 138.499 24.1 138.499 35C138.499 45.9 130.349 53.75 119.949 53.75ZM119.949 45.3C125.599 45.3 128.749 40.65 128.749 35C128.749 29.35 125.599 24.8 119.949 24.8C114.299 24.8 111.149 29.35 111.149 35C111.149 40.65 114.299 45.3 119.949 45.3ZM152.843 53H143.393V17.1H158.093C167.793 17.1 173.343 21.45 173.343 29.1C173.343 33.7 170.593 37.5 165.743 39.55L174.543 53H163.293L155.943 41.05H152.843V53ZM152.843 24.9V33.25H157.693C161.893 33.25 163.843 31.95 163.843 29.1C163.843 26.25 161.893 24.9 157.693 24.9H152.843ZM196.005 53H186.555V25.65H175.555V17.1H207.005V25.65H196.005V53ZM239.525 41.25C239.525 48.65 233.625 53.5 224.275 53.5C214.925 53.5 208.925 48.55 208.275 40.6H217.825C217.925 44 220.175 46.15 224.075 46.15C227.325 46.15 229.475 44.9 229.475 42.65C229.475 41.1 227.925 39.95 225.825 39.55L219.275 38.3C213.525 37.2 209.725 33.85 209.725 28.05C209.725 21.35 215.625 16.65 223.675 16.65C232.225 16.65 238.375 21.55 238.925 29.3H229.375C229.125 26.05 226.925 23.95 223.775 23.95C220.975 23.95 219.275 25.45 219.275 27.4C219.275 29 220.875 29.95 222.775 30.3L229.725 31.65C236.125 32.9 239.525 36.05 239.525 41.25ZM252.919 47.8C252.919 51 250.719 53.25 247.519 53.25C244.319 53.25 242.069 51 242.069 47.8C242.069 44.55 244.319 42.3 247.519 42.3C250.719 42.3 252.919 44.55 252.919 47.8Z" fill="#99D3AC"/>
<path d="M0.3 113.9C0.206667 113.527 0.23 113.2 0.37 112.92C0.463333 112.593 0.626667 112.243 0.86 111.87C1.09333 111.497 1.25667 111.193 1.35 110.96C1.25667 110.447 1.37333 110.003 1.7 109.63C2.07333 109.21 2.30667 108.837 2.4 108.51C2.72667 106.55 3.91667 103.773 5.97 100.18C8.02333 96.54 9.23667 94.16 9.61 93.04C9.65667 92.9467 9.70333 92.7367 9.75 92.41C9.84333 92.0833 9.91333 91.85 9.96 91.71C10.0533 91.5233 10.1467 91.2667 10.24 90.94C10.38 90.5667 10.4967 90.31 10.59 90.17C10.73 90.03 10.8933 89.8433 11.08 89.61C11.2667 89.33 11.4533 89.2133 11.64 89.26C11.8267 89.3067 12.06 89.33 12.34 89.33C12.62 89.19 12.5967 89.0733 12.27 88.98C11.8967 88.8867 11.6633 88.77 11.57 88.63C11.4767 88.3967 11.43 88.2333 11.43 88.14C11.4767 88 11.5467 87.79 11.64 87.51C11.78 87.1833 11.8733 86.9733 11.92 86.88C12.2467 85.62 12.5267 84.99 12.76 84.99C12.8533 84.99 12.97 85.1533 13.11 85.48C13.25 85.5267 13.3667 85.5267 13.46 85.48C13.6 85.3867 13.74 85.2933 13.88 85.2C14.02 85.06 14.1367 84.9667 14.23 84.92C14.6033 84.92 14.86 84.85 15 84.71C15.1867 84.5233 15.3967 84.4067 15.63 84.36C15.7233 84.5933 15.6767 84.8267 15.49 85.06C15.35 85.2933 15.28 85.4333 15.28 85.48C15.28 85.62 15.28 85.8767 15.28 86.25C15.3267 86.5767 15.3267 86.8333 15.28 87.02C15.14 87.6267 14.9067 88.0933 14.58 88.42C14.3467 88.4667 14.23 88.7233 14.23 89.19C14.2767 89.6567 14.3 89.9367 14.3 90.03C14.16 90.9633 13.7867 92.1533 13.18 93.6C12.62 95.0467 12.2933 95.98 12.2 96.4C12.5733 96.4 12.97 96.3067 13.39 96.12C13.53 96.0733 13.7867 96.0967 14.16 96.19C14.5333 96.2833 14.79 96.33 14.93 96.33C14.9767 96.33 15.3733 96.2833 16.12 96.19C16.8667 96.05 17.45 95.91 17.87 95.77C18.29 95.5833 18.57 95.35 18.71 95.07C18.9433 94.7433 19.34 94.44 19.9 94.16C20.0867 94.1133 20.3433 94.0667 20.67 94.02C20.9967 93.9267 21.2533 93.8333 21.44 93.74C22.5133 93.2267 23.68 92.34 24.94 91.08C26.2467 89.7733 27.2267 88.5367 27.88 87.37C28.3 86.5767 28.3933 85.3867 28.16 83.8C27.9733 82.4933 27.6233 81.28 27.11 80.16C26.5967 78.9933 25.8733 77.64 24.94 76.1C24.0533 74.5133 23.3767 73.2533 22.91 72.32C22.8167 72.1333 22.7 72.0167 22.56 71.97C22.4667 71.9233 22.3033 71.9 22.07 71.9C21.8367 71.9 21.6733 71.9 21.58 71.9C21.3933 71.8067 21.2067 71.69 21.02 71.55C20.8333 71.3633 20.6933 71.2933 20.6 71.34C20.5533 71.34 20.3433 71.34 19.97 71.34C19.0367 71.1533 18.5233 71.06 18.43 71.06C17.9633 71.06 17.4267 71.2467 16.82 71.62L15.28 72.46C15.14 72.5067 14.9767 72.5767 14.79 72.67C14.6033 72.7167 14.4867 72.7633 14.44 72.81C14.3933 72.8567 14.3233 72.95 14.23 73.09C14.1367 73.1833 14.16 73.3233 14.3 73.51C14.44 73.9767 13.5067 74.4433 11.5 74.91C11.4533 74.91 11.36 74.9333 11.22 74.98C10.8933 75.0733 10.6367 75.1433 10.45 75.19C10.2633 75.2367 10.1 75.3533 9.96 75.54C9.82 75.7267 9.77333 75.9367 9.82 76.17C9.86667 76.3567 9.91333 76.38 9.96 76.24C10.0067 76.1 10.0533 76.03 10.1 76.03C10.38 76.45 10.5667 77.01 10.66 77.71C10.5667 77.9433 10.45 78.0833 10.31 78.13C10.2167 78.1767 10.1233 78.1767 10.03 78.13C9.93667 78.0833 9.86667 78.0133 9.82 77.92L9.68 77.85L9.82 77.15C9.68 77.15 9.49333 77.29 9.26 77.57C9.16667 77.6633 9.12 77.8033 9.12 77.99C8.93333 77.99 8.79333 77.9667 8.7 77.92C8.65333 77.8267 8.63 77.7567 8.63 77.71C8.63 77.6167 8.63 77.5 8.63 77.36C8.67667 77.22 8.7 77.1033 8.7 77.01C8.88667 77.01 9.00333 76.9867 9.05 76.94C9.09667 76.8467 9.09667 76.7533 9.05 76.66C9.00333 76.52 9.02667 76.4033 9.12 76.31L10.24 74.63C11.4067 74.49 12.06 74.35 12.2 74.21C12.2467 74.1633 12.34 74.14 12.48 74.14C12.6667 74 12.7833 73.8833 12.83 73.79C12.55 73.65 12.3633 73.4633 12.27 73.23C12.2233 72.9967 12.27 72.74 12.41 72.46C12.5967 72.18 12.7833 71.9 12.97 71.62C13.2033 71.34 13.4367 71.06 13.67 70.78C13.9033 70.5 14.0433 70.3133 14.09 70.22C15.21 68.6333 17.1233 67.7933 19.83 67.7C19.83 68.12 19.9 68.33 20.04 68.33C20.0867 68.33 20.25 68.26 20.53 68.12C20.8567 67.98 21.1367 67.9333 21.37 67.98C22.0233 68.0733 22.8167 68.4467 23.75 69.1C24.31 69.52 24.87 70.0567 25.43 70.71C25.99 71.3167 26.4333 71.83 26.76 72.25C27.0867 72.67 27.4833 73.37 27.95 74.35C28.4633 75.33 28.7667 75.96 28.86 76.24C29 76.4733 29.3267 77.1733 29.84 78.34L30.61 80.16C31.2633 80.8133 31.59 81.9567 31.59 83.59C31.59 84.9433 31.6133 85.7367 31.66 85.97C31.7533 86.4833 31.6367 86.9267 31.31 87.3C30.9833 87.6733 30.7967 88.0233 30.75 88.35C30.7033 88.8633 30.5633 89.3767 30.33 89.89C30.0967 90.3567 29.8633 90.73 29.63 91.01C29.4433 91.29 29.1167 91.71 28.65 92.27C28.1833 92.7833 27.8567 93.1333 27.67 93.32C27.3433 93.74 26.69 94.2533 25.71 94.86C24.7767 95.42 24.1933 95.8867 23.96 96.26C23.6333 96.4 23.1433 96.68 22.49 97.1C21.8367 97.52 21.2767 97.8 20.81 97.94C20.4833 98.08 20.04 98.3133 19.48 98.64C18.9667 98.92 18.6167 99.1067 18.43 99.2C18.29 99.0133 18.1967 98.8733 18.15 98.78C18.15 98.64 18.1967 98.5233 18.29 98.43C18.3833 98.3367 18.5 98.29 18.64 98.29C18.78 98.2433 18.9433 98.1967 19.13 98.15C19.3633 98.0567 19.5267 97.9867 19.62 97.94C19.6667 97.8933 19.76 97.8467 19.9 97.8C20.04 97.7533 20.1567 97.7067 20.25 97.66C20.3433 97.6133 20.4367 97.5667 20.53 97.52C20.67 97.4267 20.7633 97.3567 20.81 97.31C20.9033 97.2633 20.9967 97.2167 21.09 97.17C21.1833 97.0767 21.2533 97.0067 21.3 96.96C21.3467 96.8667 21.37 96.7967 21.37 96.75C21.4167 96.6567 21.4167 96.5867 21.37 96.54C21.37 96.4467 21.3467 96.3533 21.3 96.26C18.9667 96.9133 17.4967 97.2633 16.89 97.31C16.33 97.31 15.7 97.7067 15 98.5C14.9533 98.5467 14.3467 98.71 13.18 98.99C12.7133 99.0833 12.62 99.27 12.9 99.55C13.18 99.55 13.3433 99.7133 13.39 100.04C13.2033 100.087 12.7133 100.18 11.92 100.32C11.1267 100.46 10.52 100.553 10.1 100.6C9.86667 100.833 9.72667 101.16 9.68 101.58C9.63333 102 9.54 102.35 9.4 102.63C8.65333 103.843 7.81333 105.5 6.88 107.6C5.94667 109.653 5.17667 111.17 4.57 112.15C4.47667 112.337 4.17333 112.803 3.66 113.55C3.19333 114.297 2.84333 114.88 2.61 115.3C2.19 115.347 1.81667 115.37 1.49 115.37C1.21 115.323 0.976667 115.207 0.79 115.02C0.603333 114.787 0.44 114.413 0.3 113.9ZM8.98 80.86C8.60667 80.86 8.23333 80.79 7.86 80.65C7.53333 80.51 7.53333 80.2767 7.86 79.95C8.18667 80.2767 8.42 80.3467 8.56 80.16C8 79.6933 7.90667 78.97 8.28 77.99C8.37333 78.0833 8.60667 78.2467 8.98 78.48C9.35333 78.7133 9.58667 78.9467 9.68 79.18C9.91333 79.6 9.96 79.8567 9.82 79.95C9.72667 80.0433 9.56333 80.0667 9.33 80.02C9.09667 79.9267 8.98 79.9733 8.98 80.16C9.07333 80.16 9.21333 80.2067 9.4 80.3C9.4 80.3933 9.35333 80.4867 9.26 80.58C9.16667 80.6733 9.12 80.7433 9.12 80.79L9.75 81.07C9.65667 81.35 9.49333 81.56 9.26 81.7C9.26 81.6067 9.19 81.49 9.05 81.35C8.95667 81.1633 8.93333 81 8.98 80.86ZM13.25 83.24C13.11 83.1467 13.1567 82.7967 13.39 82.19C13.3433 81.8633 13.4133 81.6767 13.6 81.63C13.7867 81.5367 13.95 81.42 14.09 81.28C15.07 81.6067 15.3967 82.1667 15.07 82.96C14.8833 82.8667 14.7433 82.6567 14.65 82.33C14.6033 82.0967 14.4633 82.0967 14.23 82.33C14.1367 82.4233 14.1133 82.54 14.16 82.68C14.2533 82.7733 14.2767 82.8667 14.23 82.96C14.0433 83.1 13.9033 83.0767 13.81 82.89C13.7633 82.7033 13.5767 82.82 13.25 83.24ZM13.95 100.04C13.9033 99.6667 14.1133 99.41 14.58 99.27C15.0933 99.13 15.6767 99.06 16.33 99.06C16.9833 99.0133 17.4033 98.92 17.59 98.78C17.73 99.0133 17.8233 99.2 17.87 99.34C17.45 99.34 16.7267 99.4567 15.7 99.69C14.6733 99.9233 14.09 100.04 13.95 100.04ZM8.14 81.98C7.86 81.7467 7.81333 81.5133 8 81.28C8.32667 81.2333 8.53667 81.2333 8.63 81.28C8.72333 81.3267 8.74667 81.4667 8.7 81.7C8.60667 81.7 8.49 81.7467 8.35 81.84C8.25667 81.9333 8.18667 81.98 8.14 81.98ZM14.09 84.64C13.5767 84.4533 13.5767 84.3133 14.09 84.22C14.3233 84.4067 14.3233 84.5467 14.09 84.64ZM8.84 82.12C8.79333 82.0267 8.79333 81.98 8.84 81.98C8.93333 81.9333 9.02667 81.9333 9.12 81.98C9.35333 82.0733 9.49333 82.1667 9.54 82.26C9.16667 82.26 8.93333 82.2133 8.84 82.12ZM35.3334 114.39C34.96 114.577 34.5867 114.67 34.2134 114.67C33.5134 114.67 33 114.39 32.6734 113.83C32.3934 113.27 32.4634 112.547 32.8834 111.66C33.1634 111.1 33.6767 110.33 34.4234 109.35C35.17 108.37 35.6834 107.623 35.9634 107.11C36.29 106.55 36.7567 106.083 37.3634 105.71C38.0167 105.337 38.4367 105.033 38.6234 104.8C38.7634 104.66 38.8567 104.38 38.9034 103.96C38.95 103.54 38.9034 103.33 38.7634 103.33C38.7167 103.33 38.6467 103.353 38.5534 103.4C38.46 103.447 38.3434 103.47 38.2034 103.47C38.11 103.423 38.0167 103.33 37.9234 103.19C37.5967 102.677 37.83 102 38.6234 101.16C39.4634 100.32 40.21 100.063 40.8634 100.39C41.5634 100.81 41.8434 101.37 41.7034 102.07C41.5167 102.91 41.6334 103.33 42.0534 103.33C42.4267 103.33 42.9634 103.073 43.6634 102.56C43.85 102.42 44.5734 102.187 45.8334 101.86C47.14 101.487 47.9334 101.323 48.2134 101.37C48.4467 101.463 48.7734 101.65 49.1934 101.93C49.66 102.163 49.9867 102.303 50.1734 102.35C50.8734 102.537 51.9234 102.887 53.3234 103.4C54.77 103.913 56.03 104.31 57.1034 104.59C58.1767 104.87 59.1334 105.01 59.9734 105.01C60.5334 105.01 61.0467 104.94 61.5134 104.8C61.8867 104.66 62.26 104.403 62.6334 104.03C63.0067 103.657 63.38 103.213 63.7534 102.7C64.1734 102.187 64.5 101.813 64.7334 101.58C65.9 100.413 67.65 99.83 69.9834 99.83C71.1034 99.83 71.92 99.9933 72.4334 100.32C72.9934 100.647 73.3667 101.323 73.5534 102.35C73.6 102.677 73.5534 103.003 73.4134 103.33C73.2734 103.657 73.04 103.96 72.7134 104.24C72.3867 104.52 72.0367 104.8 71.6634 105.08C71.3367 105.313 70.8934 105.57 70.3334 105.85C69.82 106.13 69.4 106.363 69.0734 106.55C68.7467 106.69 68.3034 106.877 67.7434 107.11C67.1834 107.343 66.8334 107.507 66.6934 107.6C66.5534 107.647 66.18 107.763 65.5734 107.95C65.0134 108.09 64.5 108.277 64.0334 108.51C63.6134 108.697 63.3334 108.93 63.1934 109.21C62.8667 109.817 63.2867 110.703 64.4534 111.87C65.62 113.037 66.6467 113.877 67.5334 114.39C68.1867 114.717 68.7934 114.997 69.3534 115.23C69.96 115.463 70.59 115.673 71.2434 115.86C71.9434 116.047 72.5034 116.187 72.9234 116.28C73.39 116.373 74.0434 116.49 74.8834 116.63C75.77 116.817 76.4 116.957 76.7734 117.05C77.0067 117.097 78.29 117.097 80.6234 117.05C82.9567 117.05 84.1934 117.027 84.3334 116.98C84.38 116.933 84.5667 116.98 84.8934 117.12C85.2667 117.26 85.5 117.283 85.5934 117.19C85.5934 117.05 85.5 116.933 85.3134 116.84C85.5934 116.747 85.92 116.7 86.2934 116.7C86.5267 116.7 86.41 116.887 85.9434 117.26C85.4767 117.68 85.22 118.007 85.1734 118.24C85.1734 118.52 84.87 118.707 84.2634 118.8C83.7034 118.94 82.9334 119.01 81.9534 119.01C81.02 119.057 80.46 119.08 80.2734 119.08L79.0134 119.36C78.22 119.593 77.5667 119.687 77.0534 119.64L74.2534 119.29C72.4334 119.057 70.9167 118.823 69.7034 118.59C68.5367 118.357 67.2067 117.913 65.7134 117.26C64.22 116.653 62.9834 115.86 62.0034 114.88C61.4434 114.32 60.8834 113.317 60.3234 111.87C59.81 110.377 59.6 109.21 59.6934 108.37C59.32 108.183 59.0634 108.09 58.9234 108.09C57.8034 108.09 56.5667 107.903 55.2134 107.53C53.9067 107.11 52.4834 106.573 50.9434 105.92C49.4034 105.267 48.3067 104.847 47.6534 104.66C46.6734 104.38 44.62 105.197 41.4934 107.11C40.8867 107.483 40.35 107.857 39.8834 108.23C39.4167 108.603 38.95 109.07 38.4834 109.63C38.0634 110.19 37.7367 110.61 37.5034 110.89C37.3167 111.17 36.9434 111.753 36.3834 112.64C35.87 113.527 35.52 114.11 35.3334 114.39ZM65.9234 103.54C64.8967 104.333 64.6634 104.73 65.2234 104.73C65.55 104.73 65.9934 104.637 66.5534 104.45C67.3 104.31 67.6034 103.983 67.4634 103.47C67.4167 103.19 67.23 103.05 66.9034 103.05C66.5767 103.05 66.25 103.213 65.9234 103.54ZM86.6434 118.45C86.3634 118.403 86.2934 118.263 86.4334 118.03H86.7834C86.7834 117.983 86.76 117.89 86.7134 117.75C86.6667 117.61 86.69 117.54 86.7834 117.54C86.83 117.54 86.9234 117.423 87.0634 117.19C87.25 117.003 87.4367 116.933 87.6234 116.98C88.37 117.307 88.4634 117.703 87.9034 118.17C87.53 118.45 87.11 118.543 86.6434 118.45ZM81.01 116.84C80.6367 116.373 80.52 115.93 80.66 115.51C80.7533 115.23 80.8467 115.067 80.94 115.02C81.08 114.927 81.29 114.903 81.57 114.95C81.85 114.95 82.06 114.927 82.2 114.88C83.4133 114.693 85.3267 114.063 87.94 112.99L88.57 112.78C88.99 112.687 89.34 112.57 89.62 112.43C89.9 112.29 90.04 112.15 90.04 112.01C90.04 111.59 89.7833 111.053 89.27 110.4C88.7567 109.747 88.1033 108.953 87.31 108.02C86.5167 107.04 85.91 106.107 85.49 105.22C85.3033 104.847 84.9533 104.287 84.44 103.54C83.9733 102.747 83.5767 102.047 83.25 101.44C82.97 100.787 82.7833 100.133 82.69 99.48C82.4567 97.9867 82.6667 96.96 83.32 96.4C83.5067 96.4 83.5533 96.1433 83.46 95.63C83.4133 95.1167 83.4133 94.79 83.46 94.65C83.6 94.1833 84.3933 93.67 85.84 93.11C87.2867 92.5033 88.2667 92.2467 88.78 92.34C90.8333 92.8067 92.2567 93.3433 93.05 93.95C93.8433 94.51 94.45 95.6767 94.87 97.45C95.1967 99.1767 95.15 99.9467 94.73 99.76C94.6833 99.76 94.6367 99.7367 94.59 99.69C94.5433 99.6433 94.52 99.5267 94.52 99.34C94.52 99.1067 94.4733 98.9433 94.38 98.85C94.2867 98.7567 94.17 98.71 94.03 98.71C93.89 98.71 93.7733 98.64 93.68 98.5C93.4933 98.0333 93.1667 97.3333 92.7 96.4C92.7 96.3533 92.63 96.3533 92.49 96.4C92.35 96.4467 92.2333 96.4 92.14 96.26C92.28 95.98 92.14 95.7 91.72 95.42C91.58 95.3267 91.44 95.35 91.3 95.49C91.16 95.63 91.0667 95.7 91.02 95.7C90.88 95.7467 90.6933 95.6767 90.46 95.49C90.2267 95.2567 90.04 95.1867 89.9 95.28C89.76 95.42 89.7367 95.56 89.83 95.7C89.9233 95.7933 90.1333 95.9333 90.46 96.12C90.74 96.3067 90.8333 96.4233 90.74 96.47C90.74 96.5633 90.6 96.5633 90.32 96.47C89.48 96.2367 88.7567 96.12 88.15 96.12C86.61 96.12 85.77 97.03 85.63 98.85C85.63 99.13 85.77 99.7133 86.05 100.6C86.33 101.44 86.54 101.93 86.68 102.07C87.0067 102.35 87.38 102.84 87.8 103.54C88.22 104.24 88.4533 104.613 88.5 104.66C89.0133 105.407 89.5733 106.107 90.18 106.76C91.8133 108.393 92.84 110.027 93.26 111.66C93.26 112.08 93.2833 112.36 93.33 112.5C93.4233 112.64 93.3767 112.873 93.19 113.2C93.05 113.527 92.9567 113.737 92.91 113.83C92.8633 113.877 92.7233 114.087 92.49 114.46C92.2567 114.787 92.0933 114.997 92 115.09C91.44 115.743 90.9033 116.117 90.39 116.21C90.25 116.21 89.97 116.163 89.55 116.07C89.1767 116.023 88.92 116.07 88.78 116.21C87.38 116.863 86.33 117.237 85.63 117.33C85.5367 117.19 85.49 117.097 85.49 117.05C85.5367 117.003 85.6067 116.91 85.7 116.77C85.84 116.63 85.9333 116.49 85.98 116.35C85.98 116.163 85.8633 116 85.63 115.86C85.63 116.467 85.1633 117.003 84.23 117.47C82.5033 117.703 81.43 117.493 81.01 116.84ZM83.53 96.75C83.2967 96.9833 83.25 97.24 83.39 97.52C83.5767 97.7533 83.7867 97.87 84.02 97.87C84.2533 97.87 84.37 97.6833 84.37 97.31C84.37 96.47 84.09 96.2833 83.53 96.75ZM107.569 114.39C105.889 114.39 104.279 113.923 102.739 112.99C101.246 112.01 100.499 110.727 100.499 109.14C100.499 106.34 102.692 103.05 107.079 99.27C107.172 99.1767 107.382 98.99 107.709 98.71C108.082 98.3833 108.409 98.1033 108.689 97.87C109.016 97.6367 109.389 97.3333 109.809 96.96C110.276 96.5867 110.672 96.3067 110.999 96.12C111.326 95.9333 111.699 95.7233 112.119 95.49C112.539 95.2567 112.842 95.1633 113.029 95.21C113.216 95.21 113.426 95.2567 113.659 95.35C114.266 95.91 114.592 96.7267 114.639 97.8C114.686 98.8267 114.312 99.3633 113.519 99.41C112.912 99.41 112.492 99.69 112.259 100.25C112.026 100.81 111.792 101.16 111.559 101.3C110.859 101.58 110.042 102.233 109.109 103.26C108.176 104.24 107.639 104.8 107.499 104.94C106.566 105.733 105.936 106.457 105.609 107.11C105.282 107.717 105.026 108.603 104.839 109.77C105.026 109.77 105.819 109.863 107.219 110.05C108.619 110.19 109.692 110.26 110.439 110.26C111.839 110.26 113.029 110.073 114.009 109.7C117.229 108.067 120.099 106.923 122.619 106.27C122.852 106.177 123.132 106.107 123.459 106.06C123.832 106.013 124.136 105.943 124.369 105.85C124.649 105.757 124.906 105.57 125.139 105.29C125.512 104.87 126.236 104.59 127.309 104.45C128.382 104.31 129.082 104.053 129.409 103.68C129.596 103.633 129.736 103.657 129.829 103.75C129.969 103.797 130.062 103.867 130.109 103.96C130.156 104.007 130.226 104.007 130.319 103.96C130.412 103.913 130.506 103.773 130.599 103.54C130.879 103.12 131.252 102.91 131.719 102.91C132.139 102.863 132.862 102.653 133.889 102.28C134.402 102.093 134.869 102.117 135.289 102.35C135.709 102.583 135.919 103.003 135.919 103.61C135.919 104.217 135.802 104.59 135.569 104.73C135.336 104.87 135.009 104.893 134.589 104.8C134.216 104.66 133.749 104.707 133.189 104.94C132.909 105.08 131.416 106.107 128.709 108.02C128.522 108.253 127.916 108.557 126.889 108.93C125.909 109.257 125.186 109.443 124.719 109.49C123.599 109.677 120.986 110.54 116.879 112.08C112.819 113.62 109.716 114.39 107.569 114.39ZM134.309 115.09C133.329 114.577 133.026 113.9 133.399 113.06C133.446 112.92 133.516 112.71 133.609 112.43C133.749 112.15 133.866 111.917 133.959 111.73C134.052 111.497 134.169 111.24 134.309 110.96C134.496 110.633 134.636 110.4 134.729 110.26C134.869 110.073 135.032 109.887 135.219 109.7C135.406 109.513 135.569 109.443 135.709 109.49C135.896 109.537 136.106 109.583 136.339 109.63C136.386 109.677 136.409 109.793 136.409 109.98C136.456 110.167 136.526 110.283 136.619 110.33C136.992 110.423 137.319 110.237 137.599 109.77C137.926 109.257 137.972 108.837 137.739 108.51C137.692 108.417 137.552 108.417 137.319 108.51C137.132 108.603 136.946 108.697 136.759 108.79C136.619 108.837 136.526 108.767 136.479 108.58C136.339 108.02 136.292 107.273 136.339 106.34C136.386 105.407 136.526 104.87 136.759 104.73C136.946 104.637 137.482 104.683 138.369 104.87C138.649 104.917 139.279 104.73 140.259 104.31C141.286 103.89 141.869 103.563 142.009 103.33C142.056 103.283 142.312 102.933 142.779 102.28C143.246 101.58 143.689 100.95 144.109 100.39C144.576 99.7833 144.856 99.4567 144.949 99.41C145.322 99.1767 145.789 99.06 146.349 99.06C147.096 99.06 147.726 99.2933 148.239 99.76C148.892 100.367 149.756 100.67 150.829 100.67C151.529 100.67 152.509 100.507 153.769 100.18C155.076 99.8533 155.869 99.6667 156.149 99.62C158.762 99.2467 160.326 99.06 160.839 99.06C162.332 99.06 163.662 99.41 164.829 100.11C165.996 100.81 166.579 101.86 166.579 103.26C166.579 103.82 166.462 104.45 166.229 105.15C165.996 105.803 165.762 106.34 165.529 106.76C165.342 107.18 165.062 107.67 164.689 108.23C164.362 108.743 164.199 109.023 164.199 109.07C163.919 109.63 163.639 110.447 163.359 111.52C163.079 112.547 162.892 113.177 162.799 113.41C162.706 113.643 162.636 113.993 162.589 114.46C162.589 114.88 162.472 115.207 162.239 115.44C161.959 115.533 161.702 115.557 161.469 115.51C161.236 115.463 160.862 115.37 160.349 115.23C159.836 115.043 159.509 114.927 159.369 114.88C159.089 114.833 158.902 114.693 158.809 114.46C158.762 114.18 158.786 113.877 158.879 113.55C159.019 113.177 159.159 112.803 159.299 112.43C159.486 112.057 159.672 111.66 159.859 111.24C160.046 110.82 160.162 110.47 160.209 110.19C160.256 110.05 160.466 109.42 160.839 108.3C162.146 104.427 162.589 102.49 162.169 102.49C162.122 102.49 162.076 102.513 162.029 102.56C161.656 102.793 160.979 102.98 159.999 103.12C159.066 103.213 158.389 103.167 157.969 102.98C157.456 102.793 156.872 102.7 156.219 102.7C155.566 102.7 154.539 102.863 153.139 103.19C151.739 103.517 150.689 103.68 149.989 103.68C149.336 103.68 148.659 103.54 147.959 103.26L146.209 102.56C145.976 102.56 145.812 102.677 145.719 102.91C145.579 103.517 145.019 104.45 144.039 105.71C143.059 106.97 142.289 107.787 141.729 108.16C141.122 108.627 140.586 109.49 140.119 110.75C139.652 112.01 139.232 112.827 138.859 113.2C138.766 113.293 138.532 113.62 138.159 114.18C137.832 114.693 137.529 115.09 137.249 115.37C136.969 115.65 136.712 115.72 136.479 115.58C136.386 115.533 136.362 115.44 136.409 115.3C136.456 115.113 136.432 115.02 136.339 115.02C136.059 114.973 135.709 115.043 135.289 115.23C134.869 115.37 134.542 115.323 134.309 115.09ZM171.899 80.3C171.666 80.02 171.339 79.9733 170.919 80.16C170.499 80.3467 170.242 80.2067 170.149 79.74C170.009 79.32 170.172 78.8533 170.639 78.34C170.826 78.2 170.966 78.06 171.059 77.92C171.199 77.7333 171.269 77.6167 171.269 77.57C171.316 77.4767 171.386 77.4067 171.479 77.36C171.572 77.3133 171.689 77.3133 171.829 77.36C172.016 77.36 172.296 77.4067 172.669 77.5C173.742 77.78 174.139 78.2467 173.859 78.9C173.719 79.32 173.626 80.0433 173.579 81.07C173.579 82.05 173.486 82.7033 173.299 83.03C173.206 83.17 173.112 83.24 173.019 83.24C172.879 83.24 172.692 83.03 172.459 82.61C172.226 82.19 172.039 81.9333 171.899 81.84C171.759 81.7467 171.502 81.7 171.129 81.7C170.802 81.7 170.499 81.6533 170.219 81.56C169.986 81.4667 169.869 81.28 169.869 81C169.916 80.86 170.056 80.8367 170.289 80.93C170.522 80.9767 170.802 81.0467 171.129 81.14C171.456 81.2333 171.666 81.2333 171.759 81.14C172.132 80.8133 172.179 80.5333 171.899 80.3ZM120.029 93.74C119.889 93.5533 119.166 93.4367 117.859 93.39C117.346 93.39 117.066 93.2733 117.019 93.04C117.019 92.9467 117.089 92.7833 117.229 92.55C117.929 91.85 118.536 91.64 119.049 91.92C119.189 92.0133 119.399 92.34 119.679 92.9C119.772 93.1333 119.866 93.2733 119.959 93.32C120.099 93.3667 120.262 93.3667 120.449 93.32C120.682 93.2267 120.846 93.18 120.939 93.18C121.172 93.18 121.406 93.2967 121.639 93.53C122.106 93.95 122.432 94.8133 122.619 96.12C122.619 96.7733 122.456 97.03 122.129 96.89C122.082 96.8433 121.616 96.7033 120.729 96.47C119.889 96.2367 119.376 96.0033 119.189 95.77C118.862 95.35 118.979 94.9767 119.539 94.65C120.099 94.3233 120.262 94.02 120.029 93.74ZM136.619 103.26C135.826 102.093 135.919 101.51 136.899 101.51C137.832 101.51 138.462 101.79 138.789 102.35C138.929 102.583 138.882 102.817 138.649 103.05C138.509 103.19 138.159 103.307 137.599 103.4C137.039 103.447 136.712 103.4 136.619 103.26ZM168.819 83.45C168.586 83.1233 168.516 82.8433 168.609 82.61C168.749 82.33 168.959 82.19 169.239 82.19C169.426 82.19 169.636 82.26 169.869 82.4C169.822 82.4 169.892 82.47 170.079 82.61C171.946 84.3367 172.062 85.1067 170.429 84.92C170.196 84.6867 170.102 84.5 170.149 84.36C170.149 84.22 170.056 84.1033 169.869 84.01C169.682 83.87 169.472 83.7533 169.239 83.66C169.006 83.5667 168.866 83.4967 168.819 83.45ZM115.829 95C115.549 95.3267 115.269 95.49 114.989 95.49C114.709 95.49 114.452 95.3733 114.219 95.14C114.032 94.86 114.056 94.5333 114.289 94.16C114.616 93.7867 115.012 93.46 115.479 93.18C115.946 92.9 116.296 92.8767 116.529 93.11C116.809 93.2967 116.809 93.4133 116.529 93.46C116.296 93.46 116.202 93.6233 116.249 93.95C116.296 94.2767 116.156 94.6267 115.829 95ZM117.229 94.86C116.902 94.86 116.739 94.6967 116.739 94.37C116.739 93.9967 116.902 93.81 117.229 93.81C117.509 93.81 117.696 93.9033 117.789 94.09C117.882 94.23 117.859 94.3933 117.719 94.58C117.626 94.7667 117.462 94.86 117.229 94.86ZM165.104 139.31C164.917 138.563 164.847 137.77 164.894 136.93C164.94 136.277 164.987 135.343 165.034 134.13C165.034 132.963 165.034 132.17 165.034 131.75C165.034 131.517 165.174 131.19 165.454 130.77C165.734 130.35 165.897 130.047 165.944 129.86C165.99 129.627 166.084 129.487 166.224 129.44C166.364 129.44 166.48 129.417 166.574 129.37C166.62 129.37 166.62 129.277 166.574 129.09C166.34 128.25 166.34 127.667 166.574 127.34C167.04 126.967 167.227 126.64 167.134 126.36C167.087 126.08 167.157 125.893 167.344 125.8C167.53 125.753 167.624 125.613 167.624 125.38C167.624 125.287 167.6 125.147 167.554 124.96C167.507 124.773 167.507 124.61 167.554 124.47C167.554 124.33 167.624 124.213 167.764 124.12C167.95 124.027 168.09 123.84 168.184 123.56C168.23 123.28 168.277 123.093 168.324 123C168.417 122.767 168.534 122.627 168.674 122.58C168.814 122.533 168.93 122.487 169.024 122.44C169.49 122.207 169.724 121.927 169.724 121.6C169.724 121.133 170.167 120.177 171.054 118.73C171.94 117.283 172.43 116.443 172.524 116.21C172.757 115.463 173.06 114.74 173.434 114.04C173.854 113.34 174.204 112.803 174.484 112.43C174.764 112.01 175.207 111.403 175.814 110.61C176.42 109.817 176.864 109.233 177.144 108.86C177.984 107.693 178.357 106.667 178.264 105.78C178.124 104.333 178.31 103.493 178.824 103.26C179.15 103.12 179.29 102.84 179.244 102.42C179.197 102.233 179.197 102.093 179.244 102C179.29 101.907 179.337 101.883 179.384 101.93C179.477 101.93 179.547 101.93 179.594 101.93C179.64 101.883 179.64 101.79 179.594 101.65C179.5 101.417 179.267 101.23 178.894 101.09C178.52 100.903 178.194 100.74 177.914 100.6C177.68 100.46 177.634 100.25 177.774 99.97C177.867 99.7367 178.45 99.62 179.524 99.62C179.804 99.62 179.99 99.5967 180.084 99.55C180.224 99.4567 180.247 99.3167 180.154 99.13C180.107 99.0367 179.967 98.9667 179.734 98.92C179.547 98.8733 179.384 98.85 179.244 98.85C179.15 98.8033 179.127 98.71 179.174 98.57C179.22 98.43 179.384 98.2667 179.664 98.08C179.944 97.8467 180.154 97.8 180.294 97.94L181.134 98.71C181.227 98.85 181.204 98.99 181.064 99.13C180.97 99.2233 180.854 99.3167 180.714 99.41C180.574 99.4567 180.527 99.5033 180.574 99.55C180.667 99.6433 180.83 99.7367 181.064 99.83C181.297 99.9233 181.437 100.017 181.484 100.11C181.53 100.157 181.484 100.367 181.344 100.74C181.017 101.487 180.854 101.883 180.854 101.93C180.854 102.443 180.9 102.747 180.994 102.84C181.18 102.98 181.18 103.12 180.994 103.26C180.807 103.4 180.76 103.517 180.854 103.61C180.994 103.797 181.204 103.89 181.484 103.89C182.837 103.89 185.31 102.093 188.904 98.5C190.164 97.1467 191.75 96.6333 193.664 96.96C194.877 97.1467 196.114 97.87 197.374 99.13C198.634 100.343 199.264 101.51 199.264 102.63C199.264 102.863 199.287 103.283 199.334 103.89C199.427 104.497 199.45 105.033 199.404 105.5C199.404 105.92 199.334 106.27 199.194 106.55C199.054 106.83 198.797 107.11 198.424 107.39C198.097 107.623 197.864 107.81 197.724 107.95C197.584 108.09 197.49 108.277 197.444 108.51C197.397 108.743 197.35 108.93 197.304 109.07C197.304 109.21 197.28 109.28 197.234 109.28C197.187 109.28 197.094 109.187 196.954 109C196.907 108.907 196.93 108.697 197.024 108.37C197.117 108.043 197.094 107.88 196.954 107.88C196.814 107.833 196.58 107.95 196.254 108.23C195.927 108.51 195.694 108.65 195.554 108.65C195.367 108.65 195.25 108.58 195.204 108.44C195.017 108.16 194.854 108.02 194.714 108.02C194.574 108.02 194.41 108.067 194.224 108.16C194.037 108.253 193.874 108.3 193.734 108.3C193.547 108.253 193.384 108.09 193.244 107.81C193.104 107.53 193.08 107.32 193.174 107.18C193.267 106.947 193.85 106.597 194.924 106.13C195.997 105.617 196.58 105.057 196.674 104.45C196.58 103.377 196.394 102.49 196.114 101.79L195.484 100.53L195.134 99.9L194.504 99.97C194.317 100.017 193.477 100.11 191.984 100.25C189.977 100.53 188.577 101.137 187.784 102.07C187.83 102.117 187.644 102.327 187.224 102.7C186.85 103.073 186.36 103.54 185.754 104.1C185.194 104.613 184.68 105.033 184.214 105.36C184.12 105.453 183.794 105.733 183.234 106.2C182.674 106.62 182.254 106.947 181.974 107.18C182.067 107.273 182.02 107.53 181.834 107.95C181.694 108.323 181.53 108.79 181.344 109.35C181.157 109.863 181.087 110.26 181.134 110.54C179.874 116.747 178.544 121.483 177.144 124.75C176.91 125.31 176.444 126.407 175.744 128.04C175.09 129.673 174.484 131.05 173.924 132.17C173.364 133.337 172.804 134.223 172.244 134.83C171.917 135.203 171.614 135.6 171.334 136.02C171.054 136.44 170.774 136.907 170.494 137.42C170.214 137.98 169.957 138.423 169.724 138.75C169.024 139.777 168.37 140.267 167.764 140.22C167.81 140.36 167.787 140.453 167.694 140.5C167.554 140.593 167.39 140.64 167.204 140.64C166.597 140.64 166.2 140.5 166.014 140.22C165.92 140.127 165.78 140.033 165.594 139.94C165.36 139.893 165.197 139.683 165.104 139.31ZM168.884 129.3C168.184 128.833 167.624 128.763 167.204 129.09C166.737 129.417 166.97 129.93 167.904 130.63C168.23 130.863 168.37 130.957 168.324 130.91C168.37 130.957 168.3 131.05 168.114 131.19C167.927 131.33 167.67 131.563 167.344 131.89C167.204 132.03 167.297 132.217 167.624 132.45C167.904 132.73 167.974 133.057 167.834 133.43C167.6 134.037 167.624 134.387 167.904 134.48C168.044 134.527 168.16 134.503 168.254 134.41C168.3 134.363 168.347 134.247 168.394 134.06C168.44 133.873 168.487 133.733 168.534 133.64C168.627 133.5 169.024 132.777 169.724 131.47C170.424 130.21 170.914 129.183 171.194 128.39C171.287 128.063 171.427 127.783 171.614 127.55C171.754 127.317 171.94 127.06 172.174 126.78C172.407 126.547 172.594 126.337 172.734 126.15C172.967 125.87 173.107 125.38 173.154 124.68C173.247 124.027 173.294 123.653 173.294 123.56C173.527 122.767 173.994 121.647 174.694 120.2C175.394 118.8 175.86 117.75 176.094 117.05C176.42 115.977 176.7 114.81 176.934 113.55C177.074 112.71 177.027 112.313 176.794 112.36L176.654 112.5C176.42 113.06 176.047 113.69 175.534 114.39C175.44 114.53 175.3 114.6 175.114 114.6C174.974 114.553 174.81 114.577 174.624 114.67C174.39 114.81 174.6 115.043 175.254 115.37C175.767 115.65 175.86 115.86 175.534 116C174.927 116.373 174.53 116.49 174.344 116.35C173.69 115.837 173.317 115.58 173.224 115.58C173.177 115.58 173.13 115.673 173.084 115.86C173.084 116 173.037 116.303 172.944 116.77C172.897 117.283 172.804 117.797 172.664 118.31C172.664 118.357 172.71 118.427 172.804 118.52C172.897 118.613 172.967 118.683 173.014 118.73C173.06 118.823 173.037 118.917 172.944 119.01C172.85 119.057 172.57 119.033 172.104 118.94C171.684 118.893 171.45 118.94 171.404 119.08C171.17 119.453 171.287 119.757 171.754 119.99C172.174 120.27 172.337 120.48 172.244 120.62C172.197 120.713 172.174 120.9 172.174 121.18C172.127 121.46 172.057 121.6 171.964 121.6C171.637 121.413 171.334 121.32 171.054 121.32C170.634 121.32 170.33 121.507 170.144 121.88C169.91 122.3 169.864 122.837 170.004 123.49C170.05 123.677 170.05 123.91 170.004 124.19C169.957 124.47 169.887 124.727 169.794 124.96C169.654 125.193 169.49 125.287 169.304 125.24C169.21 125.24 169.14 125.193 169.094 125.1C169.047 125.007 168.977 124.96 168.884 124.96C168.277 124.96 167.95 125.217 167.904 125.73C167.81 126.243 168.044 126.64 168.604 126.92C169.164 127.2 169.117 127.387 168.464 127.48C168.277 127.527 168.44 127.713 168.954 128.04C169.14 128.133 169.257 128.203 169.304 128.25C169.49 128.39 169.56 128.553 169.514 128.74C169.467 128.927 169.374 129.067 169.234 129.16C169.094 129.3 168.977 129.347 168.884 129.3ZM185.474 111.87C184.447 111.823 183.514 111.45 182.674 110.75C182.3 110.47 182.207 110.237 182.394 110.05C183.234 109.07 183.77 108.3 184.004 107.74C184.284 107.74 184.47 107.763 184.564 107.81C184.657 107.81 184.774 107.88 184.914 108.02C185.054 108.113 185.17 108.207 185.264 108.3C185.637 108.533 186.477 108.533 187.784 108.3C189.09 108.02 189.954 107.903 190.374 107.95C191.587 108.183 192.66 108.533 193.594 109C193.874 109.14 193.99 109.327 193.944 109.56C193.897 109.747 193.874 109.887 193.874 109.98C193.5 109.887 193.127 109.887 192.754 109.98C193.127 110.633 192.964 110.983 192.264 111.03C192.124 111.03 191.82 111.17 191.354 111.45C190.934 111.73 190.584 111.847 190.304 111.8C189.837 111.707 188.997 111.707 187.784 111.8C186.617 111.847 185.847 111.87 185.474 111.87ZM207.124 117.4C206.61 117.4 206.19 117.027 205.864 116.28C205.537 115.533 205.817 113.923 206.704 111.45C207.59 108.977 208.36 107.18 209.014 106.06C211.394 101.907 212.584 99.7833 212.584 99.69C211.417 99.69 209.924 99.4567 208.104 98.99C206.284 98.4767 205.467 97.7067 205.654 96.68L205.934 95.35C206.12 94.37 206.96 93.88 208.454 93.88C209.107 93.88 209.737 94.1367 210.344 94.65C210.577 94.8833 210.554 95.14 210.274 95.42C209.994 95.6533 209.877 95.8167 209.924 95.91C210.344 96.4233 210.974 96.68 211.814 96.68C212.7 96.68 213.68 96.4233 214.754 95.91C215.874 95.3967 216.62 94.8833 216.994 94.37C217.18 94.1367 217.787 93.2267 218.814 91.64C219.887 90.0067 220.657 88.84 221.124 88.14C221.637 87.44 222.36 86.46 223.294 85.2C224.227 83.94 225.067 82.89 225.814 82.05C226.607 81.1633 227.4 80.3933 228.194 79.74C229.034 79.04 229.92 77.78 230.854 75.96C231.787 74.0933 232.58 72.9033 233.234 72.39C233.327 72.67 233.724 72.9267 234.424 73.16C235.17 73.3467 235.45 73.6967 235.264 74.21C235.217 74.3033 235.03 74.8867 234.704 75.96C234.377 77.0333 233.934 78.06 233.374 79.04C232.86 80.02 232.16 80.86 231.274 81.56C229.08 83.1933 226.35 86.7867 223.084 92.34C221.59 94.58 220.634 95.8867 220.214 96.26C222.22 96.26 224.157 96.5167 226.024 97.03C227.89 97.5433 229.594 98.4767 231.134 99.83C232.72 101.183 233.654 102.84 233.934 104.8C234.12 106.293 233.934 108.417 233.374 111.17C232.814 113.923 232.114 115.813 231.274 116.84C231.18 116.933 231.017 117.05 230.784 117.19C230.597 117.377 230.434 117.54 230.294 117.68C230.154 117.82 230.084 118.007 230.084 118.24C228.684 118.007 227.984 117.213 227.984 115.86C227.984 115.113 228.31 113.9 228.964 112.22C229.664 110.493 230.014 109.35 230.014 108.79C230.014 108.37 230.037 107.88 230.084 107.32C230.13 106.713 230.154 106.293 230.154 106.06C230.154 104.193 229.057 102.677 226.864 101.51C224.67 100.297 222.547 99.69 220.494 99.69C218.44 99.69 216.97 100.227 216.084 101.3C215.244 102.233 214.287 103.703 213.214 105.71C212.14 107.717 211.557 108.79 211.464 108.93C211.464 108.977 211.137 109.49 210.484 110.47C209.83 111.403 209.34 112.197 209.014 112.85C208.687 113.457 208.5 113.97 208.454 114.39C208.454 114.763 208.547 115.02 208.734 115.16C208.92 115.3 209.084 115.37 209.224 115.37C209.364 115.37 209.364 115.533 209.224 115.86C208.617 116.887 207.917 117.4 207.124 117.4ZM249.124 77.78C249.124 77.1733 249.66 76.7067 250.734 76.38C251.807 76.0067 252.647 75.9133 253.254 76.1C253.86 76.2867 254.35 76.87 254.724 77.85C255.144 78.83 254.98 79.5533 254.234 80.02C253.58 80.3467 252.554 80.2533 251.154 79.74C249.8 79.18 249.124 78.5267 249.124 77.78ZM236.384 70.71C236.244 71.3633 235.987 71.69 235.614 71.69C234.96 71.69 234.587 71.13 234.494 70.01C234.54 70.01 234.657 69.9633 234.844 69.87C235.03 69.7767 235.17 69.73 235.264 69.73C235.59 69.73 235.87 69.8233 236.104 70.01C236.337 70.1967 236.43 70.43 236.384 70.71ZM246.017 110.47C244.617 109.443 243.917 108.16 243.917 106.62C243.917 104.52 244.944 102.233 246.997 99.76C249.05 97.24 251.057 95.7 253.017 95.14C253.157 95.0933 253.95 94.7667 255.397 94.16C256.89 93.5067 258.01 93.18 258.757 93.18C259.784 93.18 260.46 93.6467 260.787 94.58C259.294 95.8867 257.987 96.54 256.867 96.54C256.634 96.54 256.377 96.5167 256.097 96.47C255.817 96.4233 255.584 96.4 255.397 96.4C255.257 96.3533 255.07 96.3767 254.837 96.47C254.604 96.5167 254.37 96.61 254.137 96.75C253.997 96.9367 253.974 97.1 254.067 97.24C254.207 97.3333 254.394 97.52 254.627 97.8C254.907 98.0333 255.07 98.2433 255.117 98.43C254.884 98.5233 254.627 98.71 254.347 98.99C254.114 99.2233 253.904 99.3633 253.717 99.41C252.83 99.83 251.594 100.857 250.007 102.49C248.467 104.077 247.697 105.36 247.697 106.34C247.697 107.367 248.584 107.88 250.357 107.88C251.01 107.693 251.524 107.53 251.897 107.39C252.317 107.25 252.714 107.087 253.087 106.9C253.46 106.667 253.717 106.503 253.857 106.41C254.044 106.317 254.37 106.083 254.837 105.71C255.304 105.29 255.677 104.987 255.957 104.8C256.517 104.333 256.914 103.563 257.147 102.49C257.38 101.37 257.567 100.67 257.707 100.39C258.874 98.1033 260.624 97.0533 262.957 97.24C263.424 97.2867 263.75 97.4733 263.937 97.8C264.17 98.08 264.287 98.4067 264.287 98.78C264.287 99.1067 264.357 99.41 264.497 99.69C264.637 99.9233 264.87 100.04 265.197 100.04C265.804 100.04 266.854 99.7133 268.347 99.06C269.887 98.4067 270.914 98.1033 271.427 98.15C272.78 98.3367 274.694 98.2433 277.167 97.87C279.687 97.45 281.46 97.24 282.487 97.24C285.847 97.24 287.76 98.01 288.227 99.55C288.414 100.343 288.46 100.95 288.367 101.37C288.32 101.79 288.204 102.233 288.017 102.7C287.877 103.167 287.807 103.447 287.807 103.54C292.894 101.067 297.724 99.8767 302.297 99.97C304.77 100.017 306.45 100.577 307.337 101.65C308.224 102.677 308.667 104.403 308.667 106.83C308.667 107.997 308.527 108.86 308.247 109.42C308.154 109.56 308.06 109.91 307.967 110.47C307.874 111.03 307.734 111.38 307.547 111.52C306.987 111.847 306.66 112.267 306.567 112.78C306.474 113.107 306.637 113.69 307.057 114.53C307.477 115.37 307.804 116.023 308.037 116.49C308.317 117.003 308.317 117.377 308.037 117.61C307.57 117.75 306.73 117.19 305.517 115.93C304.304 114.623 303.744 113.783 303.837 113.41L303.697 111.52C303.744 111.287 303.907 110.82 304.187 110.12C304.514 109.42 304.794 108.697 305.027 107.95C305.26 107.203 305.377 106.527 305.377 105.92C305.377 103.96 304 102.98 301.247 102.98C300.174 102.98 298.96 103.167 297.607 103.54C296.3 103.913 294.924 104.38 293.477 104.94C292.03 105.5 291.004 105.85 290.397 105.99C289.79 106.177 288.997 106.527 288.017 107.04C287.084 107.553 286.477 108.02 286.197 108.44C285.637 109.327 285.194 109.98 284.867 110.4C284.54 110.773 284.33 111.03 284.237 111.17C284.19 111.263 283.957 111.287 283.537 111.24C283.117 111.193 282.884 111.17 282.837 111.17C281.53 111.217 281.18 110.213 281.787 108.16C282.02 107.507 282.557 106.13 283.397 104.03C283.444 103.89 283.607 103.61 283.887 103.19C284.167 102.77 284.377 102.42 284.517 102.14C284.704 101.86 284.75 101.557 284.657 101.23C284.61 100.857 284.377 100.577 283.957 100.39C283.537 100.297 282.977 100.273 282.277 100.32C281.624 100.367 280.55 100.437 279.057 100.53C277.564 100.577 276.397 100.6 275.557 100.6C274.064 100.6 273.13 100.483 272.757 100.25C272.524 100.203 272.337 100.203 272.197 100.25C272.057 100.297 271.964 100.343 271.917 100.39C271.917 100.39 271.87 100.46 271.777 100.6C271.684 100.693 271.59 100.787 271.497 100.88C271.45 100.927 270.47 101.3 268.557 102C266.69 102.653 264.684 103.447 262.537 104.38C260.39 105.313 259.014 106.13 258.407 106.83C255.654 110.143 252.854 111.8 250.007 111.8C248.7 111.8 247.37 111.357 246.017 110.47ZM258.197 106.62C258.057 106.06 257.73 105.78 257.217 105.78C256.704 105.78 256.214 106.037 255.747 106.55C255.327 107.063 255.28 107.483 255.607 107.81C255.84 107.997 256.097 108.09 256.377 108.09C256.704 108.09 257.054 107.857 257.427 107.39C257.847 106.923 258.104 106.667 258.197 106.62ZM262.957 102C262.864 102.14 262.957 102.327 263.237 102.56C263.564 102.793 263.82 102.91 264.007 102.91L265.617 102.35C264.73 101.977 264.054 101.79 263.587 101.79C263.307 101.79 263.097 101.86 262.957 102ZM321.821 115.51C321.028 115.137 321.121 114.483 322.101 113.55C323.081 112.617 323.875 112.337 324.481 112.71C324.761 112.897 325.205 112.85 325.811 112.57C326.465 112.29 326.838 112.15 326.931 112.15C327.491 112.057 328.215 112.173 329.101 112.5C329.988 112.827 330.548 113.013 330.781 113.06C330.968 113.107 331.131 113.293 331.271 113.62C331.411 113.947 331.528 114.343 331.621 114.81C331.715 115.23 331.808 115.51 331.901 115.65C332.321 116.443 332.368 117.12 332.041 117.68C331.761 118.24 331.318 118.52 330.711 118.52C330.011 118.52 329.498 118.1 329.171 117.26C329.078 116.98 328.541 116.77 327.561 116.63C326.581 116.537 325.765 116.583 325.111 116.77C324.878 116.817 324.575 117.027 324.201 117.4C323.875 117.82 323.618 118.03 323.431 118.03C323.105 118.03 322.801 117.797 322.521 117.33C322.381 117.097 322.335 116.887 322.381 116.7C322.428 116.513 322.428 116.303 322.381 116.07C322.335 115.837 322.148 115.65 321.821 115.51Z" fill="#99D3AC"/>
<path d="M17.5 178H3.5V142.1H17.5C28.85 142.1 36 149.4 36 159.85C36 170.3 28.6 178 17.5 178ZM12.95 150.25V169.85H16.95C23.2 169.85 26.3 166.6 26.3 159.85C26.3 153.5 23.1 150.25 16.95 150.25H12.95ZM50.3523 178H40.9023V142.1H50.3523V178ZM86.1074 166.25C86.1074 173.65 80.2074 178.5 70.8574 178.5C61.5074 178.5 55.5074 173.55 54.8574 165.6H64.4074C64.5074 169 66.7574 171.15 70.6574 171.15C73.9074 171.15 76.0574 169.9 76.0574 167.65C76.0574 166.1 74.5074 164.95 72.4074 164.55L65.8574 163.3C60.1074 162.2 56.3074 158.85 56.3074 153.05C56.3074 146.35 62.2074 141.65 70.2574 141.65C78.8074 141.65 84.9574 146.55 85.5074 154.3H75.9574C75.7074 151.05 73.5074 148.95 70.3574 148.95C67.5574 148.95 65.8574 150.45 65.8574 152.4C65.8574 154 67.4574 154.95 69.3574 155.3L76.3074 156.65C82.7074 157.9 86.1074 161.05 86.1074 166.25ZM106.125 178.75C95.9246 178.75 87.8746 170.55 87.8746 160C87.8746 149.5 95.9246 141.35 106.125 141.35C115.975 141.35 123.575 147.9 124.725 157.4H114.725C113.975 152.9 110.625 149.8 106.225 149.8C100.925 149.8 97.5746 153.9 97.5746 160C97.5746 166.15 100.925 170.3 106.225 170.3C110.575 170.3 113.925 167.2 114.725 162.65H124.725C123.525 172.25 115.975 178.75 106.125 178.75ZM139.073 178H129.623V142.1H139.073V155.45H152.323V142.1H161.773V178H152.323V163.65H139.073V178ZM192.183 178L189.983 171.35H177.383L175.133 178H165.583L178.883 142.1H189.233L202.383 178H192.183ZM183.783 152.5L179.933 163.9H187.533L183.783 152.5ZM215.636 178H206.186V142.1H220.886C230.586 142.1 236.136 146.45 236.136 154.1C236.136 158.7 233.386 162.5 228.536 164.55L237.336 178H226.086L218.736 166.05H215.636V178ZM215.636 149.9V158.25H220.486C224.686 158.25 226.636 156.95 226.636 154.1C226.636 151.25 224.686 149.9 220.486 149.9H215.636ZM258.136 178.75C247.686 178.75 239.486 171.05 239.486 159.85C239.486 149.25 247.286 141.35 257.836 141.35C266.836 141.35 273.486 146.55 275.986 154.6H264.786C263.886 151.85 261.236 149.8 257.586 149.8C252.936 149.8 249.186 153.05 249.186 160.1C249.186 166.1 252.136 170.75 258.636 170.75C262.736 170.75 265.286 168.45 266.336 165.45H257.686V158H276.436C277.186 169.85 270.036 178.75 258.136 178.75ZM306.781 169.8V178H281.381V142.1H306.431V150.3H290.831V155.45H304.981V163.65H290.831V169.8H306.781ZM336.641 167.05H332.091V178H322.641V142.1H336.641C346.041 142.1 351.691 146.3 351.691 154.35C351.691 162.45 346.041 167.05 336.641 167.05ZM336.591 150.05H332.091V159.1H336.591C340.341 159.1 342.291 157.2 342.291 154.45C342.291 151.65 340.341 150.05 336.591 150.05ZM377.388 178L375.188 171.35H362.588L360.338 178H350.788L364.088 142.1H374.438L387.588 178H377.388ZM368.988 152.5L365.138 163.9H372.738L368.988 152.5ZM405.391 167.05H400.841V178H391.391V142.1H405.391C414.791 142.1 420.441 146.3 420.441 154.35C420.441 162.45 414.791 167.05 405.391 167.05ZM405.341 150.05H400.841V159.1H405.341C409.091 159.1 411.041 157.2 411.041 154.45C411.041 151.65 409.091 150.05 405.341 150.05ZM450.629 169.8V178H425.229V142.1H450.279V150.3H434.679V155.45H448.829V163.65H434.679V169.8H450.629ZM465.489 178H456.039V142.1H470.739C480.439 142.1 485.989 146.45 485.989 154.1C485.989 158.7 483.239 162.5 478.389 164.55L487.189 178H475.939L468.589 166.05H465.489V178ZM465.489 149.9V158.25H470.339C474.539 158.25 476.489 156.95 476.489 154.1C476.489 151.25 474.539 149.9 470.339 149.9H465.489ZM520.189 166.25C520.189 173.65 514.289 178.5 504.939 178.5C495.589 178.5 489.589 173.55 488.939 165.6H498.489C498.589 169 500.839 171.15 504.739 171.15C507.989 171.15 510.139 169.9 510.139 167.65C510.139 166.1 508.589 164.95 506.489 164.55L499.939 163.3C494.189 162.2 490.389 158.85 490.389 153.05C490.389 146.35 496.289 141.65 504.339 141.65C512.889 141.65 519.039 146.55 519.589 154.3H510.039C509.789 151.05 507.589 148.95 504.439 148.95C501.639 148.95 499.939 150.45 499.939 152.4C499.939 154 501.539 154.95 503.439 155.3L510.389 156.65C516.789 157.9 520.189 161.05 520.189 166.25ZM533.583 172.8C533.583 176 531.383 178.25 528.183 178.25C524.983 178.25 522.733 176 522.733 172.8C522.733 169.55 524.983 167.3 528.183 167.3C531.383 167.3 533.583 169.55 533.583 172.8Z" fill="#99D3AC"/>
<path d="M342.625 82.5296C342.81 82.5885 342.965 82.7169 343.058 82.8879C343.15 83.0589 343.173 83.259 343.12 83.4462C343.068 83.6333 342.945 83.7929 342.778 83.8913C342.61 83.9896 342.411 84.0191 342.222 83.9734L336.773 82.4516C336.582 82.3981 336.42 82.2707 336.322 82.0975C336.225 81.9244 336.2 81.7196 336.253 81.5281L337.775 76.0798C337.834 75.8946 337.962 75.7394 338.133 75.6471C338.304 75.5547 338.504 75.5323 338.692 75.5846C338.879 75.6368 339.038 75.7597 339.137 75.9273C339.235 76.0949 339.264 76.2942 339.219 76.4831L338.184 80.1879L342.924 77.5179C344.62 76.5623 345.697 75.6744 346.364 74.7302C347.02 73.8032 347.323 72.7638 347.358 71.4206C347.361 71.3221 347.383 71.225 347.423 71.1351C347.463 71.0451 347.52 70.9639 347.592 70.8961C347.664 70.8284 347.748 70.7754 347.84 70.7402C347.932 70.705 348.03 70.6882 348.128 70.6909C348.227 70.6936 348.324 70.7157 348.414 70.7558C348.504 70.796 348.585 70.8535 348.653 70.9251C348.721 70.9966 348.774 71.0808 348.809 71.1729C348.844 71.2649 348.861 71.363 348.858 71.4615C348.815 73.0317 348.451 74.3764 347.59 75.5961C346.741 76.7978 345.449 77.8171 343.66 78.8248L338.92 81.4948L342.625 82.5296Z" fill="#F4BB94"/>
<path d="M337.645 50.4866C338.113 50.4093 338.381 50.5022 338.45 50.7653C338.464 50.8488 338.41 51.5096 338.289 52.7478C338.289 52.7478 338.209 53.4858 338.05 54.9619C338.004 55.4585 337.971 56.2746 337.953 57.4099C337.942 58.5355 337.907 59.5707 337.849 60.5154C337.613 64.2774 337.152 66.9656 336.466 68.5801C336.263 69.0599 335.989 69.534 335.646 70.0024C334.885 71.0547 334.116 71.645 333.34 71.7733C332.972 71.834 332.774 71.7767 332.745 71.6014C332.742 71.5332 332.849 71.4512 333.065 71.3555C333.282 71.2682 333.512 71.1272 333.754 70.9328C334.431 70.3577 334.901 69.6452 335.164 68.7954C336.291 65.8555 336.786 61.7933 336.65 56.6088C336.53 57.392 336.194 58.4469 335.641 59.7735C335.096 61.0905 334.505 61.8014 333.871 61.9062C333.528 61.9628 333.305 61.6481 333.2 60.962C332.87 58.8118 333.105 55.6634 333.904 51.5167C333.936 51.3484 333.968 51.2058 334 51.089C334.081 50.8011 334.193 50.6454 334.335 50.6219C334.485 50.5971 334.617 50.5882 334.729 50.5953C335.179 50.6154 335.429 50.7542 335.48 51.0117C335.49 51.0701 335.465 51.2844 335.406 51.6544L335.088 53.547C334.578 56.5308 334.321 58.6064 334.316 59.7738C334.74 58.8116 335.287 57.263 335.955 55.1281C336.631 52.9918 336.998 51.8375 337.055 51.665C337.129 51.4898 337.18 51.3312 337.208 51.1893L337.265 50.9098C337.326 50.6594 337.453 50.5183 337.645 50.4866ZM342.395 53.9221C342.558 53.8695 342.857 53.4511 343.294 52.6669C343.731 51.8828 343.916 51.2945 343.852 50.902C343.842 50.8436 343.81 50.7802 343.756 50.7119C343.616 50.9066 343.344 51.4405 342.94 52.3137C342.543 53.1856 342.362 53.7217 342.395 53.9221ZM347.688 54.9645C348.031 54.4446 348.252 54.3267 348.351 54.6106C348.368 54.7192 348.331 54.9098 348.239 55.1823C347.956 56.0098 347.462 56.9191 346.76 57.9103C345.647 59.4838 344.578 60.3555 343.551 60.5252C343.066 60.6052 342.63 60.5358 342.242 60.3168C341.512 59.897 341.04 59.0358 340.824 57.7331C340.702 56.99 340.755 55.9089 340.983 54.49C341.219 53.0614 341.718 51.7221 342.481 50.4723C342.81 49.8689 343.2 49.5299 343.651 49.4554C343.868 49.4195 344.101 49.4282 344.35 49.4814C344.939 49.6157 345.274 49.9334 345.357 50.4345C345.369 50.5096 345.364 50.6348 345.342 50.8101C345.111 51.5431 344.689 52.4149 344.076 53.4256C343.462 54.4363 342.806 55.2696 342.108 55.9254C342.001 56.9382 341.992 57.7159 342.082 58.2587C342.172 58.8015 342.242 59.1459 342.292 59.2921C342.425 59.6304 342.733 59.7595 343.218 59.6795C343.702 59.5994 344.225 59.2857 344.786 58.7382C345.347 58.1824 345.925 57.4778 346.522 56.6243C347.118 55.7708 347.455 55.2905 347.532 55.1835C347.617 55.0751 347.669 55.0021 347.688 54.9645ZM351.281 49.7642C351.481 50.975 351.25 51.6523 350.588 51.7961C350.421 51.8237 350.255 51.8082 350.091 51.7495C350.401 53.2081 350.671 54.6347 350.901 56.0291C351.132 57.4236 351.032 58.4566 350.603 59.1281C350.357 59.5118 349.997 59.743 349.521 59.8216C349.054 59.9073 348.673 59.8031 348.375 59.5091C348.079 59.2234 347.905 58.922 347.853 58.6047C347.804 58.2094 348.022 57.9676 348.505 57.8792C348.814 57.8282 348.982 58.019 349.011 58.4518C349.04 58.8846 349.175 59.0809 349.417 59.0409C349.868 58.9664 350.049 58.3488 349.96 57.1883C349.924 56.6539 349.824 55.9199 349.661 54.986C349.506 54.0508 349.353 53.5914 349.201 53.6079C349.135 53.6189 349.061 53.7468 348.982 53.9916C348.901 54.228 348.691 54.7259 348.354 55.4851C348.024 56.243 347.724 56.8158 347.454 57.2037C347.183 57.5915 347.001 57.8104 346.906 57.8604C346.686 57.9825 346.54 57.9294 346.468 57.7012C346.435 57.4493 346.516 57.1356 346.711 56.7602C347.416 55.4171 348.057 53.8957 348.633 52.1962C348.766 51.8054 348.828 51.5808 348.818 51.5224L348.52 49.7187C348.463 49.3763 348.587 49.0857 348.891 48.8468C349.02 48.7482 349.148 48.6885 349.273 48.6678C349.792 48.5906 350.298 48.6657 350.79 48.8932C351.023 49.009 351.16 49.1581 351.198 49.3404C351.237 49.5227 351.265 49.664 351.281 49.7642ZM349.842 50.8642C350.117 50.7672 350.264 50.6443 350.283 50.4954C350.308 50.3368 350.309 50.1866 350.285 50.0446C350.26 49.8943 350.233 49.7829 350.204 49.7106C349.954 49.752 349.812 49.9556 349.778 50.3215C349.764 50.4439 349.765 50.5552 349.781 50.6554C349.798 50.7556 349.818 50.8252 349.842 50.8642ZM354.642 55.694C355.084 55.6209 355.419 55.8314 355.647 56.3257C355.716 56.4858 355.767 56.6619 355.798 56.8539C355.902 57.4802 355.789 58.1465 355.46 58.8529C355.132 59.5677 354.781 59.9603 354.406 60.0307C354.321 60.0362 354.27 60.0103 354.252 59.9533C354.252 59.9018 354.295 59.8003 354.382 59.6487C355.29 58.6064 355.256 57.7757 354.279 57.1566C353.974 56.9753 353.814 56.8346 353.797 56.7343C353.743 56.4087 353.877 56.125 354.197 55.8834C354.335 55.7834 354.483 55.7203 354.642 55.694ZM365.467 50.1091C365.63 50.0564 365.929 49.638 366.366 48.8538C366.802 48.0697 366.988 47.4814 366.923 47.0889C366.914 47.0305 366.882 46.9671 366.828 46.8989C366.688 47.0935 366.416 47.6274 366.012 48.5006C365.615 49.3725 365.434 49.9087 365.467 50.1091ZM370.76 51.1515C371.103 50.6315 371.324 50.5136 371.422 50.7975C371.44 50.9061 371.403 51.0967 371.311 51.3693C371.027 52.1968 370.534 53.1061 369.832 54.0972C368.719 55.6707 367.649 56.5424 366.622 56.7121C366.138 56.7922 365.702 56.7227 365.314 56.5037C364.584 56.0839 364.111 55.2227 363.896 53.9201C363.773 53.1769 363.826 52.0958 364.055 50.6769C364.291 49.2483 364.79 47.909 365.553 46.6592C365.882 46.0558 366.272 45.7168 366.723 45.6423C366.94 45.6064 367.173 45.6151 367.422 45.6683C368.01 45.8027 368.346 46.1204 368.429 46.6214C368.441 46.6965 368.436 46.8217 368.414 46.997C368.183 47.73 367.761 48.6018 367.147 49.6125C366.534 50.6232 365.878 51.4565 365.18 52.1123C365.073 53.1251 365.064 53.9029 365.154 54.4456C365.244 54.9884 365.313 55.3329 365.363 55.479C365.497 55.8173 365.805 55.9464 366.29 55.8664C366.774 55.7864 367.297 55.4726 367.858 54.9252C368.418 54.3694 368.997 53.6647 369.593 52.8112C370.19 51.9577 370.527 51.4774 370.603 51.3704C370.688 51.262 370.741 51.189 370.76 51.1515ZM377.662 45.031C377.662 45.031 376.514 45.2208 374.218 45.6003C374.434 45.9763 374.556 46.2178 374.582 46.325C374.555 47.7706 374.447 49.1695 374.259 50.5217C373.8 53.7116 373.006 55.3997 371.879 55.586C371.318 55.6701 370.906 54.9404 370.642 53.397C370.386 51.8439 370.317 50.0795 370.437 48.1038C370.451 47.8785 370.649 47.4425 371.031 46.796C371.459 46.0648 371.669 45.5711 371.661 45.3151C371.662 45.0577 371.687 44.9248 371.737 44.9165L371.873 44.9585L372.488 46.7354C372.243 47.5908 372.033 48.7321 371.857 50.1595C371.681 51.5868 371.642 52.6185 371.738 53.2545C371.769 53.4382 371.839 53.5253 371.949 53.5157C372.024 53.5032 372.105 53.447 372.191 53.3469C372.579 52.8883 372.944 51.7771 373.287 50.0132C373.639 48.248 373.76 47.0356 373.651 46.3759C373.621 46.1922 373.447 45.7662 373.131 45.0979C373.391 45.115 373.68 45.0973 373.997 45.0448C374.315 44.9924 374.846 44.8101 375.593 44.4981C376.339 44.186 376.898 43.9906 377.271 43.9118C377.644 43.833 377.958 43.8626 378.213 44.0007C378.467 44.1388 378.519 44.3747 378.368 44.7085C378.312 44.8378 378.077 44.9453 377.662 45.031ZM378.343 47.981C378.506 47.9284 378.805 47.51 379.242 46.7258C379.679 45.9416 379.864 45.3533 379.8 44.9609C379.79 44.9024 379.758 44.8391 379.704 44.7708C379.564 44.9654 379.292 45.4994 378.888 46.3726C378.491 47.2445 378.31 47.7806 378.343 47.981ZM383.636 49.0234C383.979 48.5035 384.2 48.3855 384.298 48.6695C384.316 48.7781 384.279 48.9686 384.187 49.2412C383.903 50.0687 383.41 50.978 382.708 51.9691C381.595 53.5427 380.526 54.4143 379.498 54.5841C379.014 54.6641 378.578 54.5947 378.19 54.3757C377.46 53.9559 376.988 53.0947 376.772 51.792C376.649 51.0488 376.702 49.9678 376.931 48.5489C377.167 47.1202 377.666 45.781 378.429 44.5312C378.758 43.9277 379.148 43.5888 379.599 43.5142C379.816 43.4784 380.049 43.487 380.298 43.5402C380.887 43.6746 381.222 43.9923 381.305 44.4933C381.317 44.5685 381.312 44.6937 381.29 44.869C381.059 45.6019 380.637 46.4738 380.024 47.4845C379.41 48.4952 378.754 49.3284 378.056 49.9842C377.949 50.997 377.94 51.7748 378.03 52.3176C378.12 52.8603 378.19 53.2048 378.24 53.351C378.373 53.6893 378.681 53.8184 379.166 53.7384C379.65 53.6583 380.173 53.3446 380.734 52.7971C381.294 52.2413 381.873 51.5367 382.47 50.6832C383.066 49.8296 383.403 49.3494 383.48 49.2423C383.565 49.1339 383.617 49.061 383.636 49.0234ZM392.386 47.1527C392.455 47.5702 392.106 48.4171 391.339 49.6934C390.572 50.9697 389.98 51.8267 389.563 52.2644C389.154 52.6924 388.711 52.9457 388.235 53.0244C387.349 53.1623 386.79 52.534 386.56 51.1395C386.451 50.4799 386.414 49.4265 386.449 47.9795C386.483 46.5242 386.498 45.7325 386.494 45.6045C385.657 46.043 384.993 47.2937 384.502 49.3564C384.403 49.7932 384.251 50.5346 384.046 51.5807C383.849 52.617 383.69 53.2394 383.57 53.448C383.422 53.6954 383.198 53.844 382.897 53.8937C382.597 53.9434 382.424 53.8604 382.38 53.6446C382.314 53.2438 383.105 49.6989 384.753 43.0099C385.007 41.9556 385.159 41.3644 385.206 41.2365C385.302 40.9375 385.601 40.901 386.102 41.1271C386.25 41.1969 386.332 41.2777 386.347 41.3695C386.371 41.46 386.333 41.6165 386.232 41.839C386.003 42.3743 385.821 42.9835 385.685 43.6665L385.414 44.9852L385.734 44.4305C386.02 43.9286 386.253 43.5469 386.433 43.2856C386.611 43.0159 386.769 42.8568 386.907 42.8083C387.052 42.7501 387.203 42.7078 387.362 42.6816C387.709 42.6501 387.918 42.8041 387.992 43.1437C388.019 43.3107 387.998 43.5458 387.928 43.8491C387.602 45.1468 387.5 47.0466 387.622 49.5485C387.663 50.2624 387.727 50.8865 387.816 51.4209C387.911 51.9456 388.085 52.1914 388.336 52.1584C388.687 52.1004 389.236 51.4521 389.984 50.2133C390.73 48.9663 391.248 47.9499 391.539 47.1641C391.618 46.9708 391.757 46.8534 391.956 46.812C392.173 46.8276 392.317 46.9411 392.386 47.1527ZM399.421 43.1592C399.428 43.1495 399.555 42.9312 399.801 42.5044C400.05 42.0859 400.225 41.7995 400.329 41.6452L400.525 41.3554C400.666 41.1691 400.904 41.0526 401.239 41.0057C401.573 40.9505 401.776 41.0886 401.848 41.4198C401.863 41.5117 401.839 41.7259 401.774 42.0625C401.71 42.3992 401.649 43.0183 401.592 43.9198C401.439 46.1069 401.47 47.8517 401.685 49.1544C401.772 49.6804 401.892 49.9394 402.045 49.9313C402.304 49.8885 402.651 49.4924 403.084 48.743C403.479 48.0687 404.031 46.5793 404.739 44.2747C404.852 43.9729 405.013 43.8048 405.222 43.7703C405.335 43.7774 405.413 43.8589 405.455 44.0148C405.524 44.4323 405.493 44.9436 405.362 45.5487C405.116 46.713 404.643 47.8463 403.942 48.9487C403.249 50.0498 402.627 50.6458 402.076 50.7369C401.264 50.8624 400.741 50.2669 400.506 48.9503C400.327 47.8648 400.252 46.2945 400.281 44.2394C399.776 44.5031 399.365 45.0042 399.05 45.7426C398.743 46.4796 398.469 47.52 398.227 48.8637C397.977 50.252 397.777 51.0442 397.629 51.2401C397.454 51.4236 397.244 51.5311 397.001 51.5628C396.75 51.6042 396.606 51.5379 396.569 51.3639C396.532 51.1899 396.755 49.8705 397.24 47.4056C397.725 44.9407 398.31 42.382 398.995 39.7296C399.689 37.0757 400.052 35.3516 400.084 34.5571C400.103 34.3137 400.3 34.1567 400.675 34.0862C400.8 34.0655 400.928 34.0615 401.059 34.0742C401.425 34.1081 401.627 34.242 401.666 34.4758C401.68 34.5593 401.67 34.6553 401.636 34.7638L401.51 35.0934C401.062 36.3255 400.366 39.0142 399.421 43.1592ZM409.294 40.7683C407.995 41.2146 406.975 42.2839 406.234 43.9762C405.511 45.6226 405.245 47.1765 405.435 48.6377C406.93 45.7999 408.216 43.1768 409.294 40.7683ZM408.542 39.7989L409.297 39.7769C409.414 39.7576 409.524 39.6708 409.627 39.5165C409.739 39.3608 409.895 39.2664 410.095 39.2333C410.304 39.1988 410.476 39.2262 410.611 39.3154C410.754 39.4033 410.832 39.4889 410.846 39.5724C410.859 39.6476 410.838 39.7839 410.785 39.9814C410.732 40.1789 410.702 40.3083 410.695 40.3695C410.16 44.0351 409.972 46.3481 410.13 47.3083C410.194 47.641 410.297 47.7997 410.441 47.7846C410.95 47.7004 411.637 46.9006 412.502 45.3852C413.081 44.3716 413.44 43.6388 413.58 43.1868C413.728 42.7334 413.862 42.4839 413.983 42.4381C414.008 42.434 414.029 42.4263 414.044 42.4152C414.197 42.4071 414.291 42.4817 414.325 42.6389C414.375 42.9395 414.14 43.6732 413.621 44.8399C412.516 47.3387 411.424 48.6771 410.347 48.8552C409.571 48.9835 409.093 48.5049 408.913 47.4194C408.828 46.9017 408.826 46.2414 408.908 45.4387C408.988 44.6276 409.033 44.1226 409.043 43.9237C408.893 44.2059 408.4 45.2224 407.566 46.973C406.731 48.7236 406.099 49.7802 405.67 50.1428C405.534 50.2512 405.412 50.3185 405.305 50.3448C404.829 50.4234 404.451 50.2928 404.172 49.9529C404.042 49.7858 403.948 49.531 403.891 49.1887C403.825 48.8393 403.947 47.9956 404.258 46.6575C404.759 44.4988 405.449 42.7848 406.329 41.5156C407.023 40.5259 407.761 39.9537 408.542 39.7989ZM422.196 42.2259C422.265 42.6435 421.916 43.4903 421.149 44.7666C420.382 46.0429 419.791 46.8999 419.374 47.3376C418.964 47.7656 418.521 48.0189 418.046 48.0976C417.159 48.2355 416.601 47.6072 416.37 46.2127C416.261 45.5531 416.224 44.4997 416.26 43.0527C416.294 41.5974 416.309 40.8057 416.305 40.6777C415.468 41.1162 414.804 42.3669 414.313 44.4296C414.213 44.8664 414.061 45.6078 413.857 46.6539C413.659 47.6902 413.5 48.3126 413.38 48.5212C413.232 48.7686 413.008 48.9172 412.708 48.9669C412.407 49.0166 412.235 48.9336 412.19 48.7178C412.124 48.317 412.915 44.7721 414.563 38.0831C414.818 37.0288 414.969 36.4376 415.016 36.3097C415.113 36.0107 415.411 35.9742 415.912 36.2003C416.061 36.2701 416.143 36.3509 416.158 36.4427C416.181 36.5332 416.143 36.6897 416.042 36.9122C415.814 37.4476 415.631 38.0567 415.495 38.7397L415.224 40.0584L415.544 39.5037C415.83 39.0018 416.063 38.6202 416.243 38.3588C416.421 38.0891 416.58 37.93 416.717 37.8815C416.862 37.8233 417.014 37.781 417.173 37.7548C417.519 37.7233 417.729 37.8773 417.802 38.2169C417.83 38.3839 417.809 38.619 417.739 38.9223C417.413 40.22 417.311 42.1198 417.432 44.6217C417.473 45.3356 417.538 45.9597 417.626 46.4941C417.721 47.0188 417.895 47.2646 418.147 47.2316C418.498 47.1736 419.047 46.5253 419.794 45.2865C420.54 44.0395 421.059 43.0231 421.349 42.2373C421.429 42.044 421.568 41.9266 421.767 41.8852C421.984 41.9008 422.127 42.0144 422.196 42.2259ZM430.429 28.8213C429.299 31.6331 428.324 35.573 427.506 40.6407C427.506 40.6407 427.415 41.1533 427.233 42.1785C426.746 44.7895 426.563 46.484 426.683 47.262C426.722 47.3928 426.886 47.5544 427.175 47.7468C427.449 47.8989 427.6 48.0626 427.629 48.2379C427.691 48.7166 427.555 49.0093 427.221 49.116C427.012 49.1505 426.812 49.1064 426.62 48.9837C426.235 48.73 425.985 48.2565 425.871 47.5635C425.658 46.2775 425.696 44.8215 425.985 43.1953C426.281 41.5595 426.448 40.5453 426.486 40.153L425.475 42.0572C424.573 43.759 423.726 45.1472 422.934 46.2217C422.866 46.2758 422.677 46.4829 422.368 46.8428C422.065 47.1931 421.663 47.4096 421.162 47.4924C421.02 47.5158 420.887 47.5122 420.762 47.4814C420.325 47.382 420.058 47.0401 419.962 46.4555C419.912 46.1549 420.08 45.4581 420.465 44.365C420.851 43.2718 421.579 41.8133 422.65 39.9892C423.73 38.1638 424.495 37.1108 424.946 36.8304C425.406 36.5485 425.911 36.3621 426.462 36.271C426.654 36.0848 426.848 35.8297 427.043 35.5058C427.239 35.1819 427.445 34.6416 427.663 33.885L428.087 32.3995C428.182 32.0922 428.344 31.5164 428.574 30.6721C428.802 29.8195 428.985 29.1672 429.125 28.7151C429.701 26.8528 430.273 25.8748 430.841 25.7809C431.401 25.6968 431.735 25.9248 431.841 26.4648C431.909 26.8739 431.812 27.349 431.549 27.8899C431.287 28.4308 430.914 28.7412 430.429 28.8213ZM425.697 38.4948C425.739 38.2305 425.754 38.0566 425.74 37.9731C425.725 37.8812 425.699 37.8297 425.663 37.8185C425.604 37.8282 425.382 38.0923 424.996 38.6107C423.457 40.615 422.275 42.7019 421.45 44.8714C421.26 45.3832 421.175 45.7017 421.196 45.8269C421.217 45.9522 421.258 46.0183 421.319 46.0254C421.394 46.0129 421.502 45.9393 421.643 45.8046C422.169 45.3058 422.928 44.241 423.92 42.6102C424.911 40.9795 425.504 39.6077 425.697 38.4948ZM427.914 36.4942C428.143 36.5251 428.349 36.5254 428.532 36.495C428.716 36.4647 428.934 36.3815 429.186 36.2455C429.9 35.8443 430.314 35.2355 430.428 34.4189C430.441 34.2881 430.493 34.2151 430.585 34.1999C430.685 34.1834 430.796 34.178 430.917 34.1837C431.409 34.2052 431.678 34.3496 431.722 34.6168L431.873 35.5312C431.582 35.8452 431.328 36.3374 431.113 37.0078C430.905 37.6684 430.797 38.8572 430.789 40.5742L430.786 41.025L430.964 40.6224C431.87 38.5769 432.388 37.0673 432.519 36.0935C433.128 36.1987 433.667 36.2126 434.135 36.1353C436.105 35.8096 437.444 35.2451 438.152 34.4419C438.251 34.314 438.318 34.2515 438.353 34.2543C438.356 34.271 438.301 34.5631 438.189 35.1307L437.994 36.0508C437.936 36.2748 437.837 36.3985 437.695 36.4219C437.294 36.4367 437.052 36.451 436.968 36.4648C436.375 36.5627 435.844 36.8006 435.375 37.1785C435.378 38.9622 435.273 40.6909 435.061 42.3645C435.008 42.7164 434.863 43.2164 434.627 43.8645C434.17 45.0981 433.742 45.748 433.341 45.8142C432.706 45.9191 432.247 45.1372 431.962 43.4685C431.932 43.2848 431.893 43.0211 431.844 42.6773C431.796 42.3336 431.76 42.0866 431.735 41.9363C431.667 41.9904 431.602 42.0697 431.542 42.1739C431.491 42.2768 431.324 42.669 431.042 43.3504C430.76 44.0318 430.49 44.3939 430.231 44.4367C430.189 44.4436 430.118 44.4296 430.018 44.3946C429.555 44.2396 429.286 43.9366 429.212 43.4857C429.093 42.7675 429.196 41.5495 429.521 39.8316C429.846 38.1136 430.02 37.1114 430.041 36.8248C429.772 36.7576 429.442 36.8337 429.049 37.053C428.665 37.2709 428.452 37.3833 428.41 37.3902C428.158 37.4233 428.003 37.2902 427.945 36.991C427.886 36.6834 427.875 36.5178 427.914 36.4942ZM432.956 43.33C432.996 43.5722 433.076 43.6405 433.196 43.5349C433.442 43.2625 433.75 42.3196 434.118 40.706C434.494 39.0911 434.619 37.9253 434.492 37.2086C434.478 37.1251 434.445 37.0276 434.392 36.9162C434.226 36.5835 434.042 36.4336 433.842 36.4668C433.795 36.4917 433.749 36.555 433.706 36.6565C433.407 37.4436 433.178 38.5752 433.019 40.0513C432.86 41.5273 432.839 42.6203 432.956 43.33ZM441.233 35.7985L441.235 35.9655L441.235 36.1199C441.268 36.3203 441.108 37.1703 440.756 38.6697C440.395 40.1705 440.266 41.2125 440.371 41.7957C440.552 42.7866 440.877 43.2476 441.346 43.1786C441.814 43.1014 442.412 42.4663 443.142 41.2735C444.02 39.8415 444.528 38.7882 444.665 38.1136C444.804 37.4473 444.94 37.1031 445.074 37.081C445.184 37.0714 445.262 37.1787 445.307 37.4028C445.343 37.6199 445.346 37.791 445.315 37.9162L445.245 38.2751C445.038 39.253 444.633 40.3022 444.029 41.4229C443.159 43.0677 442.291 43.9619 441.422 44.1054C441.147 44.151 440.884 44.1214 440.636 44.0167C440.008 43.7515 439.613 43.122 439.448 42.1283C439.395 41.8027 439.383 41.2899 439.413 40.5901C439.452 39.8889 439.462 39.5139 439.446 39.4652C439.436 39.4067 439.351 39.3565 439.189 39.3146C438.867 39.2307 438.663 39.2471 438.58 39.3638C438.516 39.4945 438.293 40.4578 437.912 42.2536C437.54 44.048 437.232 44.9652 436.99 45.0052C436.915 45.0176 436.765 44.991 436.539 44.9253C436.306 44.8609 436.174 44.7411 436.145 44.5658C436.14 44.5324 436.206 44.2597 436.345 43.7479L436.771 42.0433C437.07 40.8443 437.392 39.26 437.735 37.2902L438.623 32.3053C438.645 32.1815 438.769 32.0968 438.993 32.0512L439.316 31.9849C439.717 31.9186 439.942 32.0316 439.99 32.3239C440.013 32.4658 439.9 33.128 439.649 34.3103C439.398 35.4927 439.26 36.3948 439.234 37.0167L439.259 37.3987C439.277 37.5073 439.308 37.5664 439.352 37.5762C439.376 37.5638 439.45 37.3628 439.574 36.9734L439.795 36.2808C439.832 36.1973 439.866 36.0888 439.895 35.9553C440.022 35.5826 440.211 35.3755 440.462 35.3341C440.897 35.2707 441.152 35.413 441.227 35.7609L441.233 35.7985ZM447.127 31.0542C447.083 31.0444 446.967 30.9948 446.781 30.9055C446.557 30.7967 446.44 30.7089 446.429 30.6421C446.391 30.4166 446.617 29.8346 447.105 28.8961C447.594 27.9576 447.866 27.3979 447.921 27.2171C448.096 26.9738 448.401 27.0306 448.837 27.3874C449.188 27.6898 449.326 27.9585 449.254 28.1936C449.231 28.4203 448.952 28.9383 448.417 29.7473C447.881 30.5564 447.452 30.992 447.127 31.0542ZM451.421 38.4254C451.256 39.3449 450.788 40.3314 450.019 41.3851C449.11 42.6333 448.288 43.3182 447.553 43.4396C446.559 43.6038 445.844 43.143 445.407 42.0571C445.276 41.7272 445.177 41.3618 445.11 40.961C444.888 39.6681 444.887 38.1285 445.106 36.3422C445.376 34.0844 445.791 32.9092 446.351 32.8167C446.626 32.7712 446.838 32.8049 446.985 32.9178C447.139 33.0209 447.221 33.1018 447.231 33.1602C447.275 33.4274 447.113 34.1319 446.744 35.2738C446.374 36.4073 446.161 37.223 446.106 37.7211C446.058 38.2094 446.063 38.839 446.122 39.6099C446.188 40.3711 446.239 40.8603 446.275 41.0774C446.396 41.8122 446.56 42.257 446.765 42.4117C446.98 42.565 447.217 42.6245 447.477 42.5901C448.212 42.4686 448.983 41.6849 449.791 40.239C450.18 39.5313 450.469 38.8916 450.657 38.32C450.749 38.0989 450.862 37.9773 450.996 37.9552C451.227 37.9514 451.371 38.0434 451.427 38.2313C451.432 38.2564 451.429 38.3211 451.421 38.4254ZM453.265 30.0399C453.22 30.0301 453.105 29.9805 452.919 29.8912C452.695 29.7824 452.577 29.6945 452.566 29.6277C452.529 29.4023 452.754 28.8203 453.243 27.8818C453.731 26.9432 454.003 26.3836 454.059 26.2028C454.233 25.9595 454.539 26.0163 454.975 26.3731C455.325 26.6755 455.464 26.9442 455.391 27.1792C455.369 27.406 455.09 27.9239 454.554 28.733C454.019 29.5421 453.589 29.9777 453.265 30.0399ZM457.558 37.4111C457.393 38.3305 456.925 39.3171 456.156 40.3707C455.247 41.619 454.425 42.3038 453.69 42.4253C452.697 42.5895 451.982 42.1287 451.545 41.0428C451.413 40.7128 451.314 40.3475 451.248 39.9467C451.025 38.6537 451.024 37.1142 451.244 35.3279C451.514 33.07 451.929 31.8949 452.488 31.8024C452.764 31.7569 452.975 31.7905 453.122 31.9034C453.277 32.0066 453.359 32.0874 453.368 32.1459C453.413 32.4131 453.25 33.1176 452.881 34.2594C452.511 35.3929 452.298 36.2087 452.244 36.7067C452.196 37.1951 452.201 37.8247 452.26 38.5956C452.325 39.3568 452.376 39.8459 452.412 40.063C452.534 40.7979 452.697 41.2426 452.903 41.3974C453.117 41.5507 453.354 41.6102 453.614 41.5757C454.349 41.4543 455.12 40.6706 455.928 39.2246C456.317 38.5169 456.606 37.8773 456.795 37.3057C456.887 37.0846 457 36.963 457.133 36.9409C457.364 36.937 457.508 37.029 457.565 37.217C457.569 37.242 457.567 37.3067 457.558 37.4111ZM459.936 30.8545L464.416 30.0112C464.508 29.996 464.622 30.0629 464.758 30.212C464.893 30.3527 464.987 30.5602 465.041 30.8343C465.063 31.0194 464.841 31.1548 464.375 31.2404C462.994 31.5029 461.343 31.9473 459.422 32.5736C459.348 33.0062 459.216 33.6329 459.025 34.4535C458.189 38.0575 457.883 40.5401 458.107 41.9012C458.219 42.5775 458.456 43.2075 458.819 43.7909C459.443 44.7686 460.203 45.1835 461.096 45.0359C461.789 44.9213 462.34 44.6459 462.748 44.2095C463.166 43.7802 463.63 43.1073 464.139 42.1911C464.296 41.8991 464.49 41.7728 464.72 41.812C464.943 41.8694 465.077 42.0317 465.122 42.2989C465.249 43.0671 464.912 43.779 464.111 44.4347C463.311 45.0987 462.402 45.5149 461.383 45.6833C460.373 45.8502 459.435 45.6236 458.569 45.0032C457.711 44.3815 457.18 43.4527 456.976 42.2169C456.839 41.3902 456.797 40.4878 456.85 39.5097C456.903 38.5316 457.089 37.2956 457.408 35.8017C457.726 34.2994 457.93 33.3007 458.02 32.8055C456.291 33.0911 455.323 33.2296 455.116 33.221C454.476 33.1895 454.119 32.9783 454.046 32.5872C454.034 32.4605 454.117 32.3653 454.295 32.3016L458.31 31.2906L460.245 26.3385C460.468 25.7697 460.705 25.4646 460.956 25.4232C461.056 25.4066 461.176 25.404 461.315 25.4153C461.825 25.4425 462.101 25.5813 462.143 25.8318C462.183 26.074 461.994 26.4911 461.578 27.0833C461.161 27.6755 460.906 28.0522 460.812 28.2135C460.5 28.7626 460.208 29.643 459.936 30.8545ZM465.495 33.5774C465.657 33.5248 465.957 33.1063 466.394 32.3222C466.83 31.538 467.016 30.9497 466.951 30.5573C466.942 30.4988 466.91 30.4355 466.856 30.3672C466.716 30.5618 466.444 31.0957 466.039 31.969C465.643 32.8409 465.461 33.377 465.495 33.5774ZM470.788 34.6198C471.131 34.0999 471.352 33.9819 471.45 34.2659C471.468 34.3744 471.431 34.565 471.339 34.8376C471.055 35.6651 470.562 36.5744 469.86 37.5655C468.747 39.1391 467.677 40.0107 466.65 40.1805C466.166 40.2605 465.73 40.191 465.342 39.9721C464.612 39.5523 464.139 38.691 463.924 37.3884C463.801 36.6452 463.854 35.5642 464.083 34.1453C464.319 32.7166 464.818 31.3774 465.581 30.1275C465.91 29.5241 466.3 29.1852 466.751 29.1106C466.968 29.0748 467.201 29.0834 467.45 29.1366C468.038 29.271 468.374 29.5887 468.457 30.0897C468.469 30.1649 468.464 30.2901 468.442 30.4654C468.211 31.1983 467.789 32.0702 467.175 33.0809C466.562 34.0916 465.906 34.9248 465.208 35.5806C465.101 36.5934 465.092 37.3712 465.182 37.914C465.272 38.4567 465.341 38.8012 465.391 38.9474C465.524 39.2857 465.833 39.4148 466.317 39.3347C466.802 39.2547 467.325 38.941 467.886 38.3935C468.446 37.8377 469.025 37.1331 469.621 36.2795C470.218 35.426 470.555 34.9458 470.631 34.8387C470.716 34.7303 470.769 34.6573 470.788 34.6198ZM479.538 32.7491C479.607 33.1666 479.258 34.0135 478.491 35.2898C477.724 36.566 477.132 37.423 476.715 37.8608C476.306 38.2888 475.863 38.5421 475.387 38.6208C474.5 38.7587 473.942 38.1304 473.711 36.7359C473.602 36.0762 473.566 35.0229 473.601 33.5759C473.635 32.1205 473.65 31.3289 473.646 31.2008C472.809 31.6394 472.145 32.89 471.654 34.9528C471.554 35.3896 471.402 36.131 471.198 37.1771C471 38.2134 470.842 38.8358 470.722 39.0444C470.574 39.2918 470.35 39.4404 470.049 39.4901C469.748 39.5398 469.576 39.4567 469.532 39.241C469.465 38.8402 470.256 35.2953 471.905 28.6063C472.159 27.552 472.31 26.9608 472.358 26.8329C472.454 26.5339 472.753 26.4974 473.253 26.7235C473.402 26.7933 473.484 26.8741 473.499 26.9659C473.523 27.0564 473.484 27.2129 473.384 27.4354C473.155 27.9707 472.972 28.5799 472.837 29.2629L472.566 30.5816L472.886 30.0269C473.172 29.525 473.404 29.1433 473.584 28.882C473.763 28.6123 473.921 28.4532 474.059 28.4047C474.203 28.3464 474.355 28.3042 474.514 28.278C474.86 28.2465 475.07 28.4005 475.144 28.7401C475.171 28.9071 475.15 29.1422 475.08 29.4455C474.754 30.7432 474.652 32.643 474.774 35.1449C474.815 35.8587 474.879 36.4829 474.967 37.0173C475.063 37.542 475.236 37.7878 475.488 37.7547C475.839 37.6968 476.388 37.0484 477.135 35.8097C477.882 34.5626 478.4 33.5462 478.69 32.7605C478.77 32.5672 478.909 32.4498 479.108 32.4083C479.325 32.4239 479.468 32.5375 479.538 32.7491Z" fill="#F4BB94"/>
</svg>
